Merriweather-DisplayBoldWide.ufo
<glyph name="quotedbl" format="2">
  <advance width="1115.9944751381215"/>
  <unicode hex="0022"/>
  <outline>
    <contour>
      <point x="451.17679558011054" y="1671.5027624309391" type="line"/>
      <point x="203.2596685082873" y="1671.5027624309391" type="line"/>
      <point x="304.1325966850829" y="973.8066298342541" type="line"/>
      <point x="348.0276243093923" y="973.8066298342541" type="line"/>
    </contour>
    <contour>
      <point x="916.182320441989" y="1671.5027624309391" type="line"/>
      <point x="668.0939226519337" y="1671.5027624309391" type="line"/>
      <point x="768.4143646408841" y="973.8066298342541" type="line"/>
      <point x="813.5856353591159" y="973.8066298342541" type="line"/>
    </contour>
  </outline>
</glyph>
<glyph name="numbersign" format="2">
  <advance width="1368.9502762430939"/>
  <unicode hex="0023"/>
  <outline>
    <contour>
      <point x="357.47513812154693" y="413.0" type="line"/>
      <point x="293.47513812154693" y="0.0" type="line"/>
      <point x="361.47513812154693" y="0.0" type="line"/>
      <point x="426.47513812154693" y="413.0" type="line"/>
      <point x="821.4751381215469" y="413.0" type="line"/>
      <point x="758.4751381215469" y="0.0" type="line"/>
      <point x="826.4751381215469" y="0.0" type="line"/>
      <point x="889.4751381215469" y="413.0" type="line"/>
      <point x="1151.9502762430939" y="413.0" type="line"/>
      <point x="1177.1878453038673" y="596.6629834254144" type="line"/>
      <point x="918.7127071823204" y="596.6629834254144" type="line"/>
      <point x="974.5138121546961" y="926.3370165745856" type="line"/>
      <point x="1222.7127071823204" y="926.3370165745856" type="line"/>
      <point x="1247.9502762430939" y="1108.0" type="line"/>
      <point x="1000.4751381215469" y="1108.0" type="line"/>
      <point x="1070.475138121547" y="1539.0" type="line"/>
      <point x="1001.4751381215469" y="1539.0" type="line"/>
      <point x="931.4751381215469" y="1108.0" type="line"/>
      <point x="537.4751381215469" y="1108.0" type="line"/>
      <point x="605.4751381215469" y="1539.0" type="line"/>
      <point x="537.4751381215469" y="1539.0" type="line"/>
      <point x="469.47513812154693" y="1108.0" type="line"/>
      <point x="216.0" y="1108.0" type="line"/>
      <point x="190.76243093922653" y="926.3370165745856" type="line"/>
      <point x="441.23756906077347" y="926.3370165745856" type="line"/>
      <point x="387.8839779005525" y="596.6629834254144" type="line"/>
      <point x="146.23756906077347" y="596.6629834254144" type="line"/>
      <point x="121.0" y="413.0" type="line"/>
    </contour>
    <contour>
      <point x="850.7127071823204" y="596.6629834254144" type="line"/>
      <point x="454.8839779005525" y="596.6629834254144" type="line"/>
      <point x="510.23756906077347" y="926.3370165745856" type="line"/>
      <point x="905.5138121546961" y="926.3370165745856" type="line"/>
    </contour>
  </outline>
</glyph>
<glyph name="asterisk" format="2">
  <advance width="916.867403314917"/>
  <unicode hex="002A"/>
  <outline>
    <contour>
      <point x="227.32044198895028" y="1206.3701657458564" type="line"/>
      <point x="64.5635359116022" y="1132.0441988950274" type="line"/>
      <point x="147.55248618784532" y="989.4088397790056" type="line"/>
      <point x="293.8232044198895" y="1095.7734806629835" type="line"/>
      <point x="439.8011049723757" y="1236.988950276243" type="line"/>
      <point x="397.32596685082876" y="1038.2983425414366" type="line"/>
      <point x="381.66850828729275" y="861.1602209944751" type="line"/>
      <point x="546.6464088397789" y="861.1602209944751" type="line"/>
      <point x="526.4364640883978" y="1040.7458563535913" type="line"/>
      <point x="477.3425414364641" y="1236.9889502762433" type="line"/>
      <point x="628.6629834254143" y="1101.1160220994473" type="line"/>
      <point x="774.7624309392265" y="999.0276243093923" type="line"/>
      <point x="857.7513812154696" y="1141.6629834254143" type="line"/>
      <point x="691.2707182320441" y="1213.8839779005525" type="line"/>
      <point x="495.7513812154695" y="1269.635359116022" type="line"/>
      <point x="689.5469613259669" y="1332.1767955801104" type="line"/>
      <point x="852.3038674033149" y="1406.5027624309391" type="line"/>
      <point x="769.3149171270719" y="1549.1381215469614" type="line"/>
      <point x="623.0441988950275" y="1442.7734806629835" type="line"/>
      <point x="477.0662983425414" y="1301.5580110497237" type="line"/>
      <point x="519.5414364640884" y="1500.2486187845304" type="line"/>
      <point x="535.1988950276243" y="1677.3867403314916" type="line"/>
      <point x="370.2209944751381" y="1677.3867403314916" type="line"/>
      <point x="390.4309392265194" y="1497.8011049723757" type="line"/>
      <point x="439.524861878453" y="1301.5580110497237" type="line"/>
      <point x="288.2044198895028" y="1437.4309392265193" type="line"/>
      <point x="142.10497237569064" y="1539.5193370165746" type="line"/>
      <point x="59.11602209944752" y="1396.8839779005525" type="line"/>
      <point x="225.5966850828729" y="1324.6629834254143" type="line"/>
      <point x="421.11602209944755" y="1268.9116022099447" type="line"/>
    </contour>
  </outline>
</glyph>
<glyph name="slash" format="2">
  <advance width="724.9944751381214"/>
  <unicode hex="002F"/>
  <outline>
    <contour>
      <point x="686.9944751381215" y="1562.0" type="line"/>
      <point x="592.1657458563536" y="1562.0" type="line"/>
      <point x="38.0" y="-354.0" type="line"/>
      <point x="134.27624309392263" y="-354.0" type="line"/>
    </contour>
  </outline>
</glyph>
<glyph name="zero" format="2">
  <advance width="1413.5524861878453"/>
  <unicode hex="0030"/>
  <outline>
    <contour>
      <point x="679.0441988950275" y="-20.171270718232044" type="curve" smooth="yes"/>
      <point x="1072.6022099447514" y="-20.171270718232044"/>
      <point x="1351.3425414364642" y="262.6685082872928"/>
      <point x="1352.171270718232" y="771.8839779005525" type="curve" smooth="yes"/>
      <point x="1353.0" y="1242.624309392265"/>
      <point x="1115.7679558011048" y="1504.7237569060774"/>
      <point x="736.4419889502763" y="1504.7237569060774" type="curve" smooth="yes"/>
      <point x="364.39779005524866" y="1504.7237569060774"/>
      <point x="62.93370165745858" y="1231.0662983425416"/>
      <point x="61.38121546961325" y="718.0220994475138" type="curve" smooth="yes"/>
      <point x="59.82872928176796" y="253.49171270718227"/>
      <point x="296.09944751381215" y="-20.171270718232044"/>
    </contour>
    <contour>
      <point x="708.4806629834253" y="34.89502762430939" type="curve" smooth="yes"/>
      <point x="516.7016574585635" y="34.89502762430939"/>
      <point x="425.66298342541444" y="233.38121546961327"/>
      <point x="425.66298342541444" y="734.707182320442" type="curve" smooth="yes"/>
      <point x="425.66298342541444" y="1257.9944751381215"/>
      <point x="529.9889502762433" y="1446.0386740331492"/>
      <point x="708.0718232044198" y="1446.0386740331492" type="curve" smooth="yes"/>
      <point x="895.889502762431" y="1446.0386740331492"/>
      <point x="987.8895027624309" y="1285.7237569060774"/>
      <point x="987.8895027624309" y="741.4475138121546" type="curve" smooth="yes"/>
      <point x="987.8895027624309" y="245.96685082872926"/>
      <point x="905.2099447513813" y="34.89502762430939"/>
    </contour>
  </outline>
</glyph>
<glyph name="less" format="2">
  <advance width="1452.939226519337"/>
  <unicode hex="003C"/>
  <outline>
    <contour>
      <point x="1217.7016574585637" y="1051.0" type="line"/>
      <point x="171.23756906077347" y="597.0" type="line"/>
      <point x="171.23756906077347" y="526.0" type="line"/>
      <point x="1217.7016574585637" y="77.0" type="line"/>
      <point x="1217.7016574585637" y="171.44751381215468" type="line"/>
      <point x="285.5138121546961" y="562.0" type="line"/>
      <point x="1217.7016574585637" y="957.828729281768" type="line"/>
    </contour>
  </outline>
</glyph>
<glyph name="equal" format="2">
  <advance width="1287.3867403314916"/>
  <unicode hex="003D"/>
  <outline>
    <contour>
      <point x="1132.8342541436468" y="860.4475138121547" type="line"/>
      <point x="154.5524861878453" y="860.4475138121547" type="line"/>
      <point x="154.5524861878453" y="775.0" type="line"/>
      <point x="1132.8342541436468" y="775.0" type="line"/>
    </contour>
    <contour>
      <point x="1132.8342541436468" y="349.44751381215474" type="line"/>
      <point x="154.5524861878453" y="349.44751381215474" type="line"/>
      <point x="154.5524861878453" y="264.0" type="line"/>
      <point x="1132.8342541436468" y="264.0" type="line"/>
    </contour>
  </outline>
</glyph>
<glyph name="question" format="2">
  <advance width="944.707182320442"/>
  <unicode hex="003F"/>
  <outline>
    <contour>
      <point x="337.7182320441988" y="455.88950276243094" type="curve"/>
      <point x="404.1657458563536" y="455.88950276243094" type="line"/>
      <point x="392.9944751381215" y="549.414364640884"/>
      <point x="385.2707182320442" y="623.5469613259669"/>
      <point x="385.2707182320442" y="702.6906077348067" type="curve" smooth="yes"/>
      <point x="385.27071823204415" y="730.8232044198894"/>
      <point x="388.16574585635357" y="771.8508287292818"/>
      <point x="399.8508287292818" y="790.0220994475139" type="curve"/>
      <point x="485.3756906077348" y="919.9226519337017"/>
      <point x="911.7900552486188" y="978.0773480662983"/>
      <point x="911.7900552486188" y="1327.8950276243095" type="curve" smooth="yes"/>
      <point x="911.7900552486188" y="1598.3038674033148"/>
      <point x="695.6022099447514" y="1774.342541436464"/>
      <point x="355.52486187845307" y="1774.342541436464" type="curve" smooth="yes"/>
      <point x="218.45303867403317" y="1774.342541436464"/>
      <point x="119.09944751381217" y="1742.5911602209947"/>
      <point x="69.13812154696133" y="1716.4198895027625" type="curve"/>
      <point x="90.13812154696133" y="1644.5635359116022" type="line"/>
      <point x="129.51933701657458" y="1662.5635359116022"/>
      <point x="204.11049723756906" y="1677.1823204419888"/>
      <point x="276.3756906077348" y="1677.1823204419888" type="curve" smooth="yes"/>
      <point x="501.75138121546956" y="1677.1823204419888"/>
      <point x="616.9834254143647" y="1519.3038674033148"/>
      <point x="616.9834254143647" y="1299.8563535911603" type="curve" smooth="yes"/>
      <point x="616.9834254143647" y="1119.0773480662983"/>
      <point x="555.6850828729281" y="997.9834254143645"/>
      <point x="473.69613259668506" y="959.6685082872928" type="curve" smooth="yes"/>
      <point x="315.95580110497235" y="884.9337016574586"/>
      <point x="241.70165745856355" y="837.5027624309392"/>
      <point x="241.70165745856355" y="755.3756906077349" type="curve"/>
      <point x="243.08287292817676" y="673.0718232044198"/>
      <point x="304.27071823204415" y="528.425414364641"/>
    </contour>
    <contour>
      <point x="347.8508287292818" y="-17.65745856353591" type="curve" smooth="yes"/>
      <point x="454.99999999999994" y="-17.65745856353591"/>
      <point x="526.817679558011" y="37.92265193370166"/>
      <point x="526.817679558011" y="131.32044198895028" type="curve" smooth="yes"/>
      <point x="526.817679558011" y="200.75690607734808"/>
      <point x="477.3812154696132" y="266.4696132596685"/>
      <point x="375.2596685082873" y="266.4696132596685" type="curve" smooth="yes"/>
      <point x="276.0718232044199" y="266.4696132596685"/>
      <point x="200.08287292817678" y="205.2707182320442"/>
      <point x="200.08287292817678" y="117.49171270718232" type="curve" smooth="yes"/>
      <point x="200.08287292817678" y="37.88397790055249"/>
      <point x="265.96685082872926" y="-17.65745856353591"/>
    </contour>
  </outline>
</glyph>
<glyph name="at" format="2">
  <advance width="2201.563535911602"/>
  <unicode hex="0040"/>
  <outline>
    <contour>
      <point x="139.2375690607735" y="348.97237569060775" type="curve" smooth="yes"/>
      <point x="139.2375690607735" y="-189.31491712707185"/>
      <point x="486.74033149171254" y="-515.9226519337017"/>
      <point x="960.3204419889502" y="-515.9226519337017" type="curve" smooth="yes"/>
      <point x="1158.9116022099447" y="-515.9226519337017"/>
      <point x="1360.3867403314916" y="-458.5414364640884"/>
      <point x="1470.453038674033" y="-368.8563535911602" type="curve"/>
      <point x="1449.0055248618783" y="-321.09392265193367" type="line"/>
      <point x="1327.3591160220997" y="-400.02762430939225"/>
      <point x="1167.6906077348067" y="-440.2099447513812"/>
      <point x="1021.4696132596684" y="-440.2099447513812" type="curve" smooth="yes"/>
      <point x="600.756906077348" y="-440.2099447513812"/>
      <point x="293.7403314917127" y="-113.20994475138122"/>
      <point x="293.7403314917127" y="388.5138121546961" type="curve" smooth="yes"/>
      <point x="293.7403314917127" y="965.2596685082873"/>
      <point x="690.1988950276243" y="1436.2486187845302"/>
      <point x="1228.0441988950276" y="1436.2486187845302" type="curve" smooth="yes"/>
      <point x="1608.9944751381213" y="1436.2486187845302"/>
      <point x="1950.5082872928176" y="1195.0883977900553"/>
      <point x="1950.5082872928176" y="737.5635359116022" type="curve" smooth="yes"/>
      <point x="1950.5082872928176" y="343.1215469613259"/>
      <point x="1697.1049723756907" y="108.70165745856355"/>
      <point x="1561.4972375690609" y="108.70165745856355" type="curve" smooth="yes"/>
      <point x="1509.3259668508285" y="108.70165745856355"/>
      <point x="1489.9060773480662" y="145.5027624309392"/>
      <point x="1494.6022099447512" y="275.7845303867403" type="curve" smooth="yes"/>
      <point x="1499.0220994475137" y="504.1436464088398"/>
      <point x="1560.6022099447516" y="809.0552486187845"/>
      <point x="1599.430939226519" y="938.8397790055249" type="curve"/>
      <point x="1452.2928176795579" y="986.5524861878454"/>
      <point x="1438.779005524862" y="989.9999999999999"/>
      <point x="1419.475138121547" y="990.2762430939225" type="curve" smooth="yes"/>
      <point x="1394.2375690607735" y="991.1049723756905"/>
      <point x="1378.7237569060771" y="988.3425414364641"/>
      <point x="1361.1049723756905" y="943.5524861878453" type="curve"/>
      <point x="1290.618784530387" y="975.0"/>
      <point x="1216.3977900552488" y="991.2762430939227"/>
      <point x="1145.6740331491712" y="991.2762430939227" type="curve" smooth="yes"/>
      <point x="812.9502762430939" y="991.2762430939227"/>
      <point x="587.1049723756906" y="675.2154696132596"/>
      <point x="587.1049723756906" y="360.6574585635359" type="curve" smooth="yes"/>
      <point x="587.1049723756906" y="123.35359116022097"/>
      <point x="720.2486187845304" y="-13.370165745856355"/>
      <point x="880.4751381215469" y="-13.370165745856355" type="curve" smooth="yes"/>
      <point x="1061.436464088398" y="-13.370165745856355"/>
      <point x="1187.4088397790056" y="169.00552486187846"/>
      <point x="1271.4475138121547" y="434.5745856353591" type="curve"/>
      <point x="1248.657458563536" y="290.56353591160223"/>
      <point x="1236.9723756906076" y="191.5138121546961"/>
      <point x="1239.696132596685" y="142.20994475138122" type="curve" smooth="yes"/>
      <point x="1246.1436464088395" y="35.73480662983425"/>
      <point x="1323.5911602209944" y="-4.685082872928177"/>
      <point x="1420.8563535911603" y="-4.685082872928177" type="curve" smooth="yes"/>
      <point x="1690.0110497237567" y="-4.685082872928177"/>
      <point x="2079.6022099447514" y="292.292817679558"/>
      <point x="2079.6022099447514" y="795.6850828729282" type="curve" smooth="yes"/>
      <point x="2079.6022099447514" y="1232.2209944751382"/>
      <point x="1788.486187845304" y="1524.9889502762433"/>
      <point x="1309.7845303867405" y="1524.9889502762433" type="curve" smooth="yes"/>
      <point x="710.0718232044198" y="1524.9889502762433"/>
      <point x="139.2375690607735" y="1049.1160220994475"/>
    </contour>
    <contour>
      <point x="867.0386740331492" y="444.292817679558" type="curve" smooth="yes"/>
      <point x="867.0386740331492" y="720.4364640883979"/>
      <point x="993.1160220994476" y="933.6574585635359"/>
      <point x="1144.1657458563536" y="933.6574585635359" type="curve" smooth="yes"/>
      <point x="1200.558011049724" y="933.6574585635359"/>
      <point x="1270.513812154696" y="896.6850828729282"/>
      <point x="1323.4861878453041" y="848.5138121546961" type="curve"/>
      <point x="1319.6187845303866" y="787.1602209944751"/>
      <point x="1286.657458563536" y="652.8397790055249"/>
      <point x="1263.171270718232" y="576.182320441989" type="curve" smooth="yes"/>
      <point x="1186.46408839779" y="331.5690607734807"/>
      <point x="1084.9558011049724" y="164.54696132596683"/>
      <point x="990.9834254143645" y="164.54696132596683" type="curve" smooth="yes"/>
      <point x="908.707182320442" y="164.54696132596683"/>
      <point x="867.0386740331492" y="292.4419889502762"/>
    </contour>
  </outline>
</glyph>
<glyph name="A" format="2">
  <advance width="1358.4364640883975"/>
  <unicode hex="0041"/>
  <anchor x="627.5414364640884" y="0.0" name="bottom"/>
  <anchor x="1246.767955801105" y="20.0" name="ogonek"/>
  <anchor x="681.0828729281768" y="1486.0" name="top"/>
  <outline>
    <contour>
      <point x="3.1546961325966834" y="70.61878453038673" type="line"/>
      <point x="-133.4254143646409" y="37.447513812154696" type="line"/>
      <point x="-133.42541436464091" y="0.0" type="line"/>
      <point x="295.62983425414365" y="0.0" type="line"/>
      <point x="295.62983425414365" y="37.447513812154696" type="line"/>
      <point x="113.6022099447514" y="71.17127071823205" type="line"/>
      <point x="236.46961325966848" y="441.9060773480663" type="line"/>
      <point x="800.6850828729281" y="441.9060773480663" type="line"/>
      <point x="930.8287292817679" y="70.61878453038673" type="line"/>
      <point x="777.9337016574586" y="37.447513812154696" type="line"/>
      <point x="777.9337016574586" y="0.0" type="line"/>
      <point x="1429.1381215469612" y="0.0" type="line"/>
      <point x="1429.1381215469612" y="37.447513812154696" type="line"/>
      <point x="1304.92817679558" y="68.44751381215468" type="line"/>
      <point x="810.1933701657458" y="1490.5911602209944" type="line"/>
      <point x="533.2983425414365" y="1490.5911602209944" type="line"/>
    </contour>
    <contour>
      <point x="777.0662983425415" y="506.4585635359116" type="line"/>
      <point x="259.9171270718232" y="506.4585635359116" type="line"/>
      <point x="483.6243093922652" y="1142.0939226519336" type="line"/>
      <point x="525.2817679558011" y="1260.85635359116" type="line"/>
      <point x="566.2154696132596" y="1142.0939226519336" type="line"/>
    </contour>
  </outline>
</glyph>
<glyph name="G" format="2">
  <advance width="1445.6077348066299"/>
  <unicode hex="0047"/>
  <anchor x="719.8729281767957" y="0.0" name="bottom"/>
  <anchor x="1205.5031215469614" y="349.0" name="rstem"/>
  <anchor x="779.8729281767955" y="1486.0" name="top"/>
  <outline>
    <contour>
      <point x="750.0441988950276" y="-21.447513812154696" type="curve" smooth="yes"/>
      <point x="1092.9834254143645" y="-21.447513812154696"/>
      <point x="1172.3149171270718" y="78.89502762430939"/>
      <point x="1338.3480662983425" y="80.0" type="curve"/>
      <point x="1338.3480662983425" y="632.878453038674" type="line"/>
      <point x="1425.1104972375692" y="653.1546961325968" type="line"/>
      <point x="1425.1104972375692" y="708.9171270718232" type="line"/>
      <point x="839.132596685083" y="708.9171270718232" type="line"/>
      <point x="839.132596685083" y="653.1546961325968" type="line"/>
      <point x="1033.5966850828727" y="632.878453038674" type="line"/>
      <point x="1033.5966850828727" y="166.5966850828729" type="line"/>
      <point x="998.6243093922652" y="84.13259668508289"/>
      <point x="879.8563535911602" y="34.61878453038674"/>
      <point x="783.1878453038674" y="34.61878453038674" type="curve" smooth="yes"/>
      <point x="501.27624309392263" y="34.61878453038674"/>
      <point x="385.25414364640886" y="388.86740331491706"/>
      <point x="386.70165745856355" y="756.0662983425414" type="curve" smooth="yes"/>
      <point x="388.1491712707183" y="1226.4917127071822"/>
      <point x="535.9171270718232" y="1452.0"/>
      <point x="775.3812154696133" y="1452.0" type="curve" smooth="yes"/>
      <point x="951.4254143646409" y="1452.0"/>
      <point x="1028.9668508287293" y="1392.3535911602212"/>
      <point x="1040.0718232044198" y="1338.403314917127" type="curve"/>
      <point x="1091.243093922652" y="1034.1767955801106" type="line"/>
      <point x="1292.425414364641" y="1034.1767955801106" type="line"/>
      <point x="1335.6519337016575" y="1441.4475138121545" type="line"/>
      <point x="1151.8508287292816" y="1441.4475138121547"/>
      <point x="1119.5911602209944" y="1509.2375690607735"/>
      <point x="790.8176795580112" y="1509.2375690607735" type="curve" smooth="yes"/>
      <point x="331.3259668508287" y="1509.2375690607735"/>
      <point x="24.14364640883977" y="1204.1602209944751"/>
      <point x="24.14364640883977" y="731.2375690607735" type="curve" smooth="yes"/>
      <point x="24.14364640883977" y="298.3922651933702"/>
      <point x="274.6961325966851" y="-21.447513812154696"/>
    </contour>
  </outline>
</glyph>
<glyph name="H" format="2">
  <advance width="1566.5082872928178"/>
  <unicode hex="0048"/>
  <anchor x="728.1325966850828" y="0.0" name="bottom"/>
  <anchor x="1567.878453038674" y="0.0" name="bottomright"/>
  <anchor x="728.1325966850828" y="743.0" name="center"/>
  <anchor x="784.3591160220994" y="1486.0" name="top"/>
  <anchor x="-0.5524861878453038" y="1486.0" name="topleft"/>
  <outline>
    <contour>
      <point x="146.28729281767954" y="70.61878453038673" type="line"/>
      <point x="13.524861878453038" y="36.72375690607735" type="line"/>
      <point x="13.524861878453038" y="0.0" type="line"/>
      <point x="622.3425414364641" y="0.0" type="line"/>
      <point x="622.3425414364641" y="36.72375690607735" type="line"/>
      <point x="482.8839779005525" y="70.61878453038673" type="line"/>
      <point x="482.8839779005525" y="732.0" type="line"/>
      <point x="1084.4530386740332" y="732.0" type="line"/>
      <point x="1084.4530386740332" y="70.61878453038673" type="line"/>
      <point x="946.4419889502763" y="36.72375690607735" type="line"/>
      <point x="946.4419889502763" y="0.0" type="line"/>
      <point x="1553.8121546961324" y="0.0" type="line"/>
      <point x="1553.8121546961324" y="36.72375690607735" type="line"/>
      <point x="1421.0497237569061" y="70.61878453038673" type="line"/>
      <point x="1421.0497237569061" y="1414.209944751381" type="line"/>
      <point x="1552.0883977900553" y="1450.0" type="line"/>
      <point x="1552.0883977900553" y="1486.0" type="line"/>
      <point x="946.4419889502763" y="1486.0" type="line"/>
      <point x="946.4419889502763" y="1450.0" type="line"/>
      <point x="1084.4530386740332" y="1413.4861878453037" type="line"/>
      <point x="1084.4530386740332" y="796.8950276243094" type="line"/>
      <point x="482.8839779005525" y="796.8950276243094" type="line"/>
      <point x="482.8839779005525" y="1414.209944751381" type="line"/>
      <point x="621.6187845303868" y="1450.0" type="line"/>
      <point x="621.6187845303868" y="1486.0" type="line"/>
      <point x="14.524861878453045" y="1486.0" type="line"/>
      <point x="14.524861878453045" y="1450.0" type="line"/>
      <point x="146.28729281767954" y="1414.209944751381" type="line"/>
    </contour>
  </outline>
</glyph>
<glyph name="J" format="2">
  <advance width="652.3314917127071"/>
  <unicode hex="004A"/>
  <anchor x="305.44198895027625" y="1486.0" name="top"/>
  <outline>
    <contour>
      <point x="-88.19337016574585" y="-321.9889502762431" type="curve"/>
      <point x="-52.87845303867403" y="-375.6740331491713" type="line"/>
      <point x="195.83977900552492" y="-345.121546961326"/>
      <point x="395.09392265193367" y="-188.09392265193367"/>
      <point x="453.1878453038674" y="31.486187845303867" type="curve" smooth="yes"/>
      <point x="479.3591160220995" y="133.0497237569061"/>
      <point x="485.21546961325964" y="307.6685082872928"/>
      <point x="485.21546961325964" y="529.5580110497237" type="curve" smooth="yes"/>
      <point x="485.21546961325964" y="1414.209944751381" type="line"/>
      <point x="620.2154696132596" y="1450.0" type="line"/>
      <point x="620.2154696132596" y="1486.0" type="line"/>
      <point x="13.13259668508288" y="1486.0" type="line"/>
      <point x="13.13259668508288" y="1450.0" type="line"/>
      <point x="150.79005524861878" y="1414.209944751381" type="line"/>
      <point x="150.79005524861878" y="369.9337016574585" type="line" smooth="yes"/>
      <point x="150.79005524861878" y="134.90055248618785"/>
      <point x="138.82872928176795" y="12.767955801104968"/>
      <point x="111.0" y="-76.62430939226519" type="curve" smooth="yes"/>
      <point x="65.7624309392265" y="-220.45303867403317"/>
      <point x="16.055248618784525" y="-281.30386740331494"/>
    </contour>
  </outline>
</glyph>
<glyph name="L" format="2">
  <advance width="1244.204419889503"/>
  <unicode hex="004C"/>
  <anchor x="660.6077348066298" y="0.0" name="bottom"/>
  <anchor x="639.6187845303865" y="744.0" name="center"/>
  <anchor x="396.39779005524866" y="1486.0" name="top"/>
  <anchor x="926.6795580110498" y="1110.7237569060774" name="topright"/>
  <outline>
    <contour>
      <point x="147.28729281767954" y="71.34254143646407" type="line"/>
      <point x="13.524861878453038" y="36.72375690607735" type="line"/>
      <point x="13.524861878453038" y="0.0" type="line"/>
      <point x="1153.364640883978" y="0.0" type="line"/>
      <point x="1229.53591160221" y="421.7900552486187" type="line"/>
      <point x="1097.7403314917128" y="453.7127071823205" type="line"/>
      <point x="951.1602209944751" y="115.60773480662982" type="line"/>
      <point x="482.7790055248619" y="60.104972375690615" type="line"/>
      <point x="483.0552486187845" y="1420.0" type="line"/>
      <point x="658.2541436464087" y="1450.0" type="line"/>
      <point x="658.2541436464087" y="1486.0" type="line"/>
      <point x="14.524861878453038" y="1486.0" type="line"/>
      <point x="14.524861878453038" y="1450.0" type="line"/>
      <point x="147.28729281767954" y="1414.2099447513813" type="line"/>
    </contour>
  </outline>
</glyph>
<glyph name="M" format="2">
  <advance width="1937.0220994475137"/>
  <unicode hex="004D"/>
  <anchor x="902.5635359116023" y="0.0" name="bottom"/>
  <anchor x="1986.8397790055249" y="0.0" name="bottomright"/>
  <anchor x="966.8729281767957" y="1486.0" name="top"/>
  <outline>
    <contour>
      <point x="117.01104972375691" y="67.96132596685082" type="line"/>
      <point x="-45.331491712707184" y="36.0" type="line"/>
      <point x="-45.331491712707184" y="0.0" type="line"/>
      <point x="401.87845303867397" y="0.0" type="line"/>
      <point x="401.87845303867397" y="36.0" type="line"/>
      <point x="222.22099447513816" y="67.96132596685081" type="line"/>
      <point x="339.6022099447514" y="1037.7127071823204" type="line"/>
      <point x="378.1933701657458" y="1376.2983425414363" type="line"/>
      <point x="470.7955801104972" y="1038.4364640883978" type="line"/>
      <point x="725.3314917127072" y="61.14364640883978" type="line"/>
      <point x="1015.1104972375692" y="61.14364640883978" type="line"/>
      <point x="1265.5635359116022" y="1044.3425414364642" type="line"/>
      <point x="1344.4419889502763" y="1376.2983425414363" type="line"/>
      <point x="1383.889502762431" y="1036.2651933701657" type="line"/>
      <point x="1484.7845303867402" y="68.68508287292816" type="line"/>
      <point x="1323.3259668508288" y="37.447513812154696" type="line"/>
      <point x="1323.3259668508288" y="0.0" type="line"/>
      <point x="1982.353591160221" y="0.0" type="line"/>
      <point x="1982.353591160221" y="36.0" type="line"/>
      <point x="1828.209944751381" y="69.23756906077347" type="line"/>
      <point x="1666.2762430939226" y="1413.8287292817681" type="line"/>
      <point x="1836.3812154696132" y="1451.0" type="line"/>
      <point x="1836.3812154696132" y="1486.0" type="line"/>
      <point x="1286.2596685082872" y="1486.0" type="line"/>
      <point x="1048.513812154696" y="531.6022099447514" type="line"/>
      <point x="988.7679558011049" y="258.24309392265195" type="line"/>
      <point x="929.5745856353591" y="528.707182320442" type="line"/>
      <point x="693.4475138121549" y="1486.0" type="line"/>
      <point x="141.18232044198894" y="1486.0" type="line"/>
      <point x="141.18232044198894" y="1451.0" type="line"/>
      <point x="310.1546961325967" y="1413.8287292817681" type="line"/>
    </contour>
  </outline>
</glyph>
<glyph name="N" format="2">
  <advance width="1445.7845303867402"/>
  <unicode hex="004E"/>
  <anchor x="718.4309392265193" y="0.0" name="bottom"/>
  <anchor x="722.6022099447514" y="1486.0" name="top"/>
  <outline>
    <contour>
      <point x="158.18232044198896" y="87.26519337016575" type="line"/>
      <point x="-1.0552486187845318" y="36.0" type="line"/>
      <point x="-1.0552486187845318" y="0.0" type="line"/>
      <point x="408.4585635359116" y="0.0" type="line"/>
      <point x="408.4585635359116" y="36.0" type="line"/>
      <point x="240.3646408839779" y="87.26519337016573" type="line"/>
      <point x="237.39226519337018" y="1228.513812154696" type="line"/>
      <point x="357.15469613259665" y="1047.0552486187844" type="line"/>
      <point x="1065.9889502762433" y="0.0" type="line"/>
      <point x="1287.2209944751382" y="0.0" type="line"/>
      <point x="1292.4696132596684" y="1399.4585635359115" type="line"/>
      <point x="1446.049723756906" y="1450.0" type="line"/>
      <point x="1446.049723756906" y="1486.0" type="line"/>
      <point x="1043.67955801105" y="1486.0" type="line"/>
      <point x="1043.67955801105" y="1450.0" type="line"/>
      <point x="1211.2872928176798" y="1399.4585635359115" type="line"/>
      <point x="1217.1546961325969" y="327.69060773480663" type="line"/>
      <point x="1088.475138121547" y="546.7900552486188" type="line"/>
      <point x="453.353591160221" y="1486.0" type="line"/>
      <point x="-11.729281767955804" y="1486.0" type="line"/>
      <point x="-11.729281767955804" y="1436.9723756906078" type="line"/>
      <point x="48.33701657458564" y="1434.2099447513813"/>
      <point x="143.85082872928177" y="1359.574585635359"/>
      <point x="163.7734806629834" y="1279.6740331491712" type="curve"/>
    </contour>
  </outline>
</glyph>
<glyph name="T" format="2">
  <advance width="1484.8121546961327"/>
  <unicode hex="0054"/>
  <anchor x="737.2154696132596" y="0.0" name="bottom"/>
  <anchor x="1142.1933701657458" y="0.0" name="bottomright"/>
  <anchor x="737.3591160220994" y="692.2872928176796" name="center"/>
  <anchor x="739.7016574585635" y="1486.0" name="top"/>
  <outline>
    <contour>
      <point x="577.3646408839778" y="68.0" type="line"/>
      <point x="340.82872928176795" y="37.447513812154696" type="line"/>
      <point x="340.82872928176795" y="0.0" type="line"/>
      <point x="1144.53591160221" y="0.0" type="line"/>
      <point x="1144.53591160221" y="37.447513812154696" type="line"/>
      <point x="914.6850828729282" y="66.55248618784529" type="line"/>
      <point x="914.6850828729282" y="1435.8950276243093" type="line"/>
      <point x="1148.6298342541436" y="1417.0662983425416" type="line"/>
      <point x="1302.635359116022" y="930.5580110497237" type="line"/>
      <point x="1441.4309392265193" y="930.5580110497237" type="line"/>
      <point x="1407.2209944751382" y="1486.0" type="line"/>
      <point x="77.59116022099448" y="1486.0" type="line"/>
      <point x="43.38121546961326" y="930.5580110497237" type="line"/>
      <point x="180.7292817679558" y="930.5580110497237" type="line"/>
      <point x="337.182320441989" y="1417.0662983425416" type="line"/>
      <point x="577.3646408839778" y="1435.8950276243093" type="line"/>
    </contour>
  </outline>
</glyph>
<glyph name="U" format="2">
  <advance width="1424.4364640883978"/>
  <unicode hex="0055"/>
  <anchor x="776.988950276243" y="0.0" name="bottom"/>
  <anchor x="909.0276243093921" y="20.0" name="ogonek"/>
  <anchor x="776.9226519337017" y="1486.0" name="top"/>
  <anchor x="1444.8563535911603" y="1486.0" name="topright"/>
  <outline>
    <contour>
      <point x="780.0939226519337" y="-17.104972375690608" type="curve" smooth="yes"/>
      <point x="1057.8950276243095" y="-17.104972375690608"/>
      <point x="1276.5027624309394" y="137.36464088397787"/>
      <point x="1278.1602209944754" y="577.756906077348" type="curve" smooth="yes"/>
      <point x="1280.6464088397793" y="1414.486187845304" type="line"/>
      <point x="1409.4364640883978" y="1450.0" type="line"/>
      <point x="1409.4364640883978" y="1486.0" type="line"/>
      <point x="1058.5690607734807" y="1486.0" type="line"/>
      <point x="1058.5690607734807" y="1450.0" type="line"/>
      <point x="1205.950276243094" y="1413.9337016574584" type="line"/>
      <point x="1207.3314917127075" y="575.5469613259669" type="line" smooth="yes"/>
      <point x="1207.8839779005527" y="208.59116022099448"/>
      <point x="1037.1491712707182" y="34.17127071823204"/>
      <point x="799.5966850828729" y="34.17127071823204" type="curve" smooth="yes"/>
      <point x="590.7348066298342" y="34.17127071823204"/>
      <point x="484.6077348066299" y="139.47513812154696"/>
      <point x="484.6077348066299" y="482.1988950276243" type="curve" smooth="yes"/>
      <point x="484.6077348066299" y="1414.486187845304" type="line"/>
      <point x="636.3425414364641" y="1450.0" type="line"/>
      <point x="636.3425414364641" y="1486.0" type="line"/>
      <point x="19.447513812154696" y="1486.0" type="line"/>
      <point x="19.447513812154696" y="1450.0" type="line"/>
      <point x="157.1436464088398" y="1414.486187845304" type="line"/>
      <point x="157.1436464088398" y="544.756906077348" type="line" smooth="yes"/>
      <point x="157.1436464088398" y="135.44751381215468"/>
      <point x="360.3425414364641" y="-17.104972375690608"/>
    </contour>
  </outline>
</glyph>
<glyph name="Z" format="2">
  <advance width="1319.0276243093922"/>
  <unicode hex="005A"/>
  <anchor x="631.9613259668508" y="0.0" name="bottom"/>
  <anchor x="658.5524861878453" y="1486.0" name="top"/>
  <outline>
    <contour>
      <point x="800.5303867403316" y="1268.8839779005523" type="line"/>
      <point x="36.28729281767956" y="30.104972375690608" type="line"/>
      <point x="54.49723756906077" y="0.0" type="line"/>
      <point x="1227.243093922652" y="0.0" type="line"/>
      <point x="1276.3867403314916" y="438.1878453038674" type="line"/>
      <point x="1124.5635359116022" y="463.9779005524862" type="line"/>
      <point x="987.6408839779004" y="103.55248618784532" type="line"/>
      <point x="386.0939226519337" y="56.828729281767956" type="line"/>
      <point x="512.8950276243094" y="225.77348066298345" type="line"/>
      <point x="1268.1381215469612" y="1454.8950276243093" type="line"/>
      <point x="1247.3093922651935" y="1486.0" type="line"/>
      <point x="149.82320441988952" y="1486.0" type="line"/>
      <point x="124.46961325966852" y="1095.049723756906" type="line"/>
      <point x="278.9779005524861" y="1074.1933701657458" type="line"/>
      <point x="387.49171270718233" y="1402.5524861878453" type="line"/>
      <point x="929.8453038674033" y="1429.6187845303868" type="line"/>
    </contour>
  </outline>
</glyph>
<glyph name="asciicircum" format="2">
  <advance width="1350.4751381215472"/>
  <unicode hex="005E"/>
  <outline>
    <contour>
      <point x="724.132596685083" y="1496.0" type="line"/>
      <point x="638.4751381215468" y="1496.0" type="line"/>
      <point x="179.14364640883977" y="267.0" type="line"/>
      <point x="267.97237569060775" y="267.0" type="line"/>
      <point x="681.7513812154696" y="1367.7900552486187" type="line"/>
      <point x="1073.2265193370163" y="267.0" type="line"/>
      <point x="1170.779005524862" y="267.0" type="line"/>
    </contour>
  </outline>
</glyph>
<glyph name="b" format="2">
  <advance width="1156.6408839779006"/>
  <unicode hex="0062"/>
  <anchor x="543.9392265193369" y="-2.1712707182320443" name="bottom"/>
  <anchor x="785.5082872928176" y="1110.7237569060774" name="top"/>
  <outline>
    <contour>
      <point x="-19.171270718232044" y="1507.3480662983425" type="line"/>
      <point x="98.73480662983425" y="1468.0828729281768" type="line"/>
      <point x="98.73480662983425" y="54.0" type="line"/>
      <point x="128.94475138121547" y="40.248618784530386"/>
      <point x="290.2209944751381" y="-22.0"/>
      <point x="557.2817679558011" y="-22.0" type="curve" smooth="yes"/>
      <point x="881.0220994475139" y="-22.0"/>
      <point x="1120.2596685082874" y="184.2486187845304"/>
      <point x="1120.2596685082872" y="568.7127071823205" type="curve" smooth="yes"/>
      <point x="1120.2596685082872" y="876.5414364640884"/>
      <point x="950.3646408839779" y="1042.342541436464"/>
      <point x="710.0773480662984" y="1042.342541436464" type="curve" smooth="yes"/>
      <point x="544.1712707182321" y="1042.342541436464"/>
      <point x="420.0" y="938.4364640883978"/>
      <point x="385.38121546961327" y="883.0939226519337" type="curve"/>
      <point x="385.38121546961327" y="1599.668508287293" type="line"/>
      <point x="340.98342541436466" y="1635.1049723756905" type="line"/>
      <point x="301.8784530386741" y="1635.1049723756905" type="line"/>
      <point x="-19.171270718232044" y="1543.0331491712707" type="line"/>
    </contour>
    <contour>
      <point x="581.7513812154696" y="925.8508287292817" type="curve" smooth="yes"/>
      <point x="699.9060773480664" y="925.8508287292817"/>
      <point x="794.9668508287292" y="822.5911602209944"/>
      <point x="794.2430939226518" y="510.2872928176796" type="curve" smooth="yes"/>
      <point x="794.9668508287293" y="186.91160220994476"/>
      <point x="715.9613259668508" y="34.513812154696126"/>
      <point x="533.5303867403316" y="34.51381215469614" type="curve" smooth="yes"/>
      <point x="482.04972375690613" y="34.51381215469613"/>
      <point x="409.76243093922653" y="68.2486187845304"/>
      <point x="385.38121546961327" y="113.82872928176793" type="curve"/>
      <point x="385.38121546961327" y="835.0662983425414" type="line"/>
      <point x="416.6298342541437" y="874.2099447513812"/>
      <point x="485.4806629834254" y="925.8508287292817"/>
    </contour>
  </outline>
</glyph>
<glyph name="f" format="2">
  <advance width="640.646408839779"/>
  <unicode hex="0066"/>
  <anchor x="407.3314917127072" y="1613.0" name="top"/>
  <outline>
    <contour>
      <point x="165.9834254143646" y="70.61878453038673" type="line"/>
      <point x="35.85635359116022" y="37.447513812154696" type="line"/>
      <point x="35.85635359116022" y="0.0" type="line"/>
      <point x="591.9944751381215" y="0.0" type="line"/>
      <point x="591.9944751381215" y="37.447513812154696" type="line"/>
      <point x="459.8674033149171" y="70.06629834254142" type="line"/>
      <point x="460.5911602209945" y="916.9447513812155" type="line"/>
      <point x="637.4143646408841" y="916.9447513812155" type="line"/>
      <point x="637.4143646408841" y="1005.0" type="line"/>
      <point x="460.5911602209945" y="1005.0" type="line"/>
      <point x="462.0386740331492" y="1300.8011049723757" type="line" smooth="yes"/>
      <point x="462.76243093922653" y="1450.3756906077347"/>
      <point x="505.94475138121544" y="1491.6519337016575"/>
      <point x="601.110497237569" y="1491.6519337016575" type="curve" smooth="yes"/>
      <point x="668.0165745856353" y="1491.6519337016575"/>
      <point x="732.0441988950276" y="1452.977900552486"/>
      <point x="774.1381215469614" y="1426.5027624309391" type="curve"/>
      <point x="774.1381215469612" y="1644.171270718232" type="line"/>
      <point x="757.6906077348067" y="1653.7900552486187"/>
      <point x="721.5580110497237" y="1660.8950276243095"/>
      <point x="663.9116022099447" y="1660.8950276243095" type="curve" smooth="yes"/>
      <point x="420.2375690607735" y="1660.8950276243095"/>
      <point x="165.9834254143646" y="1419.2707182320441"/>
      <point x="165.9834254143646" y="1077.5193370165748" type="curve" smooth="yes"/>
      <point x="165.9834254143646" y="1003.7237569060773" type="line"/>
      <point x="43.06629834254144" y="954.6685082872928" type="line"/>
      <point x="43.06629834254144" y="916.9447513812155" type="line"/>
      <point x="165.9834254143646" y="916.9447513812155" type="line"/>
    </contour>
  </outline>
</glyph>
<glyph name="y" format="2">
  <advance width="1015.1878453038673"/>
  <unicode hex="0079"/>
  <anchor x="842.1546961325968" y="0.0" name="bottom"/>
  <anchor x="531.0939226519336" y="1110.7237569060774" name="top"/>
  <outline>
    <contour>
      <point x="227.98342541436466" y="-501.0" type="curve" smooth="yes"/>
      <point x="420.62983425414365" y="-501.0"/>
      <point x="517.2762430939226" y="-344.49723756906076"/>
      <point x="639.839779005525" y="-28.314917127071823" type="curve"/>
      <point x="661.9171270718232" y="22.773480662983424"/>
      <point x="848.889502762431" y="549.6298342541436"/>
      <point x="980.9005524861877" y="927.0773480662983" type="curve"/>
      <point x="1086.375690607735" y="967.8287292817679" type="line"/>
      <point x="1086.375690607735" y="1005.0" type="line"/>
      <point x="748.8839779005525" y="1005.0" type="line"/>
      <point x="748.8839779005525" y="967.1049723756905" type="line"/>
      <point x="871.2154696132596" y="927.0773480662983" type="line"/>
      <point x="679.4861878453039" y="288.6685082872928" type="line"/>
      <point x="626.6685082872928" y="101.76795580110496" type="line"/>
      <point x="572.0220994475138" y="303.69613259668506" type="line"/>
      <point x="369.02762430939225" y="927.0773480662983" type="line"/>
      <point x="473.1988950276243" y="967.5524861878453" type="line"/>
      <point x="473.1988950276243" y="1005.0" type="line"/>
      <point x="-49.67403314917128" y="1005.0" type="line"/>
      <point x="-49.67403314917128" y="967.8287292817679" type="line"/>
      <point x="42.15469613259669" y="927.0773480662983" type="line"/>
      <point x="377.12707182320446" y="0.0" type="line"/>
      <point x="571.4696132596686" y="0.0" type="line"/>
      <point x="514.2707182320443" y="-158.84530386740335"/>
      <point x="389.7182320441989" y="-292.950276243094"/>
      <point x="229.83977900552483" y="-292.950276243094" type="curve" smooth="yes"/>
      <point x="195.15469613259668" y="-292.950276243094"/>
      <point x="157.87845303867402" y="-286.7790055248619"/>
      <point x="134.36464088397793" y="-278.77900552486193" type="curve"/>
      <point x="134.36464088397793" y="-484.82872928176795" type="line"/>
      <point x="151.3646408839779" y="-495.0"/>
      <point x="185.98342541436463" y="-501.0"/>
    </contour>
  </outline>
</glyph>
<glyph name="yen" format="2">
  <advance width="1686.2762430939226"/>
  <unicode hex="00A5"/>
  <outline>
    <contour>
      <point x="654.7071823204419" y="758.8563535911602" type="line"/>
      <point x="228.18232044198896" y="758.8563535911602" type="line"/>
      <point x="228.18232044198896" y="699.2375690607735" type="line"/>
      <point x="692.2872928176795" y="699.2375690607735" type="line"/>
      <point x="692.2872928176795" y="449.02762430939225" type="line"/>
      <point x="228.18232044198896" y="449.02762430939225" type="line"/>
      <point x="228.18232044198896" y="389.4088397790055" type="line"/>
      <point x="692.2872928176795" y="389.4088397790055" type="line"/>
      <point x="692.2872928176795" y="69.27624309392266" type="line"/>
      <point x="476.0" y="36.72375690607735" type="line"/>
      <point x="476.0" y="0.0" type="line"/>
      <point x="1238.0662983425414" y="0.0" type="line"/>
      <point x="1238.0662983425414" y="36.72375690607735" type="line"/>
      <point x="1010.9226519337014" y="69.27624309392266" type="line"/>
      <point x="1010.9226519337014" y="389.4088397790055" type="line"/>
      <point x="1478.7513812154696" y="389.4088397790055" type="line"/>
      <point x="1478.7513812154696" y="449.02762430939225" type="line"/>
      <point x="1010.9226519337014" y="449.02762430939225" type="line"/>
      <point x="1010.9226519337014" y="699.2375690607735" type="line"/>
      <point x="1478.7513812154696" y="699.2375690607735" type="line"/>
      <point x="1478.7513812154696" y="758.8563535911602" type="line"/>
      <point x="1013.790055248619" y="758.8563535911602" type="line"/>
      <point x="1405.9171270718234" y="1416.2486187845304" type="line"/>
      <point x="1595.0939226519336" y="1451.0" type="line"/>
      <point x="1595.0939226519336" y="1486.0" type="line"/>
      <point x="1080.4254143646406" y="1486.0" type="line"/>
      <point x="1080.4254143646406" y="1451.0" type="line"/>
      <point x="1302.0883977900553" y="1413.353591160221" type="line"/>
      <point x="1016.8784530386741" y="904.8232044198895" type="line"/>
      <point x="937.4475138121547" y="767.1436464088397" type="line"/>
      <point x="857.4364640883978" y="903.7182320441989" type="line"/>
      <point x="571.6353591160221" y="1416.2486187845304" type="line"/>
      <point x="752.2928176795581" y="1451.0" type="line"/>
      <point x="752.2928176795581" y="1486.0" type="line"/>
      <point x="111.4475138121547" y="1486.0" type="line"/>
      <point x="111.4475138121547" y="1451.0" type="line"/>
      <point x="214.353591160221" y="1416.2486187845304" type="line"/>
    </contour>
  </outline>
</glyph>
<glyph name="paragraph" format="2">
  <advance width="1676.696132596685"/>
  <unicode hex="00B6"/>
  <outline>
    <contour>
      <point x="592.9944751381215" y="62.17127071823204" type="line"/>
      <point x="379.3480662983426" y="34.0" type="line"/>
      <point x="379.3480662983426" y="0.0" type="line"/>
      <point x="843.6629834254144" y="-0.7237569060773481" type="line"/>
      <point x="843.6629834254144" y="1601.182320441989" type="line"/>
      <point x="852.4254143646409" y="1601.9060773480664"/>
      <point x="873.3591160220994" y="1604.6298342541438"/>
      <point x="892.4640883977901" y="1604.6298342541438" type="curve" smooth="yes"/>
      <point x="974.1988950276244" y="1604.6298342541438"/>
      <point x="1047.1823204419888" y="1598.9723756906078"/>
      <point x="1093.220994475138" y="1594.2486187845304" type="curve"/>
      <point x="1093.220994475138" y="0.0" type="line"/>
      <point x="1497.3370165745855" y="0.0" type="line"/>
      <point x="1497.3370165745855" y="34.0" type="line"/>
      <point x="1343.8895027624308" y="62.17127071823204" type="line"/>
      <point x="1343.8895027624308" y="1586.7624309392265" type="line"/>
      <point x="1522.5082872928176" y="1614.0" type="line"/>
      <point x="1522.5082872928176" y="1652.0" type="line"/>
      <point x="1263.3977900552486" y="1652.0" type="line" smooth="yes"/>
      <point x="1047.3701657458564" y="1652.0"/>
      <point x="986.8453038674033" y="1670.0"/>
      <point x="721.2707182320443" y="1670.0" type="curve" smooth="yes"/>
      <point x="332.75690607734805" y="1670.0"/>
      <point x="125.45303867403314" y="1481.2099447513813"/>
      <point x="128.49171270718233" y="1228.7624309392265" type="curve" smooth="yes"/>
      <point x="131.80662983425415" y="946.8674033149172"/>
      <point x="286.01657458563534" y="779.5635359116022"/>
      <point x="592.9944751381215" y="779.5635359116022" type="curve"/>
    </contour>
  </outline>
</glyph>
<glyph name="periodcentered" format="2">
  <advance width="346.7348066298343"/>
  <unicode hex="00B7"/>
  <outline>
    <contour>
      <point x="157.76795580110496" y="548.9834254143647" type="curve" smooth="yes"/>
      <point x="265.1933701657459" y="548.9834254143647"/>
      <point x="336.7348066298343" y="604.5635359116022"/>
      <point x="336.7348066298343" y="697.9613259668508" type="curve" smooth="yes"/>
      <point x="336.7348066298343" y="767.3977900552486"/>
      <point x="287.57458563535914" y="833.1104972375691"/>
      <point x="185.1767955801105" y="833.1104972375691" type="curve" smooth="yes"/>
      <point x="85.71270718232046" y="833.1104972375691"/>
      <point x="10.0" y="771.9116022099447"/>
      <point x="10.0" y="684.132596685083" type="curve" smooth="yes"/>
      <point x="10.0" y="604.5248618784531"/>
      <point x="75.60773480662984" y="548.9834254143647"/>
    </contour>
  </outline>
</glyph>
<glyph name="questiondown" format="2">
  <advance width="944.707182320442"/>
  <unicode hex="00BF"/>
  <outline>
    <contour>
      <point x="606.988950276243" y="1022.4530386740332" type="curve"/>
      <point x="540.5414364640885" y="1022.4530386740332" type="line"/>
      <point x="551.1602209944751" y="930.3093922651934"/>
      <point x="559.4364640883978" y="853.9668508287292"/>
      <point x="559.4364640883978" y="774.8232044198895" type="curve" smooth="yes"/>
      <point x="559.4364640883978" y="746.6906077348067"/>
      <point x="556.5414364640885" y="705.6629834254144"/>
      <point x="544.8563535911602" y="687.4917127071824" type="curve"/>
      <point x="460.71270718232046" y="557.5911602209944"/>
      <point x="32.9171270718232" y="499.98895027624314"/>
      <point x="32.9171270718232" y="150.44751381215468" type="curve" smooth="yes"/>
      <point x="32.9171270718232" y="-119.96132596685081"/>
      <point x="249.1049723756906" y="-296.0"/>
      <point x="589.182320441989" y="-296.0" type="curve" smooth="yes"/>
      <point x="725.4254143646409" y="-296.0"/>
      <point x="825.6077348066299" y="-264.2486187845304"/>
      <point x="875.5690607734806" y="-238.07734806629833" type="curve"/>
      <point x="854.5690607734807" y="-166.22099447513813" type="line"/>
      <point x="815.1878453038673" y="-184.22099447513813"/>
      <point x="739.7679558011049" y="-198.83977900552486"/>
      <point x="668.3314917127071" y="-198.83977900552486" type="curve" smooth="yes"/>
      <point x="442.95580110497235" y="-199.1160220994475"/>
      <point x="324.96132596685084" y="-41.23756906077348"/>
      <point x="324.96132596685084" y="179.31491712707182" type="curve" smooth="yes"/>
      <point x="324.96132596685084" y="358.98895027624314"/>
      <point x="389.0220994475138" y="480.0828729281768"/>
      <point x="471.01104972375697" y="518.3977900552486" type="curve"/>
      <point x="628.7513812154697" y="593.132596685083"/>
      <point x="703.0055248618785" y="640.5635359116022"/>
      <point x="703.0055248618785" y="722.9668508287292" type="curve"/>
      <point x="701.6243093922652" y="805.2707182320443"/>
      <point x="640.4364640883978" y="949.9171270718232"/>
    </contour>
    <contour>
      <point x="596.8563535911602" y="1496.0" type="curve" smooth="yes"/>
      <point x="489.7071823204421" y="1496.0"/>
      <point x="417.88950276243094" y="1440.4198895027623"/>
      <point x="417.88950276243094" y="1347.022099447514" type="curve" smooth="yes"/>
      <point x="417.88950276243094" y="1277.585635359116"/>
      <point x="467.3259668508287" y="1211.8729281767955"/>
      <point x="569.4475138121547" y="1211.8729281767955" type="curve" smooth="yes"/>
      <point x="668.6353591160221" y="1211.8729281767955"/>
      <point x="744.6243093922652" y="1273.0718232044198"/>
      <point x="744.6243093922652" y="1360.8508287292818" type="curve" smooth="yes"/>
      <point x="744.6243093922652" y="1440.4585635359115"/>
      <point x="678.7403314917127" y="1496.0"/>
    </contour>
  </outline>
</glyph>
<glyph name="AE" format="2">
  <advance width="1856.6740331491712"/>
  <unicode hex="00C6"/>
  <anchor x="843.7071823204419" y="0.0" name="bottom"/>
  <anchor x="887.9060773480663" y="1486.0" name="top"/>
  <outline>
    <contour>
      <point x="721.5027624309392" y="75.68508287292818" type="line"/>
      <point x="585.7403314917128" y="37.4475138121547" type="line"/>
      <point x="585.7403314917128" y="0.0" type="line"/>
      <point x="1761.0165745856352" y="0.0" type="line"/>
      <point x="1834.5966850828731" y="383.3204419889503" type="line"/>
      <point x="1703.4585635359115" y="410.76795580110496" type="line"/>
      <point x="1555.5082872928176" y="99.12154696132598" type="line"/>
      <point x="1044.9668508287293" y="56.237569060773474" type="line"/>
      <point x="1044.9668508287293" y="735.7237569060774" type="line"/>
      <point x="1353.917127071823" y="727.0662983425416" type="line"/>
      <point x="1433.342541436464" y="513.0497237569061" type="line"/>
      <point x="1498.9226519337017" y="513.0497237569061" type="line"/>
      <point x="1498.9226519337017" y="998.4751381215469" type="line"/>
      <point x="1432.6187845303866" y="998.4751381215469" type="line"/>
      <point x="1354.6408839779008" y="797.8674033149173" type="line"/>
      <point x="1044.9668508287293" y="789.3812154696134" type="line"/>
      <point x="1044.9668508287293" y="1428.9337016574586" type="line"/>
      <point x="1471.060773480663" y="1406.0773480662983" type="line"/>
      <point x="1584.3922651933701" y="1134.8232044198896" type="line"/>
      <point x="1696.7127071823202" y="1134.8232044198896" type="line"/>
      <point x="1666.265193370166" y="1486.0" type="line"/>
      <point x="332.4806629834254" y="1486.0" type="line"/>
      <point x="332.4806629834254" y="1450.0" type="line"/>
      <point x="561.011049723757" y="1380.878453038674" type="line"/>
      <point x="-19.30386740331491" y="110.11049723756906" type="line"/>
      <point x="-160.5303867403315" y="37.447513812154696" type="line"/>
      <point x="-160.5303867403315" y="0.0" type="line"/>
      <point x="228.16574585635357" y="0.0" type="line"/>
      <point x="227.88950276243094" y="37.447513812154696" type="line"/>
      <point x="73.1270718232044" y="107.04419889502762" type="line"/>
      <point x="218.9668508287293" y="452.6795580110497" type="line"/>
      <point x="721.5027624309392" y="452.6795580110497" type="line"/>
    </contour>
    <contour>
      <point x="721.7790055248619" y="518.3370165745857" type="line"/>
      <point x="247.69060773480666" y="518.3370165745857" type="line"/>
      <point x="548.6574585635359" y="1175.254143646409" type="line"/>
      <point x="655.4861878453039" y="1418.0773480662983" type="line"/>
      <point x="721.7790055248619" y="1418.0773480662983" type="line"/>
    </contour>
  </outline>
</glyph>
<glyph name="Eth" format="2">
  <advance width="1471.2983425414363"/>
  <unicode hex="00D0"/>
  <anchor x="703.1049723756905" y="0.0" name="bottom"/>
  <anchor x="811.1160220994475" y="763.4475138121547" name="center"/>
  <anchor x="315.585635359116" y="763.0" name="lstem"/>
  <anchor x="703.1049723756905" y="1486.0" name="top"/>
  <outline>
    <contour>
      <point x="753.9005524861877" y="804.7624309392265" type="line"/>
      <point x="19.972375690607727" y="804.7624309392265" type="line"/>
      <point x="19.972375690607727" y="734.7624309392265" type="line"/>
      <point x="753.9005524861877" y="734.7624309392265" type="line"/>
    </contour>
    <component base="D"/>
  </outline>
</glyph>
<glyph name="kgreenlandic" format="2">
  <advance width="1093.5690607734807"/>
  <unicode hex="0138"/>
  <outline>
    <contour>
      <point x="129.69613259668506" y="69.89502762430939" type="line"/>
      <point x="15.591160220994475" y="36.723756906077355" type="line"/>
      <point x="15.591160220994475" y="0.0" type="line"/>
      <point x="528.3038674033148" y="0.0" type="line"/>
      <point x="528.3038674033148" y="35.276243093922645" type="line"/>
      <point x="423.96132596685084" y="69.89502762430939" type="line"/>
      <point x="423.96132596685084" y="242.05524861878453" type="line"/>
      <point x="418.96132596685084" y="341.13259668508283" type="line"/>
      <point x="550.9558011049724" y="493.060773480663" type="line"/>
      <point x="753.7790055248618" y="69.89502762430938" type="line"/>
      <point x="645.0828729281768" y="37.44751381215469" type="line"/>
      <point x="645.0828729281768" y="0.0" type="line"/>
      <point x="1186.7292817679559" y="0.0" type="line"/>
      <point x="1186.7292817679559" y="38.00000000000001" type="line"/>
      <point x="1084.7569060773483" y="69.89502762430939" type="line"/>
      <point x="746.5193370165746" y="704.4419889502763" type="line"/>
      <point x="948.5911602209944" y="935.0" type="line"/>
      <point x="1074.4475138121545" y="966.0" type="line"/>
      <point x="1074.4475138121545" y="1005.0" type="line"/>
      <point x="688.3646408839778" y="1005.0" type="line"/>
      <point x="688.3646408839778" y="966.0" type="line"/>
      <point x="846.4198895027623" y="934.0" type="line"/>
      <point x="419.2375690607735" y="420.2651933701658" type="line"/>
      <point x="423.9613259668508" y="619.1767955801105" type="line"/>
      <point x="423.9613259668508" y="992.9337016574586" type="line"/>
      <point x="379.01104972375697" y="1028.0939226519338" type="line"/>
      <point x="333.14364640883974" y="1028.0939226519338" type="line"/>
      <point x="14.552486187845304" y="930.4972375690609" type="line"/>
      <point x="14.552486187845304" y="894.8121546961327" type="line"/>
      <point x="129.6961325966851" y="851.1270718232043" type="line"/>
    </contour>
  </outline>
</glyph>
<glyph name="Lslash" format="2">
  <advance width="1254.4806629834252"/>
  <unicode hex="0141"/>
  <anchor x="670.8839779005525" y="0.0" name="bottom"/>
  <anchor x="649.8950276243095" y="744.0" name="center"/>
  <anchor x="406.67403314917124" y="1486.0" name="top"/>
  <anchor x="936.9558011049724" y="1110.7237569060774" name="topright"/>
  <outline>
    <contour>
      <point x="157.56353591160223" y="71.34254143646407" type="line"/>
      <point x="23.80110497237569" y="36.72375690607735" type="line"/>
      <point x="23.80110497237569" y="0.0" type="line"/>
      <point x="1163.6408839779006" y="0.0" type="line"/>
      <point x="1239.8121546961324" y="421.7900552486188" type="line"/>
      <point x="1108.0165745856352" y="453.71270718232046" type="line"/>
      <point x="961.4364640883978" y="115.60773480662982" type="line"/>
      <point x="493.05524861878456" y="60.104972375690615" type="line"/>
      <point x="493.3314917127072" y="1420.0000000000002" type="line"/>
      <point x="668.5303867403316" y="1450.0" type="line"/>
      <point x="668.5303867403316" y="1486.0" type="line"/>
      <point x="24.80110497237569" y="1486.0" type="line"/>
      <point x="24.80110497237569" y="1450.0" type="line"/>
      <point x="157.56353591160223" y="1414.2099447513815" type="line"/>
    </contour>
    <contour>
      <point x="234.64640883977899" y="754.0" type="line"/>
      <point x="32.20994475138121" y="666.0" type="line"/>
      <point x="32.209944751381215" y="588.171270718232" type="line"/>
      <point x="234.64640883977899" y="674.171270718232" type="line"/>
      <point x="265.9889502762431" y="687.6187845303867" type="line"/>
      <point x="853.8508287292818" y="951.0662983425415" type="line"/>
      <point x="853.8508287292818" y="1032.0" type="line"/>
      <point x="267.9889502762431" y="768.0" type="line"/>
    </contour>
  </outline>
</glyph>
<glyph name="eng" format="2">
  <advance width="1223.3812154696134"/>
  <unicode hex="014B"/>
  <outline>
    <contour>
      <point x="129.97237569060775" y="70.61878453038673" type="line"/>
      <point x="15.314917127071823" y="37.447513812154696" type="line"/>
      <point x="15.314917127071823" y="0.0" type="line"/>
      <point x="537.5138121546962" y="0.0" type="line"/>
      <point x="537.5138121546962" y="37.447513812154696" type="line"/>
      <point x="425.23756906077347" y="70.61878453038673" type="line"/>
      <point x="425.23756906077347" y="811.0662983425414" type="line"/>
      <point x="492.3922651933701" y="859.3922651933701"/>
      <point x="596.5635359116022" y="887.9558011049724"/>
      <point x="679.1767955801105" y="887.9558011049724" type="curve" smooth="yes"/>
      <point x="793.3425414364641" y="887.9558011049724"/>
      <point x="817.353591160221" y="804.182320441989"/>
      <point x="817.353591160221" y="672.6850828729281" type="curve" smooth="yes"/>
      <point x="817.3535911602211" y="51.4585635359116" type="line" smooth="yes"/>
      <point x="817.3535911602211" y="-247.69613259668506"/>
      <point x="783.0055248618784" y="-332.3812154696133"/>
      <point x="697.425414364641" y="-380.8011049723757" type="curve" smooth="yes"/>
      <point x="661.0828729281767" y="-401.7348066298343"/>
      <point x="612.4917127071824" y="-409.3922651933701"/>
      <point x="582.7403314917128" y="-408.11602209944755" type="curve"/>
      <point x="593.8729281767955" y="-470.7624309392265" type="line"/>
      <point x="609.292817679558" y="-476.82872928176795"/>
      <point x="650.6906077348067" y="-483.3425414364641"/>
      <point x="699.7071823204419" y="-483.3425414364641" type="curve" smooth="yes"/>
      <point x="910.3259668508286" y="-483.3425414364641"/>
      <point x="1114.0662983425416" y="-312.2651933701658"/>
      <point x="1113.3425414364642" y="26.309392265193374" type="curve" smooth="yes"/>
      <point x="1112.6187845303868" y="635.049723756906" type="line" smooth="yes"/>
      <point x="1112.6187845303868" y="868.7237569060773"/>
      <point x="1064.950276243094" y="1036.7900552486187"/>
      <point x="806.4475138121546" y="1036.7900552486187" type="curve" smooth="yes"/>
      <point x="630.3425414364641" y="1036.7900552486187"/>
      <point x="489.6850828729282" y="921.7900552486188"/>
      <point x="412.2099447513813" y="843.6850828729281" type="curve"/>
      <point x="416.5524861878453" y="922.0662983425414" type="line"/>
      <point x="416.5524861878453" y="996.5524861878453" type="line"/>
      <point x="376.6685082872928" y="1027.3701657458564" type="line"/>
      <point x="325.49723756906076" y="1028.0939226519338" type="line"/>
      <point x="14.552486187845304" y="931.2209944751382" type="line"/>
      <point x="14.552486187845304" y="894.8121546961327" type="line"/>
      <point x="129.97237569060775" y="851.1270718232043" type="line"/>
    </contour>
  </outline>
</glyph>
<glyph name="oe" format="2">
  <advance width="1701.6519337016575"/>
  <unicode hex="0153"/>
  <outline>
    <contour>
      <point x="519.8563535911602" y="-23.447513812154696" type="curve" smooth="yes"/>
      <point x="658.3812154696133" y="-23.447513812154696"/>
      <point x="796.5359116022099" y="22.983425414364653"/>
      <point x="889.7734806629833" y="117.32044198895025" type="curve"/>
      <point x="967.668508287293" y="29.917127071823202"/>
      <point x="1087.1933701657458" y="-23.447513812154696"/>
      <point x="1254.5193370165746" y="-23.447513812154696" type="curve" smooth="yes"/>
      <point x="1415.0883977900555" y="-23.447513812154696"/>
      <point x="1573.8011049723755" y="56.436464088397784"/>
      <point x="1635.1546961325967" y="119.92265193370164" type="curve"/>
      <point x="1609.9834254143645" y="171.50276243093919" type="line"/>
      <point x="1551.7734806629833" y="126.84530386740332"/>
      <point x="1440.182320441989" y="96.38674033149171"/>
      <point x="1357.0276243093924" y="96.38674033149171" type="curve" smooth="yes"/>
      <point x="1164.756906077348" y="96.38674033149171"/>
      <point x="1075.243093922652" y="243.50828729281764"/>
      <point x="1068.0055248618785" y="506.6961325966851" type="curve"/>
      <point x="1657.8895027624308" y="506.6961325966851" type="line"/>
      <point x="1667.0607734806629" y="533.9060773480662"/>
      <point x="1672.7845303867402" y="585.3812154696133"/>
      <point x="1672.5082872928178" y="673.0662983425415" type="curve" smooth="yes"/>
      <point x="1668.7845303867402" y="911.3425414364642"/>
      <point x="1515.7845303867402" y="1040.0662983425414"/>
      <point x="1261.6519337016573" y="1040.0662983425414" type="curve" smooth="yes"/>
      <point x="1133.1381215469614" y="1040.0662983425414"/>
      <point x="1008.878453038674" y="990.950276243094"/>
      <point x="922.1160220994475" y="896.9558011049725" type="curve"/>
      <point x="844.9834254143648" y="985.9779005524862"/>
      <point x="726.3922651933701" y="1037.8950276243095"/>
      <point x="562.988950276243" y="1037.8950276243095" type="curve" smooth="yes"/>
      <point x="290.76243093922653" y="1037.8950276243095"/>
      <point x="28.41988950276243" y="860.988950276243"/>
      <point x="28.41988950276243" y="496.6187845303868" type="curve" smooth="yes"/>
      <point x="28.41988950276243" y="172.09944751381215"/>
      <point x="197.475138121547" y="-23.447513812154696"/>
    </contour>
    <contour>
      <point x="349.0939226519337" y="520.0662983425415" type="curve" smooth="yes"/>
      <point x="349.0939226519337" y="832.5138121546961"/>
      <point x="417.6795580110498" y="983.5524861878453"/>
      <point x="547.8563535911603" y="983.5524861878453" type="curve" smooth="yes"/>
      <point x="689.3756906077348" y="983.5524861878453"/>
      <point x="737.1325966850828" y="789.1104972375691"/>
      <point x="737.1325966850828" y="493.1436464088398" type="curve" smooth="yes"/>
      <point x="737.1325966850828" y="175.18232044198894"/>
      <point x="670.9558011049725" y="30.895027624309392"/>
      <point x="546.3038674033149" y="30.895027624309392" type="curve" smooth="yes"/>
      <point x="401.08839779005524" y="30.895027624309392"/>
      <point x="349.0939226519337" y="216.4806629834254"/>
    </contour>
    <contour>
      <point x="1066.8342541436464" y="557.9337016574585" type="line"/>
      <point x="1074.0718232044198" y="863.0497237569061"/>
      <point x="1141.2265193370165" y="985.7237569060773"/>
      <point x="1248.5580110497235" y="985.7237569060773" type="curve" smooth="yes"/>
      <point x="1344.0" y="985.7237569060773"/>
      <point x="1377.8232044198896" y="882.1988950276243"/>
      <point x="1377.8232044198896" y="682.646408839779" type="curve" smooth="yes"/>
      <point x="1377.8232044198896" y="656.0939226519337"/>
      <point x="1376.375690607735" y="599.4198895027624"/>
      <point x="1374.718232044199" y="572.3149171270718" type="curve"/>
    </contour>
  </outline>
</glyph>
<glyph name="florin" format="2">
  <advance width="1045.513812154696"/>
  <unicode hex="0192"/>
  <outline>
    <contour>
      <point x="139.353591160221" y="978.0" type="line"/>
      <point x="303.6961325966851" y="978.0" type="line"/>
      <point x="182.77348066298345" y="-348.0" type="line"/>
      <point x="464.49723756906076" y="-348.0" type="line"/>
      <point x="588.2486187845303" y="978.0" type="line"/>
      <point x="884.4475138121547" y="978.0" type="line"/>
      <point x="890.2762430939227" y="1052.6850828729282" type="line"/>
      <point x="596.2486187845303" y="1052.6850828729282" type="line"/>
      <point x="606.5248618784531" y="1148.0" type="line"/>
      <point x="631.6298342541437" y="1392.9060773480664"/>
      <point x="659.6408839779006" y="1558.6187845303866"/>
      <point x="759.5745856353592" y="1558.6187845303866" type="curve" smooth="yes"/>
      <point x="823.53591160221" y="1558.6187845303866"/>
      <point x="908.2099447513813" y="1495.9834254143645"/>
      <point x="962.6850828729281" y="1411.2154696132598" type="curve"/>
      <point x="984.9226519337017" y="1625.0" type="line"/>
      <point x="955.7900552486187" y="1637.5524861878453"/>
      <point x="914.8674033149172" y="1646.0"/>
      <point x="875.1160220994475" y="1646.0" type="curve" smooth="yes"/>
      <point x="632.3370165745856" y="1646.0"/>
      <point x="380.5414364640884" y="1404.939226519337"/>
      <point x="324.0386740331492" y="1092.8563535911603" type="curve"/>
      <point x="317.14364640883974" y="1054.132596685083" type="line"/>
      <point x="141.62983425414365" y="1020.5138121546962" type="line"/>
    </contour>
  </outline>
</glyph>
<glyph name="Ohorn" format="2">
  <advance width="1517.1491712707184"/>
  <unicode hex="01A0"/>
  <anchor x="1309.1988950276243" y="20.0" name="ogonek"/>
  <anchor x="756.8176795580109" y="0.0" name="bottom"/>
  <anchor x="758.988950276243" y="741.0" name="center"/>
  <anchor x="915.0552486187845" y="0.0" name="qq"/>
  <anchor x="762.817679558011" y="1486.0" name="top"/>
  <anchor x="36.87292817679558" y="1486.0" name="topleft"/>
  <anchor x="1357.4419889502763" y="1486.0" name="topright"/>
  <outline>
    <contour>
      <point x="1130.9392265193371" y="1352.0" type="line"/>
      <point x="1374.9392265193371" y="1351.171270718232"/>
      <point x="1498.939226519337" y="1477.4475138121547"/>
      <point x="1498.939226519337" y="1686.0" type="curve" smooth="yes"/>
      <point x="1498.939226519337" y="1700.0"/>
      <point x="1496.939226519337" y="1714.0"/>
      <point x="1494.939226519337" y="1730.0" type="curve"/>
      <point x="1344.939226519337" y="1730.0" type="line"/>
      <point x="1346.9392265193371" y="1722.0"/>
      <point x="1346.9392265193371" y="1710.0"/>
      <point x="1346.9392265193371" y="1696.0" type="curve" smooth="yes"/>
      <point x="1346.9392265193371" y="1596.0"/>
      <point x="1288.9392265193371" y="1408.0"/>
      <point x="1096.9392265193371" y="1408.0" type="curve"/>
    </contour>
    <component base="O"/>
  </outline>
</glyph>
<glyph name="Uhorn" format="2">
  <advance width="1424.4364640883978"/>
  <unicode hex="01AF"/>
  <anchor x="774.0" y="0.0" name="bottom"/>
  <anchor x="1340.0" y="20.0" name="ogonek"/>
  <anchor x="776.9226519337017" y="1486.0" name="top"/>
  <anchor x="1444.8563535911603" y="1486.0" name="topright"/>
  <outline>
    <contour>
      <point x="1249.6740331491712" y="1486.0" type="curve"/>
      <point x="1250.6740331491712" y="1412.0" type="line"/>
      <point x="1438.6740331491715" y="1412.0"/>
      <point x="1553.6740331491712" y="1504.0"/>
      <point x="1553.6740331491712" y="1687.0" type="curve" smooth="yes"/>
      <point x="1553.6740331491712" y="1701.0"/>
      <point x="1551.6740331491715" y="1717.0"/>
      <point x="1548.6740331491715" y="1730.0" type="curve"/>
      <point x="1394.6740331491715" y="1730.0" type="line"/>
      <point x="1397.6740331491715" y="1718.0"/>
      <point x="1400.6740331491712" y="1708.0"/>
      <point x="1400.6740331491712" y="1688.0" type="curve" smooth="yes"/>
      <point x="1400.6740331491712" y="1627.9999999999998"/>
      <point x="1381.6740331491712" y="1486.0"/>
    </contour>
    <component base="U"/>
  </outline>
</glyph>
<glyph name="ezh" format="2">
  <advance width="1019.1436464088398"/>
  <unicode hex="0292"/>
  <anchor x="518.2044198895028" y="1110.0" name="top"/>
  <outline>
    <contour>
      <point x="565.3701657458563" y="360.524861878453" type="curve"/>
      <point x="1007.0939226519336" y="951.0" type="line"/>
      <point x="981.0939226519337" y="1005.0000000000001" type="line"/>
      <point x="70.4475138121547" y="1005.0000000000001" type="line"/>
      <point x="58.14364640883978" y="674.0994475138122" type="line"/>
      <point x="222.74585635359117" y="674.0994475138122" type="line"/>
      <point x="292.28729281767954" y="936.0" type="line"/>
      <point x="716.1049723756906" y="956.2486187845304" type="line"/>
      <point x="583.657458563536" y="784.7348066298342" type="line"/>
      <point x="272.171270718232" y="364.0497237569061" type="line"/>
      <point x="311.2099447513812" y="320.62983425414365" type="line"/>
      <point x="658.3314917127071" y="342.2872928176796"/>
      <point x="679.4696132596684" y="161.10497237569058"/>
      <point x="679.4696132596684" y="-8.895027624309392" type="curve" smooth="yes"/>
      <point x="679.4696132596684" y="-224.8950276243094"/>
      <point x="563.353591160221" y="-370.0"/>
      <point x="410.2265193370166" y="-370.0" type="curve" smooth="yes"/>
      <point x="330.24309392265195" y="-370.0"/>
      <point x="265.232044198895" y="-347.0"/>
      <point x="236.2320441988951" y="-313.0" type="curve"/>
      <point x="162.99447513812154" y="-50.099447513812144" type="line"/>
      <point x="6.972375690607741" y="-50.099447513812144" type="line"/>
      <point x="20.93370165745855" y="-347.0" type="line"/>
      <point x="81.1988950276243" y="-351.97237569060775"/>
      <point x="228.74033149171265" y="-421.0"/>
      <point x="407.8176795580111" y="-421.0" type="curve" smooth="yes"/>
      <point x="784.3480662983425" y="-421.0"/>
      <point x="1008.4861878453038" y="-255.39226519337018"/>
      <point x="1008.4861878453038" y="24.132596685082873" type="curve" smooth="yes"/>
      <point x="1008.4861878453038" y="256.0939226519336"/>
      <point x="797.1657458563537" y="366.04972375690613"/>
    </contour>
  </outline>
</glyph>
<glyph name="ringhalfright" format="2">
  <advance width="302.2817679558012"/>
  <unicode hex="02BE"/>
  <outline>
    <contour>
      <point x="10.0" y="1123.1049723756905" type="line"/>
      <point x="149.60773480662982" y="1123.1049723756905"/>
      <point x="292.2817679558011" y="1221.8563535911603"/>
      <point x="292.2817679558012" y="1388.9116022099447" type="curve" smooth="yes"/>
      <point x="292.2817679558011" y="1532.0718232044198"/>
      <point x="182.60773480662985" y="1614.7955801104972"/>
      <point x="10.0" y="1614.7955801104972" type="curve"/>
      <point x="10.0" y="1563.0441988950274" type="line"/>
      <point x="82.38121546961325" y="1557.3204419889505"/>
      <point x="128.38121546961327" y="1495.4917127071824"/>
      <point x="128.38121546961327" y="1372.5690607734807" type="curve" smooth="yes"/>
      <point x="128.38121546961327" y="1257.5801104972377"/>
      <point x="82.38121546961325" y="1180.5801104972375"/>
      <point x="10.0" y="1174.85635359116" type="curve"/>
    </contour>
  </outline>
</glyph>
<glyph name="acutecomb" format="2">
  <unicode hex="0301"/>
  <anchor x="202.21546961325967" y="1110.0" name="_top"/>
  <anchor x="204.21546961325967" y="1574.475138121547" name="top"/>
  <outline>
    <contour>
      <point x="47.408839779005525" y="1127.1823204419888" type="line"/>
      <point x="184.08287292817678" y="1176.878453038674"/>
      <point x="420.20441988950273" y="1328.4419889502763"/>
      <point x="520.6022099447515" y="1436.6795580110497" type="curve"/>
      <point x="342.2541436464088" y="1594.3701657458564" type="line"/>
      <point x="10.0" y="1156.5911602209944" type="line"/>
      <point x="45.408839779005525" y="1127.1823204419888" type="line"/>
    </contour>
  </outline>
</glyph>
<glyph name="tildecomb" format="2">
  <unicode hex="0303"/>
  <anchor x="341.7292817679558" y="1110.0" name="_top"/>
  <anchor x="341.7292817679558" y="1536.585635359116" name="top"/>
  <outline>
    <contour>
      <point x="10.0" y="1199.0773480662986" type="curve"/>
      <point x="54.85635359116022" y="1185.011049723757" type="line"/>
      <point x="88.16022099447514" y="1268.486187845304"/>
      <point x="120.98895027624309" y="1291.2486187845304"/>
      <point x="169.3314917127072" y="1291.2486187845304" type="curve" smooth="yes"/>
      <point x="261.4254143646409" y="1291.2486187845304"/>
      <point x="336.5303867403315" y="1151.878453038674"/>
      <point x="466.0994475138122" y="1151.878453038674" type="curve" smooth="yes"/>
      <point x="577.4309392265194" y="1151.878453038674"/>
      <point x="654.6961325966851" y="1264.475138121547"/>
      <point x="673.4585635359116" y="1431.5303867403316" type="curve"/>
      <point x="628.6022099447514" y="1445.596685082873" type="line"/>
      <point x="595.2983425414366" y="1362.121546961326"/>
      <point x="562.4696132596686" y="1339.3591160220994"/>
      <point x="514.1270718232045" y="1339.3591160220994" type="curve" smooth="yes"/>
      <point x="422.0331491712707" y="1339.3591160220994"/>
      <point x="346.9281767955801" y="1478.7292817679559"/>
      <point x="217.35911602209944" y="1478.7292817679559" type="curve" smooth="yes"/>
      <point x="106.02762430939228" y="1478.7292817679559"/>
      <point x="28.76243093922652" y="1366.132596685083"/>
    </contour>
  </outline>
</glyph>
<glyph name="brevecomb" format="2">
  <unicode hex="0306"/>
  <anchor x="304.9779005524862" y="1110.0" name="_top"/>
  <anchor x="304.9779005524862" y="1742.9723756906078" name="top"/>
  <outline>
    <contour>
      <point x="304.9779005524862" y="1141.8011049723755" type="curve" smooth="yes"/>
      <point x="470.4033149171271" y="1141.8011049723755"/>
      <point x="599.9558011049724" y="1272.7513812154696"/>
      <point x="599.9558011049724" y="1460.46408839779" type="curve" smooth="yes"/>
      <point x="599.9558011049724" y="1487.7016574585637"/>
      <point x="598.9558011049724" y="1503.1491712707184"/>
      <point x="595.9558011049724" y="1524.1491712707182" type="curve"/>
      <point x="542.0331491712707" y="1524.1491712707182" type="line"/>
      <point x="542.0331491712707" y="1510.596685082873"/>
      <point x="541.0331491712707" y="1494.4254143646408"/>
      <point x="536.8618784530387" y="1477.3591160220994" type="curve" smooth="yes"/>
      <point x="515.1767955801106" y="1385.5027624309391"/>
      <point x="421.08287292817687" y="1330.2541436464087"/>
      <point x="304.9779005524862" y="1330.2541436464087" type="curve" smooth="yes"/>
      <point x="188.87292817679554" y="1330.2541436464087"/>
      <point x="94.77900552486187" y="1385.5027624309391"/>
      <point x="73.0939226519337" y="1477.3591160220994" type="curve" smooth="yes"/>
      <point x="68.92265193370164" y="1494.4254143646408"/>
      <point x="67.92265193370164" y="1510.596685082873"/>
      <point x="67.92265193370164" y="1524.1491712707182" type="curve"/>
      <point x="14.0" y="1524.1491712707182" type="line"/>
      <point x="11.0" y="1503.1491712707184"/>
      <point x="10.0" y="1487.7016574585637"/>
      <point x="10.0" y="1460.46408839779" type="curve" smooth="yes"/>
      <point x="10.0" y="1272.7513812154696"/>
      <point x="139.55248618784532" y="1141.8011049723755"/>
    </contour>
  </outline>
</glyph>
<glyph name="hookabovecomb" format="2">
  <unicode hex="0309"/>
  <anchor x="202.767955801105" y="1110.0" name="_top"/>
  <anchor x="202.767955801105" y="1560.5303867403316" name="top"/>
  <outline>
    <contour>
      <point x="174.80662983425412" y="1146.9060773480662" type="curve"/>
      <point x="224.3867403314917" y="1146.9060773480662" type="line"/>
      <point x="207.66298342541438" y="1222.3812154696134"/>
      <point x="224.51933701657458" y="1251.6961325966852"/>
      <point x="274.4806629834254" y="1285.3149171270718" type="curve" smooth="yes"/>
      <point x="362.5082872928176" y="1344.3812154696132"/>
      <point x="427.0883977900553" y="1392.2762430939224"/>
      <point x="427.0883977900553" y="1480.475138121547" type="curve" smooth="yes"/>
      <point x="427.0883977900553" y="1587.7016574585637"/>
      <point x="293.939226519337" y="1667.2817679558011"/>
      <point x="152.3314917127072" y="1667.2817679558011" type="curve" smooth="yes"/>
      <point x="94.85635359116023" y="1667.2817679558011"/>
      <point x="47.723756906077355" y="1659.3867403314916"/>
      <point x="10.0" y="1645.2154696132595" type="curve"/>
      <point x="10.0" y="1488.5524861878453" type="line"/>
      <point x="31.828729281767956" y="1498.4475138121547"/>
      <point x="71.27624309392266" y="1502.8950276243095"/>
      <point x="103.61878453038672" y="1502.8950276243095" type="curve" smooth="yes"/>
      <point x="170.03867403314916" y="1502.8950276243095"/>
      <point x="236.1602209944751" y="1476.3038674033148"/>
      <point x="236.1602209944751" y="1424.486187845304" type="curve" smooth="yes"/>
      <point x="236.1602209944751" y="1352.4585635359115"/>
      <point x="138.22651933701658" y="1320.2486187845304"/>
      <point x="138.22651933701658" y="1245.486187845304" type="curve" smooth="yes"/>
      <point x="138.22651933701658" y="1206.4585635359115"/>
      <point x="154.01657458563537" y="1177.6298342541436"/>
    </contour>
  </outline>
</glyph>
<glyph name="hungarumlautcomb" format="2">
  <unicode hex="030B"/>
  <anchor x="318.21546961325964" y="1110.0" name="_top"/>
  <anchor x="318.21546961325964" y="1704.4309392265193" name="top"/>
  <outline>
    <contour>
      <point x="47.408839779005525" y="1127.1823204419888" type="line"/>
      <point x="166.16022099447514" y="1187.220994475138"/>
      <point x="361.91160220994476" y="1348.364640883978"/>
      <point x="440.3867403314917" y="1468.1160220994475" type="curve"/>
      <point x="263.86740331491706" y="1594.3701657458564" type="line"/>
      <point x="10.0" y="1156.5911602209944" type="line"/>
      <point x="45.408839779005525" y="1127.1823204419888" type="line"/>
    </contour>
    <contour>
      <point x="441.14917127071817" y="1127.1823204419888" type="line"/>
      <point x="559.9005524861878" y="1187.220994475138"/>
      <point x="755.6519337016574" y="1348.364640883978"/>
      <point x="834.1270718232045" y="1468.1160220994475" type="curve"/>
      <point x="657.6077348066298" y="1594.3701657458564" type="line"/>
      <point x="403.7403314917127" y="1156.5911602209944" type="line"/>
      <point x="439.14917127071817" y="1127.1823204419888" type="line"/>
    </contour>
  </outline>
</glyph>
<glyph name="horncomb" format="2">
  <unicode hex="031B"/>
  <anchor x="41.75138121546961" y="1006.7237569060774" name="_topright"/>
  <outline>
    <contour>
      <point x="25.331491712707177" y="931.6574585635359" type="line"/>
      <point x="218.5469613259669" y="937.1823204419891"/>
      <point x="357.878453038674" y="1044.696132596685"/>
      <point x="357.878453038674" y="1219.646408839779" type="curve" smooth="yes"/>
      <point x="357.878453038674" y="1247.1988950276243"/>
      <point x="355.15469613259665" y="1278.7237569060774"/>
      <point x="349.5359116022099" y="1301.2375690607735" type="curve"/>
      <point x="140.3314917127072" y="1301.2375690607735" type="line"/>
      <point x="145.50276243093924" y="1272.7237569060774"/>
      <point x="147.50276243093924" y="1248.5524861878453"/>
      <point x="147.50276243093924" y="1228.3812154696132" type="curve" smooth="yes"/>
      <point x="147.50276243093924" y="1101.7624309392265"/>
      <point x="120.91160220994476" y="1006.0"/>
      <point x="-1.0497237569060758" y="1000.475138121547" type="curve"/>
    </contour>
  </outline>
</glyph>
<glyph name="dotbelowcomb" format="2">
  <unicode hex="0323"/>
  <anchor x="175.96685082872926" y="0.0" name="_bottom"/>
  <anchor x="175.96685082872926" y="-368.43646408839777" name="bottom"/>
  <outline>
    <contour>
      <point x="163.1767955801105" y="-454.83425414364643" type="curve" smooth="yes"/>
      <point x="165.1767955801105" y="-454.83425414364643" type="line" smooth="yes"/>
      <point x="274.0773480662983" y="-454.83425414364643"/>
      <point x="341.9337016574585" y="-380.0552486187845"/>
      <point x="341.9337016574585" y="-284.23756906077347" type="curve" smooth="yes"/>
      <point x="341.9337016574585" y="-199.72375690607734"/>
      <point x="286.24861878453044" y="-139.77348066298345"/>
      <point x="188.75690607734808" y="-139.77348066298345" type="curve" smooth="yes"/>
      <point x="186.75690607734808" y="-139.77348066298345" type="line" smooth="yes"/>
      <point x="77.85635359116021" y="-139.77348066298345"/>
      <point x="10.0" y="-213.82872928176795"/>
      <point x="10.0" y="-310.37016574585635" type="curve" smooth="yes"/>
      <point x="10.0" y="-394.8839779005525"/>
      <point x="65.68508287292818" y="-454.83425414364643"/>
    </contour>
  </outline>
</glyph>
<glyph name="strokeshortcomb" format="2">
  <unicode hex="0335"/>
  <anchor x="293.4530386740331" y="564.6850828729281" name="_center"/>
  <anchor x="506.2044198895028" y="567.6850828729282" name="_rstem"/>
  <outline>
    <contour>
      <point x="641.0220994475139" y="594.8563535911602" type="line"/>
      <point x="10.0" y="594.8563535911602" type="line"/>
      <point x="10.0" y="534.817679558011" type="line"/>
      <point x="641.0220994475139" y="534.817679558011" type="line"/>
    </contour>
  </outline>
</glyph>
<glyph name="strokelongcomb" format="2">
  <unicode hex="0336"/>
  <anchor x="520.939226519337" y="556.0" name="_center"/>
  <outline>
    <contour>
      <point x="1032.1546961325967" y="593.6850828729282" type="line"/>
      <point x="10.0" y="593.6850828729282" type="line"/>
      <point x="10.0" y="524.7900552486187" type="line"/>
      <point x="1032.1546961325967" y="524.7900552486187" type="line"/>
    </contour>
  </outline>
</glyph>
<glyph name="slashshortcomb" format="2">
  <unicode hex="0337"/>
  <anchor x="494.55248618784526" y="556.0" name="_center"/>
  <outline>
    <contour>
      <point x="894.6298342541436" y="1274.0" type="line"/>
      <point x="10.0" y="-162.0" type="line"/>
      <point x="94.47513812154699" y="-162.0" type="line"/>
      <point x="979.1049723756905" y="1274.0" type="line"/>
    </contour>
  </outline>
</glyph>
<glyph name="Lje-cy" format="2">
  <advance width="2084.209944751381"/>
  <unicode hex="0409"/>
  <outline>
    <contour>
      <point x="157.28729281767957" y="-12.171270718232044" type="curve" smooth="yes"/>
      <point x="260.6961325966851" y="-12.171270718232044"/>
      <point x="345.8011049723757" y="43.80110497237569"/>
      <point x="411.2099447513812" y="155.8950276243094" type="curve" smooth="yes"/>
      <point x="528.3812154696133" y="357.4088397790055"/>
      <point x="557.8784530386739" y="753.6187845303867"/>
      <point x="557.8784530386741" y="1177.486187845304" type="curve" smooth="yes"/>
      <point x="557.878453038674" y="1418.4198895027625" type="line"/>
      <point x="925.2486187845303" y="1418.4198895027625" type="line"/>
      <point x="925.2486187845303" y="70.34254143646407" type="line"/>
      <point x="770.6353591160221" y="36.72375690607735" type="line"/>
      <point x="770.6353591160221" y="0.0" type="line"/>
      <point x="1165.6187845303868" y="0.0" type="line" smooth="yes"/>
      <point x="1288.254143646409" y="0.0"/>
      <point x="1420.7900552486187" y="-13.790055248618785"/>
      <point x="1517.635359116022" y="-13.790055248618785" type="curve" smooth="yes"/>
      <point x="1832.790055248619" y="-13.790055248618785"/>
      <point x="2072.8287292817677" y="169.48618784530387"/>
      <point x="2072.8287292817677" y="477.4088397790055" type="curve" smooth="yes"/>
      <point x="2072.8287292817677" y="743.8176795580109"/>
      <point x="1886.0662983425414" y="899.5580110497237"/>
      <point x="1512.39226519337" y="899.5580110497237" type="curve" smooth="yes"/>
      <point x="1446.4198895027625" y="899.5580110497237"/>
      <point x="1351.353591160221" y="889.8342541436465"/>
      <point x="1261.0552486187844" y="876.07182320442" type="curve"/>
      <point x="1261.0552486187844" y="1415.657458563536" type="line"/>
      <point x="1419.1325966850827" y="1449.2762430939226" type="line"/>
      <point x="1419.1325966850827" y="1486.0" type="line"/>
      <point x="277.0055248618785" y="1486.0" type="line"/>
      <point x="277.0055248618785" y="1449.2762430939226" type="line"/>
      <point x="495.7348066298343" y="1415.657458563536" type="line"/>
      <point x="495.7348066298343" y="1215.988950276243" type="line" smooth="yes"/>
      <point x="495.7348066298342" y="722.9337016574585"/>
      <point x="437.9337016574585" y="497.060773480663"/>
      <point x="358.43646408839777" y="354.83977900552486" type="curve" smooth="yes"/>
      <point x="307.79005524861884" y="260.30939226519337"/>
      <point x="222.62983425414367" y="247.53591160220995"/>
      <point x="168.07734806629836" y="247.53591160220995" type="curve" smooth="yes"/>
      <point x="119.1988950276243" y="247.53591160220995"/>
      <point x="69.5524861878453" y="250.08839779005524"/>
      <point x="32.353591160220994" y="254.08839779005524" type="curve"/>
      <point x="46.59116022099448" y="0.0" type="line"/>
      <point x="71.31491712707182" y="-6.895027624309392"/>
      <point x="109.76243093922653" y="-12.171270718232044"/>
    </contour>
    <contour>
      <point x="1426.3149171270718" y="51.34254143646408" type="curve" smooth="yes"/>
      <point x="1354.7513812154698" y="51.34254143646408"/>
      <point x="1302.5027624309391" y="57.51381215469613"/>
      <point x="1261.0552486187844" y="69.13259668508286" type="curve"/>
      <point x="1261.0552486187844" y="815.243093922652" type="line"/>
      <point x="1319.9834254143648" y="826.5580110497237"/>
      <point x="1373.6519337016573" y="834.110497237569"/>
      <point x="1428.3480662983425" y="834.110497237569" type="curve" smooth="yes"/>
      <point x="1641.2375690607735" y="834.110497237569"/>
      <point x="1745.9447513812154" y="720.8839779005525"/>
      <point x="1745.9447513812154" y="455.2651933701657" type="curve" smooth="yes"/>
      <point x="1745.9447513812154" y="223.04419889502765"/>
      <point x="1653.1491712707184" y="51.34254143646408"/>
    </contour>
  </outline>
</glyph>
<glyph name="Nje-cy" format="2">
  <advance width="2246.9668508287295"/>
  <unicode hex="040A"/>
  <outline>
    <contour>
      <point x="1677.6298342541436" y="-13.790055248618785" type="curve" smooth="yes"/>
      <point x="1992.7845303867407" y="-13.790055248618785"/>
      <point x="2235.585635359116" y="170.20994475138122"/>
      <point x="2235.585635359116" y="463.38121546961327" type="curve" smooth="yes"/>
      <point x="2235.585635359116" y="715.7624309392265"/>
      <point x="2048.8232044198894" y="862.4088397790055"/>
      <point x="1672.3867403314919" y="862.4088397790055" type="curve" smooth="yes"/>
      <point x="1606.4143646408838" y="862.4088397790056"/>
      <point x="1511.3480662983425" y="852.6850828729282"/>
      <point x="1421.0497237569061" y="838.9226519337017" type="curve"/>
      <point x="1421.0497237569061" y="1414.209944751381" type="line"/>
      <point x="1552.0883977900553" y="1450.0" type="line"/>
      <point x="1552.0883977900553" y="1486.0" type="line"/>
      <point x="946.4419889502763" y="1486.0" type="line"/>
      <point x="946.4419889502763" y="1450.0" type="line"/>
      <point x="1084.453038674033" y="1413.486187845304" type="line"/>
      <point x="1084.453038674033" y="796.8950276243094" type="line"/>
      <point x="482.88397790055245" y="796.8950276243094" type="line"/>
      <point x="482.88397790055245" y="1414.209944751381" type="line"/>
      <point x="621.6187845303867" y="1450.0" type="line"/>
      <point x="621.6187845303867" y="1486.0" type="line"/>
      <point x="14.524861878453045" y="1486.0" type="line"/>
      <point x="14.524861878453045" y="1450.0" type="line"/>
      <point x="146.28729281767954" y="1414.209944751381" type="line"/>
      <point x="146.28729281767954" y="70.34254143646407" type="line"/>
      <point x="13.524861878453038" y="36.72375690607735" type="line"/>
      <point x="13.524861878453038" y="0.0" type="line"/>
      <point x="622.3425414364641" y="0.0" type="line"/>
      <point x="622.3425414364641" y="36.72375690607735" type="line"/>
      <point x="482.88397790055245" y="70.34254143646407" type="line"/>
      <point x="482.88397790055245" y="732.0" type="line"/>
      <point x="1084.453038674033" y="732.0" type="line"/>
      <point x="1084.453038674033" y="70.34254143646407" type="line"/>
      <point x="946.441988950276" y="36.72375690607735" type="line"/>
      <point x="946.441988950276" y="0.0" type="line"/>
      <point x="1325.6132596685084" y="0.0" type="line" smooth="yes"/>
      <point x="1448.2486187845302" y="0.0"/>
      <point x="1580.7845303867405" y="-13.790055248618785"/>
    </contour>
    <contour>
      <point x="1586.3093922651935" y="51.34254143646408" type="curve" smooth="yes"/>
      <point x="1514.7458563535913" y="51.34254143646408"/>
      <point x="1462.4972375690606" y="57.51381215469613"/>
      <point x="1421.0497237569061" y="69.13259668508286" type="curve"/>
      <point x="1421.0497237569061" y="778.0939226519338" type="line"/>
      <point x="1479.977900552486" y="789.4088397790055"/>
      <point x="1533.646408839779" y="796.9613259668508"/>
      <point x="1588.3425414364642" y="796.9613259668508" type="curve" smooth="yes"/>
      <point x="1801.232044198895" y="796.9613259668508"/>
      <point x="1908.7016574585634" y="691.3812154696133"/>
      <point x="1908.7016574585634" y="441.23756906077347" type="curve" smooth="yes"/>
      <point x="1908.7016574585634" y="221.59668508287294"/>
      <point x="1813.1436464088397" y="51.34254143646408"/>
    </contour>
  </outline>
</glyph>
<glyph name="Tshe-cy" format="2">
  <advance width="1871.2541436464094"/>
  <unicode hex="040B"/>
  <outline>
    <contour>
      <point x="344.7955801104972" y="0.0" type="line"/>
      <point x="1077.9502762430939" y="0.0" type="line"/>
      <point x="1077.9502762430939" y="36.72375690607735" type="line"/>
      <point x="901.9171270718232" y="70.3425414364641" type="line"/>
      <point x="901.9171270718232" y="716.8287292817679" type="line"/>
      <point x="950.1657458563536" y="749.0"/>
      <point x="1039.3867403314916" y="775.657458563536"/>
      <point x="1153.7513812154696" y="775.657458563536" type="curve" smooth="yes"/>
      <point x="1364.403314917127" y="775.657458563536"/>
      <point x="1413.6187845303866" y="654.7292817679557"/>
      <point x="1413.6187845303866" y="449.82320441988946" type="curve" smooth="yes"/>
      <point x="1413.6187845303866" y="70.3425414364641" type="line"/>
      <point x="1285.6906077348067" y="36.72375690607735" type="line"/>
      <point x="1285.6906077348067" y="0.0" type="line"/>
      <point x="1861.806629834254" y="0.0" type="line"/>
      <point x="1861.806629834254" y="36.72375690607735" type="line"/>
      <point x="1737.121546961326" y="70.34254143646409" type="line"/>
      <point x="1737.121546961326" y="481.3867403314917" type="line" smooth="yes"/>
      <point x="1737.121546961326" y="705.5359116022099"/>
      <point x="1630.3480662983425" y="858.5138121546961"/>
      <point x="1271.0883977900553" y="858.5138121546961" type="curve" smooth="yes"/>
      <point x="1154.3646408839777" y="858.5138121546961"/>
      <point x="1002.2983425414366" y="832.4088397790056"/>
      <point x="901.9171270718232" y="778.4475138121547" type="curve"/>
      <point x="901.9171270718232" y="1433.7237569060774" type="line"/>
      <point x="1194.7348066298343" y="1414.8950276243093" type="line"/>
      <point x="1325.4475138121547" y="1008.5911602209944" type="line"/>
      <point x="1464.2430939226517" y="1008.5911602209944" type="line"/>
      <point x="1432.5469613259668" y="1486.0" type="line"/>
      <point x="75.35359116022099" y="1486.0" type="line"/>
      <point x="43.38121546961326" y="1008.5911602209944" type="line"/>
      <point x="180.7292817679558" y="1008.5911602209944" type="line"/>
      <point x="313.8895027624309" y="1414.8950276243093" type="line"/>
      <point x="580.5193370165746" y="1433.7237569060774" type="line"/>
      <point x="580.5193370165746" y="70.34254143646409" type="line"/>
      <point x="344.7955801104972" y="36.72375690607735" type="line"/>
    </contour>
  </outline>
</glyph>
<glyph name="Dzhe-cy" format="2">
  <advance width="1511.060773480663"/>
  <unicode hex="040F"/>
  <outline>
    <contour>
      <point x="853.3646408839778" y="-397.8453038674033" type="line"/>
      <point x="858.9558011049724" y="-266.2651933701657"/>
      <point x="887.5359116022099" y="-70.06077348066299"/>
      <point x="904.2596685082873" y="0.0" type="curve"/>
      <point x="1498.364640883978" y="0.0" type="line"/>
      <point x="1498.364640883978" y="36.72375690607735" type="line"/>
      <point x="1366.7734806629833" y="70.34254143646407" type="line"/>
      <point x="1366.7734806629833" y="1415.657458563536" type="line"/>
      <point x="1498.088397790055" y="1449.2762430939226" type="line"/>
      <point x="1498.088397790055" y="1486.0" type="line"/>
      <point x="894.3756906077348" y="1486.0" type="line"/>
      <point x="894.3756906077348" y="1449.2762430939226" type="line"/>
      <point x="1030.7292817679559" y="1415.657458563536" type="line"/>
      <point x="1030.7292817679556" y="69.89502762430939" type="line"/>
      <point x="481.1602209944751" y="69.89502762430939" type="line"/>
      <point x="481.1602209944751" y="1415.657458563536" type="line"/>
      <point x="618.2375690607735" y="1449.2762430939226" type="line"/>
      <point x="618.2375690607735" y="1486.0" type="line"/>
      <point x="13.80110497237569" y="1486.0" type="line"/>
      <point x="13.80110497237569" y="1449.2762430939226" type="line"/>
      <point x="145.1160220994475" y="1415.657458563536" type="line"/>
      <point x="145.1160220994475" y="70.34254143646407" type="line"/>
      <point x="13.524861878453038" y="36.72375690607735" type="line"/>
      <point x="13.524861878453038" y="0.0" type="line"/>
      <point x="608.9060773480663" y="0.0" type="line"/>
      <point x="623.2872928176795" y="-47.17679558011048"/>
      <point x="660.6574585635359" y="-288.2541436464088"/>
      <point x="664.2486187845303" y="-397.8453038674033" type="curve"/>
    </contour>
  </outline>
</glyph>
<glyph name="Ge-cy" format="2">
  <advance width="1213.9226519337017"/>
  <unicode hex="0413"/>
  <anchor x="736.3093922651933" y="0.0" name="bottomright"/>
  <anchor x="675.9337016574585" y="744.0" name="center"/>
  <anchor x="668.8397790055249" y="1486.0" name="top"/>
  <outline>
    <contour>
      <point x="21.314917127071823" y="0.0" type="line"/>
      <point x="737.3149171270719" y="0.0" type="line"/>
      <point x="737.3149171270719" y="36.72375690607735" type="line"/>
      <point x="503.36464088397787" y="70.61878453038673" type="line"/>
      <point x="503.36464088397787" y="1429.5911602209947" type="line"/>
      <point x="918.1381215469613" y="1399.4972375690609" type="line"/>
      <point x="1044.2872928176796" y="923.2044198895028" type="line"/>
      <point x="1165.5414364640885" y="923.2044198895028" type="line"/>
      <point x="1134.3812154696134" y="1486.0" type="line"/>
      <point x="24.248618784530386" y="1486.0" type="line"/>
      <point x="24.248618784530386" y="1449.2762430939226" type="line"/>
      <point x="175.75690607734802" y="1415.3812154696132" type="line"/>
      <point x="175.75690607734802" y="70.61878453038673" type="line"/>
      <point x="21.314917127071823" y="36.72375690607735" type="line"/>
    </contour>
  </outline>
</glyph>
<glyph name="Zhe-cy" format="2">
  <advance width="2250.3204419889503"/>
  <unicode hex="0416"/>
  <anchor x="2277.359116022099" y="0.0" name="bottomright"/>
  <anchor x="1140.4254143646408" y="1486.0" name="top"/>
  <outline>
    <contour>
      <point x="2.762430939226519" y="0.0" type="line"/>
      <point x="370.67403314917124" y="0.0" type="line" smooth="yes"/>
      <point x="546.5580110497237" y="0.0"/>
      <point x="705.9668508287292" y="737.0939226519337"/>
      <point x="853.2541436464088" y="737.0939226519337" type="curve" smooth="yes"/>
      <point x="957.1381215469612" y="737.0939226519337" type="line"/>
      <point x="957.1381215469612" y="69.79005524861878" type="line"/>
      <point x="818.4419889502763" y="38.00000000000001" type="line"/>
      <point x="818.4419889502763" y="0.0" type="line"/>
      <point x="1446.3535911602212" y="0.0" type="line"/>
      <point x="1446.3535911602212" y="37.44751381215469" type="line"/>
      <point x="1293.1823204419888" y="70.3425414364641" type="line"/>
      <point x="1293.1823204419888" y="737.0939226519337" type="line"/>
      <point x="1397.0662983425414" y="737.0939226519337" type="line" smooth="yes"/>
      <point x="1544.3535911602212" y="737.0939226519337"/>
      <point x="1703.7624309392265" y="0.0"/>
      <point x="1879.6464088397795" y="0.0" type="curve" smooth="yes"/>
      <point x="2247.5580110497235" y="0.0" type="line"/>
      <point x="2247.5580110497235" y="37.44751381215469" type="line"/>
      <point x="2177.767955801105" y="58.618784530386755" type="line" smooth="yes"/>
      <point x="2107.0055248618787" y="80.17127071823204"/>
      <point x="1995.8232044198896" y="345.0662983425415"/>
      <point x="1876.8397790055246" y="548.9613259668507" type="curve" smooth="yes"/>
      <point x="1774.2983425414368" y="731.060773480663"/>
      <point x="1693.889502762431" y="813.585635359116"/>
      <point x="1533.486187845304" y="793.5414364640884" type="curve"/>
      <point x="1546.9226519337017" y="695.7734806629834" type="line"/>
      <point x="2022.5911602209942" y="1414.2099447513813" type="line"/>
      <point x="2184.60773480663" y="1450.2762430939226" type="line"/>
      <point x="2184.60773480663" y="1486.0" type="line"/>
      <point x="1736.182320441989" y="1486.0" type="line"/>
      <point x="1736.182320441989" y="1450.2762430939226" type="line"/>
      <point x="1909.7237569060776" y="1414.209944751381" type="line"/>
      <point x="1543.2154696132598" y="801.9889502762431" type="line"/>
      <point x="1293.1823204419888" y="801.9889502762431" type="line"/>
      <point x="1293.1823204419888" y="1414.209944751381" type="line"/>
      <point x="1445.0773480662983" y="1450.0" type="line"/>
      <point x="1445.0773480662983" y="1486.0" type="line"/>
      <point x="819.7182320441989" y="1486.0" type="line"/>
      <point x="819.7182320441989" y="1450.0" type="line"/>
      <point x="957.1381215469612" y="1414.209944751381" type="line"/>
      <point x="957.1381215469612" y="801.9889502762431" type="line"/>
      <point x="707.1049723756906" y="801.9889502762431" type="line"/>
      <point x="340.5966850828729" y="1414.209944751381" type="line"/>
      <point x="514.1381215469614" y="1450.2762430939226" type="line"/>
      <point x="514.1381215469614" y="1486.0" type="line"/>
      <point x="65.71270718232043" y="1486.0" type="line"/>
      <point x="65.71270718232043" y="1450.2762430939226" type="line"/>
      <point x="227.7292817679558" y="1414.2099447513813" type="line"/>
      <point x="703.3977900552486" y="695.7734806629834" type="line"/>
      <point x="716.8342541436464" y="793.5414364640884" type="line"/>
      <point x="556.4309392265194" y="813.5856353591159"/>
      <point x="476.02209944751394" y="732.5082872928177"/>
      <point x="373.75690607734805" y="548.9613259668507" type="curve" smooth="yes"/>
      <point x="254.77348066298345" y="345.06629834254136"/>
      <point x="143.31491712707182" y="80.17127071823202"/>
      <point x="72.55248618784529" y="58.618784530386755" type="curve" smooth="yes"/>
      <point x="2.762430939226519" y="37.44751381215469" type="line"/>
    </contour>
  </outline>
</glyph>
<glyph name="Pe-cy" format="2">
  <advance width="1553.1270718232047"/>
  <unicode hex="041F"/>
  <anchor x="1547.9171270718232" y="0.0" name="bottomright"/>
  <outline>
    <contour>
      <point x="23.696132596685082" y="1486.0" type="line"/>
      <point x="23.696132596685082" y="1450.0" type="line"/>
      <point x="165.25966850828732" y="1414.2099447513813" type="line"/>
      <point x="165.25966850828732" y="70.34254143646409" type="line"/>
      <point x="21.314917127071823" y="37.447513812154696" type="line"/>
      <point x="21.314917127071823" y="0.0" type="line"/>
      <point x="645.0773480662983" y="0.0" type="line"/>
      <point x="645.0773480662983" y="37.447513812154696" type="line"/>
      <point x="501.6850828729282" y="70.34254143646409" type="line"/>
      <point x="501.6850828729282" y="1422.7624309392265" type="line"/>
      <point x="1051.4419889502765" y="1422.7624309392265" type="line"/>
      <point x="1051.4419889502765" y="70.34254143646409" type="line"/>
      <point x="910.049723756906" y="37.447513812154696" type="line"/>
      <point x="910.049723756906" y="0.0" type="line"/>
      <point x="1531.8121546961327" y="0.0" type="line"/>
      <point x="1531.8121546961327" y="37.447513812154696" type="line"/>
      <point x="1387.8674033149173" y="70.34254143646409" type="line"/>
      <point x="1387.8674033149173" y="1413.6574585635358" type="line"/>
      <point x="1528.707182320442" y="1450.0" type="line"/>
      <point x="1528.707182320442" y="1486.0" type="line"/>
    </contour>
  </outline>
</glyph>
<glyph name="U-cy" format="2">
  <advance width="1270.1546961325969"/>
  <unicode hex="0423"/>
  <anchor x="730.4033149171271" y="1486.0" name="top"/>
  <outline>
    <contour>
      <point x="360.04419889502765" y="-30.790055248618785" type="curve" smooth="yes"/>
      <point x="590.8342541436465" y="-30.790055248618785"/>
      <point x="706.6519337016574" y="180.93370165745858"/>
      <point x="761.8895027624308" y="309.0662983425415" type="curve" smooth="yes"/>
      <point x="1238.8784530386743" y="1417.8674033149173" type="line"/>
      <point x="1343.3149171270718" y="1449.2762430939226" type="line"/>
      <point x="1343.3149171270718" y="1486.0" type="line"/>
      <point x="996.3922651933702" y="1486.0" type="line"/>
      <point x="996.3922651933702" y="1449.2762430939226" type="line"/>
      <point x="1137.4309392265193" y="1417.867403314917" type="line"/>
      <point x="876.7513812154696" y="750.950276243094" type="line"/>
      <point x="814.0552486187846" y="580.7292817679557" type="line"/>
      <point x="844.1602209944751" y="579.6795580110497" type="line"/>
      <point x="778.4917127071823" y="723.1049723756907" type="line"/>
      <point x="424.07182320441984" y="1417.8674033149173" type="line"/>
      <point x="565.6906077348067" y="1449.2762430939226" type="line"/>
      <point x="565.6906077348067" y="1486.0" type="line"/>
      <point x="-42.03867403314917" y="1486.0" type="line"/>
      <point x="-42.03867403314917" y="1449.2762430939226" type="line"/>
      <point x="66.61878453038673" y="1417.867403314917" type="line"/>
      <point x="684.889502762431" y="238.01104972375688" type="line"/>
      <point x="692.110497237569" y="325.30939226519337" type="line"/>
      <point x="648.3370165745856" y="219.09392265193367"/>
      <point x="553.5469613259668" y="171.32044198895028"/>
      <point x="397.1160220994475" y="171.32044198895028" type="curve" smooth="yes"/>
      <point x="322.5966850828729" y="171.32044198895028"/>
      <point x="247.25966850828735" y="184.17679558011048"/>
      <point x="190.42541436464091" y="202.8232044198895" type="curve"/>
      <point x="190.42541436464091" y="24.370165745856355" type="line"/>
      <point x="227.87292817679563" y="-5.209944751381215"/>
      <point x="292.0055248618785" y="-30.790055248618785"/>
    </contour>
  </outline>
</glyph>
<glyph name="Tse-cy" format="2">
  <advance width="1524.9281767955804"/>
  <unicode hex="0426"/>
  <anchor x="1485.5745856353592" y="0.0" name="_bottomright"/>
  <outline>
    <contour>
      <point x="1347.4033149171269" y="0.0" type="line"/>
      <point x="1347.4033149171269" y="1415.6574585635358" type="line"/>
      <point x="1481.6132596685084" y="1449.2762430939226" type="line"/>
      <point x="1481.6132596685084" y="1486.0" type="line"/>
      <point x="884.281767955801" y="1486.0" type="line"/>
      <point x="884.281767955801" y="1449.2762430939226" type="line"/>
      <point x="1027.1104972375688" y="1415.6574585635358" type="line"/>
      <point x="1027.1104972375688" y="68.51381215469613" type="line"/>
      <point x="477.5414364640884" y="68.51381215469613" type="line"/>
      <point x="477.5414364640884" y="1415.657458563536" type="line"/>
      <point x="621.0939226519338" y="1449.2762430939226" type="line"/>
      <point x="621.0939226519338" y="1486.0" type="line"/>
      <point x="22.314917127071823" y="1486.0" type="line"/>
      <point x="22.314917127071823" y="1449.2762430939226" type="line"/>
      <point x="157.24861878453038" y="1415.6574585635358" type="line"/>
      <point x="157.24861878453038" y="70.34254143646407" type="line"/>
      <point x="21.314917127071823" y="36.72375690607735" type="line"/>
      <point x="21.314917127071823" y="0.0" type="line"/>
    </contour>
    <contour>
      <point x="1324.5690607734805" y="-360.0" type="curve"/>
      <point x="1427.9944751381215" y="-360.0" type="line"/>
      <point x="1442.375690607735" y="-247.37016574585635"/>
      <point x="1465.8232044198894" y="-59.27624309392265"/>
      <point x="1478.92817679558" y="71.99999999999999" type="curve"/>
      <point x="1211.160220994475" y="71.99999999999999" type="line"/>
      <point x="1227.7348066298343" y="5.447513812154696" type="line"/>
      <point x="1248.2486187845307" y="-61.10497237569061"/>
      <point x="1304.817679558011" y="-266.5911602209945"/>
    </contour>
  </outline>
</glyph>
<glyph name="de-cy" format="2">
  <advance width="1157.596685082873"/>
  <unicode hex="0434"/>
  <outline>
    <contour>
      <point x="98.38121546961325" y="0.0" type="line"/>
      <point x="995.6519337016575" y="0.0" type="line"/>
      <point x="995.6519337016575" y="934.3812154696133" type="line"/>
      <point x="1111.5856353591162" y="967.5524861878453" type="line"/>
      <point x="1111.5856353591162" y="1005.0" type="line"/>
      <point x="173.4585635359116" y="1005.0" type="line"/>
      <point x="173.4585635359116" y="967.5524861878453" type="line"/>
      <point x="329.11602209944755" y="934.3812154696133" type="line"/>
      <point x="329.11602209944755" y="456.75138121546956"/>
      <point x="253.14364640883977" y="189.8563535911602"/>
      <point x="116.65745856353593" y="72.0" type="curve"/>
      <point x="98.38121546961325" y="64.76243093922653" type="line"/>
    </contour>
    <contour>
      <point x="231.10497237569058" y="71.99999999999997" type="line"/>
      <point x="331.5524861878453" y="170.17127071823205"/>
      <point x="412.90607734806633" y="449.0276243093923"/>
      <point x="412.90607734806633" y="869.8950276243094" type="curve" smooth="yes"/>
      <point x="412.9060773480663" y="934.3149171270718" type="line"/>
      <point x="699.5580110497237" y="934.3149171270718" type="line"/>
      <point x="699.5580110497237" y="71.99999999999997" type="line"/>
    </contour>
    <component base="lefttooth_part." xScale="0.9999999999999999" xOffset="17.85635359116022"/>
    <component base="righttooth_part." xScale="0.9999999999999999" xOffset="848.5801104972375"/>
  </outline>
</glyph>
<glyph name="ii-cy" format="2">
  <advance width="1286.9060773480664"/>
  <unicode hex="0438"/>
  <anchor x="1265.657458563536" y="0.0" name="bottomright"/>
  <anchor x="648.0055248618784" y="1110.0" name="top"/>
  <outline>
    <contour>
      <point x="21.248618784530386" y="0.0" type="line"/>
      <point x="557.1436464088398" y="0.0" type="line"/>
      <point x="557.1436464088398" y="37.44751381215471" type="line"/>
      <point x="441.6187845303867" y="71.34254143646409" type="line"/>
      <point x="441.6187845303867" y="128.79005524861878" type="line"/>
      <point x="755.8950276243095" y="605.1270718232045" type="line"/>
      <point x="845.2872928176796" y="752.9171270718232" type="line"/>
      <point x="845.2872928176796" y="71.34254143646407" type="line"/>
      <point x="715.4198895027625" y="37.44751381215471" type="line"/>
      <point x="715.4198895027625" y="0.0" type="line"/>
      <point x="1265.6574585635358" y="0.0" type="line"/>
      <point x="1265.6574585635358" y="37.44751381215471" type="line"/>
      <point x="1138.5524861878453" y="71.34254143646407" type="line"/>
      <point x="1138.5524861878453" y="933.6574585635359" type="line"/>
      <point x="1264.2099447513813" y="967.5524861878454" type="line"/>
      <point x="1264.2099447513813" y="1005.0" type="line"/>
      <point x="729.7624309392265" y="1005.0" type="line"/>
      <point x="729.7624309392265" y="967.5524861878454" type="line"/>
      <point x="845.2872928176796" y="933.6574585635359" type="line"/>
      <point x="845.2872928176796" y="876.2099447513812" type="line"/>
      <point x="531.0110497237569" y="399.87292817679565" type="line"/>
      <point x="441.6187845303867" y="252.08287292817684" type="line"/>
      <point x="441.6187845303867" y="933.6574585635359" type="line"/>
      <point x="571.486187845304" y="967.5524861878454" type="line"/>
      <point x="571.486187845304" y="1005.0" type="line"/>
      <point x="22.696132596685082" y="1005.0" type="line"/>
      <point x="22.696132596685082" y="967.5524861878454" type="line"/>
      <point x="148.35359116022101" y="933.6574585635359" type="line"/>
      <point x="148.35359116022101" y="71.34254143646407" type="line"/>
      <point x="21.248618784530386" y="37.44751381215471" type="line"/>
    </contour>
  </outline>
</glyph>
<glyph name="ka-cy" format="2">
  <advance width="1192.5138121546959"/>
  <unicode hex="043A"/>
  <anchor x="1205.4475138121547" y="0.0" name="bottomright"/>
  <anchor x="716.6740331491714" y="511.8508287292818" name="center"/>
  <anchor x="716.6740331491712" y="1154.8729281767955" name="top"/>
  <outline>
    <contour>
      <point x="21.248618784530386" y="0.0" type="line"/>
      <point x="575.8287292817681" y="0.0" type="line"/>
      <point x="575.8287292817681" y="37.447513812154696" type="line"/>
      <point x="443.61878453038673" y="71.34254143646407" type="line"/>
      <point x="443.61878453038673" y="498.27624309392263" type="line"/>
      <point x="513.232044198895" y="498.27624309392263" type="line" smooth="yes"/>
      <point x="712.7127071823205" y="498.27624309392263"/>
      <point x="693.5027624309392" y="0.0"/>
      <point x="925.1712707182321" y="0.0" type="curve"/>
      <point x="1187.9613259668506" y="0.0" type="line"/>
      <point x="1187.9613259668506" y="37.447513812154696" type="line"/>
      <point x="1149.8176795580112" y="53.447513812154696" type="line" smooth="yes"/>
      <point x="986.9779005524862" y="123.13259668508287"/>
      <point x="1021.9668508287294" y="550.0552486187845"/>
      <point x="694.961325966851" y="563.3701657458562" type="curve"/>
      <point x="962.8287292817679" y="932.2099447513813" type="line"/>
      <point x="1110.1436464088397" y="967.5524861878453" type="line"/>
      <point x="1110.1436464088397" y="1005.0" type="line"/>
      <point x="723.3259668508286" y="1005.0" type="line"/>
      <point x="723.3259668508286" y="967.5524861878453" type="line"/>
      <point x="858.9834254143647" y="932.2099447513812" type="line"/>
      <point x="618.3812154696132" y="565.3038674033149" type="line"/>
      <point x="443.61878453038673" y="565.3038674033149" type="line"/>
      <point x="443.61878453038673" y="933.6574585635359" type="line"/>
      <point x="566.5911602209944" y="967.5524861878453" type="line"/>
      <point x="566.5911602209944" y="1005.0" type="line"/>
      <point x="22.696132596685082" y="1005.0" type="line"/>
      <point x="22.696132596685082" y="967.5524861878453" type="line"/>
      <point x="148.35359116022101" y="933.6574585635359" type="line"/>
      <point x="148.35359116022101" y="71.34254143646407" type="line"/>
      <point x="21.248618784530386" y="37.447513812154696" type="line"/>
    </contour>
  </outline>
</glyph>
<glyph name="te-cy" format="2">
  <advance width="1228.8674033149173"/>
  <unicode hex="0442"/>
  <outline>
    <contour>
      <point x="277.41988950276243" y="0.0" type="line"/>
      <point x="950.8950276243094" y="0.0" type="line"/>
      <point x="950.8950276243094" y="37.447513812154696" type="line"/>
      <point x="761.7900552486188" y="74.96132596685082" type="line"/>
      <point x="761.7900552486188" y="947.5524861878453" type="line"/>
      <point x="947.1878453038673" y="936.6574585635359" type="line"/>
      <point x="1049.889502762431" y="605.3922651933702" type="line"/>
      <point x="1193.4088397790056" y="605.3922651933702" type="line"/>
      <point x="1181.9613259668508" y="1005.0" type="line"/>
      <point x="46.9060773480663" y="1005.0" type="line"/>
      <point x="35.458563535911594" y="605.3922651933702" type="line"/>
      <point x="179.14917127071823" y="605.3922651933702" type="line"/>
      <point x="281.12707182320446" y="936.6574585635359" type="line"/>
      <point x="466.524861878453" y="947.5524861878453" type="line"/>
      <point x="466.524861878453" y="74.96132596685082" type="line"/>
      <point x="277.41988950276243" y="37.447513812154696" type="line"/>
    </contour>
  </outline>
</glyph>
<glyph name="softsign-cy" format="2">
  <advance width="1090.0"/>
  <unicode hex="044C"/>
  <outline>
    <contour>
      <point x="21.248618784530386" y="0.0" type="line"/>
      <point x="270.6906077348067" y="0.0" type="line" smooth="yes"/>
      <point x="351.5193370165746" y="0.0"/>
      <point x="543.3977900552488" y="-6.0"/>
      <point x="610.8176795580112" y="-6.0" type="curve" smooth="yes"/>
      <point x="890.3425414364641" y="-6.0"/>
      <point x="1052.132596685083" y="128.97237569060775"/>
      <point x="1052.132596685083" y="343.65745856353595" type="curve" smooth="yes"/>
      <point x="1052.132596685083" y="559.8563535911603"/>
      <point x="886.2762430939226" y="645.4475138121546"/>
      <point x="660.6574585635359" y="645.4475138121546" type="curve" smooth="yes"/>
      <point x="562.3812154696133" y="645.4475138121546"/>
      <point x="495.171270718232" y="629.3425414364642"/>
      <point x="438.7237569060773" y="610.2375690607735" type="curve"/>
      <point x="438.7237569060773" y="934.3812154696133" type="line"/>
      <point x="586.3812154696133" y="967.0" type="line"/>
      <point x="586.3812154696133" y="1005.0" type="line"/>
      <point x="24.14364640883978" y="1005.0" type="line"/>
      <point x="24.14364640883978" y="967.0" type="line"/>
      <point x="148.35359116022101" y="934.3812154696133" type="line"/>
      <point x="148.35359116022101" y="70.61878453038673" type="line"/>
      <point x="21.248618784530386" y="38.000000000000014" type="line"/>
    </contour>
    <contour>
      <point x="529.4419889502763" y="55.447513812154696" type="curve" smooth="yes"/>
      <point x="494.87845303867397" y="55.447513812154696"/>
      <point x="457.9723756906078" y="60.10497237569061"/>
      <point x="438.7237569060773" y="65.48618784530387" type="curve"/>
      <point x="438.7237569060773" y="562.5138121546961" type="line"/>
      <point x="466.56353591160223" y="570.2762430939225"/>
      <point x="515.4033149171271" y="577.1049723756905"/>
      <point x="553.7955801104972" y="577.1049723756905" type="curve" smooth="yes"/>
      <point x="662.5138121546962" y="577.1049723756905"/>
      <point x="752.3149171270718" y="506.02762430939225"/>
      <point x="752.3149171270718" y="327.10497237569064" type="curve" smooth="yes"/>
      <point x="752.3149171270718" y="140.80110497237567"/>
      <point x="656.7513812154696" y="55.447513812154696"/>
    </contour>
  </outline>
</glyph>
<glyph name="iu-cy" format="2">
  <advance width="1814.5027624309391"/>
  <unicode hex="044E"/>
  <outline>
    <contour>
      <point x="1230.9447513812154" y="-23.447513812154696" type="curve" smooth="yes"/>
      <point x="1516.5690607734807" y="-23.447513812154696"/>
      <point x="1786.0828729281768" y="150.22099447513813"/>
      <point x="1786.0828729281768" y="521.657458563536" type="curve" smooth="yes"/>
      <point x="1786.0828729281768" y="842.8342541436464"/>
      <point x="1615.6850828729282" y="1039.0"/>
      <point x="1260.9834254143645" y="1039.0" type="curve" smooth="yes"/>
      <point x="984.6906077348067" y="1039.0"/>
      <point x="728.5580110497239" y="872.1325966850828"/>
      <point x="701.1104972375691" y="553.3425414364641" type="curve"/>
      <point x="443.6187845303867" y="553.3425414364641" type="line"/>
      <point x="443.6187845303867" y="934.3812154696133" type="line"/>
      <point x="572.0386740331492" y="967.5524861878453" type="line"/>
      <point x="572.0386740331492" y="1005.0" type="line"/>
      <point x="21.248618784530386" y="1005.0" type="line"/>
      <point x="21.248618784530386" y="967.5524861878453" type="line"/>
      <point x="148.353591160221" y="934.3812154696133" type="line"/>
      <point x="148.353591160221" y="70.61878453038673" type="line"/>
      <point x="21.248618784530386" y="37.44751381215471" type="line"/>
      <point x="21.248618784530386" y="0.0" type="line"/>
      <point x="572.0386740331492" y="0.0" type="line"/>
      <point x="572.0386740331492" y="37.44751381215471" type="line"/>
      <point x="443.6187845303867" y="70.61878453038673" type="line"/>
      <point x="443.6187845303867" y="486.10497237569064" type="line"/>
      <point x="698.3867403314916" y="486.10497237569064" type="line"/>
      <point x="701.8342541436464" y="162.3093922651934"/>
      <point x="870.4033149171271" y="-23.447513812154696"/>
    </contour>
    <contour>
      <point x="1246.7734806629833" y="30.171270718232044" type="curve" smooth="yes"/>
      <point x="1087.4917127071822" y="30.171270718232044"/>
      <point x="1030.4696132596682" y="228.7845303867403"/>
      <point x="1030.4696132596682" y="520.0662983425414" type="curve" smooth="yes"/>
      <point x="1030.4696132596682" y="826.7237569060775"/>
      <point x="1106.8066298342542" y="984.6574585635359"/>
      <point x="1248.7734806629835" y="984.6574585635359" type="curve" smooth="yes"/>
      <point x="1400.2154696132598" y="984.6574585635359"/>
      <point x="1453.3812154696132" y="776.0828729281768"/>
      <point x="1453.3812154696132" y="493.86740331491717" type="curve" smooth="yes"/>
      <point x="1453.3812154696132" y="183.14364640883974"/>
      <point x="1380.3480662983425" y="30.171270718232044"/>
    </contour>
  </outline>
</glyph>
<glyph name="ia-cy" format="2">
  <advance width="1159.4585635359115"/>
  <unicode hex="044F"/>
  <outline>
    <contour>
      <point x="15.408839779005525" y="0.0" type="line"/>
      <point x="326.5801104972376" y="0.0" type="line" smooth="yes"/>
      <point x="424.69613259668506" y="0.0"/>
      <point x="472.707182320442" y="383.8674033149171"/>
      <point x="583.7955801104972" y="439.5138121546961" type="curve"/>
      <point x="718.0386740331492" y="439.5138121546961" type="line"/>
      <point x="718.0386740331492" y="70.61878453038675" type="line"/>
      <point x="587.3425414364641" y="37.4475138121547" type="line"/>
      <point x="587.3425414364641" y="0.0" type="line"/>
      <point x="1138.2099447513813" y="0.0" type="line"/>
      <point x="1138.2099447513813" y="37.4475138121547" type="line"/>
      <point x="1010.6187845303868" y="70.61878453038675" type="line"/>
      <point x="1010.6187845303868" y="933.6574585635358" type="line"/>
      <point x="1134.209944751381" y="966.5524861878454" type="line"/>
      <point x="1134.209944751381" y="1004.2762430939226" type="line"/>
      <point x="930.1546961325967" y="1004.2762430939226" type="line" smooth="yes"/>
      <point x="837.6795580110498" y="1004.2762430939226"/>
      <point x="703.9944751381215" y="1024.342541436464"/>
      <point x="562.132596685083" y="1024.342541436464" type="curve" smooth="yes"/>
      <point x="265.02762430939225" y="1024.342541436464"/>
      <point x="104.32596685082873" y="897.1602209944751"/>
      <point x="104.32596685082873" y="725.7624309392265" type="curve" smooth="yes"/>
      <point x="104.32596685082873" y="562.8839779005525"/>
      <point x="267.1933701657459" y="446.0662983425414"/>
      <point x="481.8011049723757" y="444.61878453038673" type="curve"/>
      <point x="460.62983425414365" y="468.17127071823205" type="line"/>
      <point x="175.85082872928177" y="461.19889502762436"/>
      <point x="196.353591160221" y="113.3425414364641"/>
      <point x="58.4475138121547" y="55.4475138121547" type="curve" smooth="yes"/>
      <point x="15.408839779005525" y="37.44751381215469" type="line"/>
    </contour>
    <contour>
      <point x="617.1381215469614" y="495.303867403315" type="curve" smooth="yes"/>
      <point x="488.2099447513812" y="495.30386740331494"/>
      <point x="395.77348066298333" y="588.2209944751381"/>
      <point x="395.77348066298333" y="747.342541436464" type="curve" smooth="yes"/>
      <point x="395.77348066298333" y="897.5303867403316"/>
      <point x="496.9337016574586" y="958.2099447513814"/>
      <point x="611.9005524861878" y="958.2099447513814" type="curve" smooth="yes"/>
      <point x="647.9502762430939" y="958.2099447513814"/>
      <point x="694.4088397790055" y="952.7237569060774"/>
      <point x="718.0386740331492" y="948.8950276243095" type="curve"/>
      <point x="718.0386740331492" y="502.4088397790056" type="line"/>
      <point x="695.6187845303867" y="498.5801104972376"/>
      <point x="644.3867403314918" y="495.303867403315"/>
    </contour>
  </outline>
</glyph>
<glyph name="Yusbig-cy" format="2">
  <advance width="2250.596685082873"/>
  <unicode hex="046A"/>
  <outline>
    <contour>
      <point x="2.762430939226519" y="0.0" type="line"/>
      <point x="370.6740331491713" y="0.0" type="line" smooth="yes"/>
      <point x="551.2541436464089" y="0.0"/>
      <point x="697.9558011049725" y="737.0939226519337"/>
      <point x="855.7403314917128" y="737.0939226519337" type="curve" smooth="yes"/>
      <point x="957.4143646408838" y="737.0939226519337" type="line"/>
      <point x="957.4143646408838" y="70.34254143646409" type="line"/>
      <point x="818.1657458563536" y="37.447513812154696" type="line"/>
      <point x="818.1657458563536" y="0.0" type="line"/>
      <point x="1446.629834254144" y="0.0" type="line"/>
      <point x="1446.629834254144" y="37.447513812154696" type="line"/>
      <point x="1293.4585635359117" y="70.34254143646409" type="line"/>
      <point x="1293.4585635359117" y="737.0939226519337" type="line"/>
      <point x="1395.4088397790056" y="737.0939226519337" type="line" smooth="yes"/>
      <point x="1553.1933701657458" y="737.0939226519337"/>
      <point x="1699.342541436464" y="0.0"/>
      <point x="1879.9226519337012" y="0.0" type="curve" smooth="yes"/>
      <point x="2247.8342541436464" y="0.0" type="line"/>
      <point x="2247.8342541436464" y="37.447513812154696" type="line"/>
      <point x="2178.0441988950274" y="58.61878453038674" type="line" smooth="yes"/>
      <point x="2106.4530386740335" y="80.44751381215471"/>
      <point x="1993.060773480663" y="342.85635359116026"/>
      <point x="1877.39226519337" y="548.9613259668508" type="curve" smooth="yes"/>
      <point x="1777.1436464088397" y="727.3701657458563"/>
      <point x="1704.734806629834" y="801.9889502762431"/>
      <point x="1551.6187845303868" y="801.9889502762431" type="curve" smooth="yes"/>
      <point x="1338.4585635359117" y="801.9889502762431" type="line"/>
      <point x="1892.4033149171273" y="1417.828729281768" type="line"/>
      <point x="1869.375690607735" y="1486.0" type="line"/>
      <point x="378.7348066298343" y="1486.0" type="line"/>
      <point x="355.70718232044203" y="1417.828729281768" type="line"/>
      <point x="909.099447513812" y="801.9889502762431" type="line"/>
      <point x="700.2541436464089" y="801.9889502762431" type="line" smooth="yes"/>
      <point x="547.5193370165746" y="801.9889502762431"/>
      <point x="476.21546961325976" y="730.3038674033149"/>
      <point x="373.75690607734805" y="548.9613259668508" type="curve" smooth="yes"/>
      <point x="256.70718232044203" y="342.30386740331494"/>
      <point x="144.14364640883977" y="80.44751381215468"/>
      <point x="72.55248618784529" y="58.61878453038674" type="curve" smooth="yes"/>
      <point x="2.762430939226519" y="37.447513812154696" type="line"/>
    </contour>
    <contour>
      <point x="560.0662983425416" y="1367.2209944751382" type="line"/>
      <point x="1685.8729281767955" y="1367.2209944751382" type="line"/>
      <point x="1124.3314917127072" y="662.5966850828729" type="line"/>
    </contour>
  </outline>
</glyph>
<glyph name="Izhitsa-cy" format="2">
  <advance width="1550.3756906077351"/>
  <unicode hex="0474"/>
  <outline>
    <contour>
      <point x="635.1049723756906" y="-4.41988950276243" type="line"/>
      <point x="850.0497237569061" y="-4.41988950276243" type="line"/>
      <point x="1248.624309392265" y="1148.8176795580112" type="line" smooth="yes"/>
      <point x="1304.3591160220994" y="1309.353591160221"/>
      <point x="1375.3867403314916" y="1344.0773480662983"/>
      <point x="1465.745856353591" y="1344.0773480662983" type="curve" smooth="yes"/>
      <point x="1494.7182320441989" y="1344.0773480662983"/>
      <point x="1509.7845303867405" y="1340.8011049723757"/>
      <point x="1522.0883977900553" y="1338.4585635359115" type="curve"/>
      <point x="1522.0883977900553" y="1481.132596685083" type="line"/>
      <point x="1510.6408839779006" y="1486.5801104972375"/>
      <point x="1480.1270718232045" y="1496.6850828729282"/>
      <point x="1425.060773480663" y="1496.6850828729282" type="curve" smooth="yes"/>
      <point x="1327.9005524861877" y="1496.6850828729282"/>
      <point x="1247.4254143646406" y="1426.6187845303868"/>
      <point x="1200.6906077348065" y="1285.425414364641" type="curve" smooth="yes"/>
      <point x="893.3535911602211" y="334.4530386740331" type="line"/>
      <point x="869.7900552486187" y="254.4861878453039" type="line"/>
      <point x="829.4751381215469" y="381.49723756906087" type="line"/>
      <point x="453.42541436464086" y="1415.6574585635358" type="line"/>
      <point x="605.2651933701658" y="1449.2762430939226" type="line"/>
      <point x="605.2651933701658" y="1486.0" type="line"/>
      <point x="-38.68508287292818" y="1486.0" type="line"/>
      <point x="-38.68508287292818" y="1449.2762430939226" type="line"/>
      <point x="81.49723756906076" y="1415.6574585635358" type="line"/>
    </contour>
  </outline>
</glyph>
<glyph name="izhitsa-cy" format="2">
  <advance width="1044.3480662983425"/>
  <unicode hex="0475"/>
  <outline>
    <contour>
      <point x="379.6022099447513" y="0.0" type="line"/>
      <point x="646.8397790055249" y="0.0" type="line"/>
      <point x="914.7845303867404" y="775.524861878453" type="line" smooth="yes"/>
      <point x="930.92817679558" y="822.1933701657458"/>
      <point x="955.756906077348" y="848.3370165745856"/>
      <point x="982.0718232044201" y="863.2707182320441" type="curve" smooth="yes"/>
      <point x="1003.795580110497" y="875.2707182320441"/>
      <point x="1027.7955801104972" y="880.5469613259668"/>
      <point x="1053.8618784530386" y="880.5469613259668" type="curve"/>
      <point x="1053.8618784530386" y="1008.0" type="line"/>
      <point x="1041.8618784530386" y="1013.7237569060773"/>
      <point x="1025.7569060773483" y="1018.4475138121547"/>
      <point x="1003.4806629834254" y="1018.4475138121547" type="curve" smooth="yes"/>
      <point x="924.6519337016574" y="1018.4475138121547"/>
      <point x="880.6132596685084" y="961.2099447513814"/>
      <point x="833.0607734806631" y="807.6961325966851" type="curve" smooth="yes"/>
      <point x="674.4475138121547" y="298.3535911602211" type="line"/>
      <point x="622.9060773480663" y="110.87292817679558" type="line"/>
      <point x="574.5359116022099" y="298.35359116022096" type="line"/>
      <point x="358.6077348066298" y="927.0773480662983" type="line"/>
      <point x="471.05524861878445" y="967.8287292817679" type="line"/>
      <point x="471.05524861878445" y="1005.0" type="line"/>
      <point x="-42.43646408839779" y="1005.0" type="line"/>
      <point x="-42.43646408839779" y="967.8287292817679" type="line"/>
      <point x="43.24861878453039" y="927.0773480662983" type="line"/>
    </contour>
  </outline>
</glyph>
<glyph name="ghestroke-cy" format="2">
  <advance width="967.1933701657458"/>
  <unicode hex="0493"/>
  <anchor x="443.61878453038673" y="0.0" name="bottomright"/>
  <anchor x="485.475138121547" y="556.0" name="center"/>
  <anchor x="485.47513812154705" y="1110.7237569060774" name="top"/>
  <outline>
    <contour>
      <point x="623.4806629834253" y="433.65745856353595" type="line"/>
      <point x="44.89502762430939" y="433.65745856353595" type="line"/>
      <point x="44.89502762430939" y="366.41988950276243" type="line"/>
      <point x="623.4806629834253" y="366.41988950276243" type="line"/>
    </contour>
    <component base="ge-cy"/>
  </outline>
</glyph>
<glyph name="kabashkir-cy" format="2">
  <advance width="1510.6850828729282"/>
  <unicode hex="04A1"/>
  <outline>
    <contour>
      <point x="277.41988950276243" y="0.0" type="line"/>
      <point x="894.0000000000001" y="0.0" type="line"/>
      <point x="894.0000000000001" y="37.447513812154696" type="line"/>
      <point x="761.7900552486188" y="71.34254143646407" type="line"/>
      <point x="761.7900552486188" y="497.44751381215474" type="line"/>
      <point x="831.403314917127" y="497.44751381215474" type="line" smooth="yes"/>
      <point x="1030.8839779005523" y="497.44751381215474"/>
      <point x="1011.6740331491711" y="0.0"/>
      <point x="1243.342541436464" y="0.0" type="curve"/>
      <point x="1506.132596685083" y="0.0" type="line"/>
      <point x="1506.132596685083" y="37.44751381215469" type="line"/>
      <point x="1467.988950276243" y="53.447513812154696" type="line" smooth="yes"/>
      <point x="1305.1491712707182" y="123.13259668508289"/>
      <point x="1340.1381215469614" y="550.0552486187845"/>
      <point x="1013.132596685083" y="563.3701657458562" type="curve"/>
      <point x="1259.2872928176796" y="932.2099447513812" type="line"/>
      <point x="1428.314917127072" y="967.5524861878453" type="line"/>
      <point x="1428.314917127072" y="1005.0" type="line"/>
      <point x="1041.4972375690609" y="1005.0" type="line"/>
      <point x="1041.4972375690609" y="967.5524861878453" type="line"/>
      <point x="1177.1546961325967" y="932.2099447513812" type="line"/>
      <point x="936.5524861878453" y="565.5801104972376" type="line"/>
      <point x="761.7900552486188" y="565.5801104972376" type="line"/>
      <point x="761.7900552486188" y="933.657458563536" type="line"/>
      <point x="884.7624309392265" y="967.5524861878453" type="line"/>
      <point x="884.7624309392265" y="1005.0" type="line"/>
      <point x="46.90607734806629" y="1005.0" type="line"/>
      <point x="35.458563535911594" y="605.3922651933702" type="line"/>
      <point x="219.67955801104975" y="605.3922651933702" type="line"/>
      <point x="281.12707182320446" y="936.6574585635358" type="line"/>
      <point x="466.524861878453" y="947.5524861878453" type="line"/>
      <point x="466.524861878453" y="70.61878453038673" type="line"/>
      <point x="277.41988950276243" y="37.447513812154696" type="line"/>
    </contour>
  </outline>
</glyph>
<glyph name="Enghe-cy" format="2">
  <advance width="2003.0055248618785"/>
  <unicode hex="04A4"/>
  <outline>
    <contour>
      <point x="21.314917127071823" y="0.0" type="line"/>
      <point x="630.132596685083" y="0.0" type="line"/>
      <point x="630.132596685083" y="37.447513812154696" type="line"/>
      <point x="489.950276243094" y="70.34254143646407" type="line"/>
      <point x="491.3977900552487" y="732.0" type="line"/>
      <point x="1093.6906077348065" y="732.0" type="line"/>
      <point x="1093.6906077348065" y="70.34254143646407" type="line"/>
      <point x="954.9558011049724" y="37.447513812154696" type="line"/>
      <point x="954.9558011049724" y="0.0" type="line"/>
      <point x="1562.3259668508288" y="0.0" type="line"/>
      <point x="1562.3259668508288" y="37.447513812154696" type="line"/>
      <point x="1429.5635359116022" y="70.34254143646407" type="line"/>
      <point x="1429.5635359116022" y="1435.3812154696132" type="line"/>
      <point x="1669.8618784530386" y="1419.0386740331492" type="line"/>
      <point x="1816.4088397790056" y="923.9281767955802" type="line"/>
      <point x="1959.6243093922649" y="923.9281767955802" type="line"/>
      <point x="1934.254143646409" y="1486.0" type="line"/>
      <point x="954.9558011049725" y="1486.0" type="line"/>
      <point x="954.9558011049725" y="1450.0" type="line"/>
      <point x="1093.6906077348065" y="1414.2099447513813" type="line"/>
      <point x="1093.6906077348065" y="796.8950276243094" type="line"/>
      <point x="491.3977900552487" y="796.8950276243094" type="line"/>
      <point x="491.3977900552487" y="1414.209944751381" type="line"/>
      <point x="629.4088397790055" y="1450.0" type="line"/>
      <point x="629.4088397790055" y="1486.0" type="line"/>
      <point x="22.314917127071816" y="1486.0" type="line"/>
      <point x="22.314917127071816" y="1450.0" type="line"/>
      <point x="155.524861878453" y="1414.209944751381" type="line"/>
      <point x="155.524861878453" y="70.34254143646407" type="line"/>
      <point x="21.314917127071823" y="37.447513812154696" type="line"/>
    </contour>
  </outline>
</glyph>
<glyph name="pemiddlehook-cy" format="2">
  <advance width="1855.3756906077347"/>
  <unicode hex="04A7"/>
  <anchor x="1237.0939226519336" y="0.0" name="bottomright"/>
  <outline>
    <contour>
      <point x="1332.6464088397788" y="-501.5414364640884" type="curve" smooth="yes"/>
      <point x="1612.9558011049724" y="-501.5414364640884"/>
      <point x="1817.5082872928176" y="-321.0662983425414"/>
      <point x="1817.5082872928176" y="58.93370165745855" type="curve" smooth="yes"/>
      <point x="1817.5082872928176" y="405.292817679558"/>
      <point x="1642.3204419889503" y="529.6464088397789"/>
      <point x="1447.4530386740332" y="529.6464088397789" type="curve" smooth="yes"/>
      <point x="1290.3977900552488" y="529.6464088397789"/>
      <point x="1167.6187845303868" y="448.76243093922653"/>
      <point x="1101.3038674033148" y="361.49723756906076" type="curve"/>
      <point x="1101.3038674033148" y="320.2596685082873" type="line"/>
      <point x="1155.696132596685" y="358.36464088397787"/>
      <point x="1227.4696132596682" y="384.98342541436466"/>
      <point x="1307.364640883978" y="384.98342541436466" type="curve" smooth="yes"/>
      <point x="1459.5745856353592" y="384.98342541436466"/>
      <point x="1522.243093922652" y="289.0883977900552"/>
      <point x="1522.243093922652" y="43.696132596685075" type="curve" smooth="yes"/>
      <point x="1522.243093922652" y="-265.4475138121547"/>
      <point x="1433.9558011049724" y="-423.3149171270719"/>
      <point x="1248.6408839779006" y="-423.3149171270719" type="curve" smooth="yes"/>
      <point x="1211.3370165745857" y="-423.3149171270719"/>
      <point x="1173.6795580110497" y="-416.69613259668506"/>
      <point x="1152.78453038674" y="-410.8011049723757" type="curve"/>
      <point x="1161.4696132596684" y="-473.96132596685084" type="line"/>
      <point x="1201.839779005525" y="-490.6464088397789"/>
      <point x="1262.486187845304" y="-501.5414364640884"/>
    </contour>
    <component base="pe-cy"/>
  </outline>
</glyph>
<glyph name="ustrait-cy" format="2">
  <advance width="989.243093922652"/>
  <unicode hex="04AF"/>
  <anchor x="638.5138121546961" y="15.922651933701658" name="center"/>
  <outline>
    <contour>
      <point x="240.0497237569061" y="-459.37016574585635" type="line"/>
      <point x="792.1160220994475" y="-459.37016574585635" type="line"/>
      <point x="792.1160220994475" y="-421.9226519337017" type="line"/>
      <point x="656.1160220994475" y="-388.75138121546956" type="line"/>
      <point x="656.1160220994475" y="53.408839779005525" type="line"/>
      <point x="957.6132596685082" y="927.0773480662983" type="line"/>
      <point x="1060.4309392265193" y="967.5524861878453" type="line"/>
      <point x="1060.4309392265193" y="1005.0" type="line"/>
      <point x="737.6629834254143" y="1005.0" type="line"/>
      <point x="737.6629834254143" y="967.5524861878453" type="line"/>
      <point x="861.0331491712707" y="927.0773480662983" type="line"/>
      <point x="675.2762430939226" y="349.4585635359116" type="line"/>
      <point x="618.6685082872928" y="162.60773480662982" type="line"/>
      <point x="562.2320441988951" y="349.45856353591165" type="line"/>
      <point x="364.71270718232046" y="927.0773480662983" type="line"/>
      <point x="473.3977900552487" y="967.5524861878454" type="line"/>
      <point x="473.3977900552487" y="1005.0" type="line"/>
      <point x="-42.43646408839779" y="1005.0" type="line"/>
      <point x="-42.43646408839779" y="967.5524861878453" type="line"/>
      <point x="42.248618784530386" y="927.0773480662983" type="line"/>
      <point x="376.0497237569061" y="45.06629834254144" type="line"/>
      <point x="376.0497237569061" y="-388.75138121546956" type="line"/>
      <point x="240.0497237569061" y="-421.9226519337017" type="line"/>
    </contour>
  </outline>
</glyph>
<glyph name="ustraitstroke-cy" format="2">
  <advance width="989.243093922652"/>
  <unicode hex="04B1"/>
  <anchor x="638.5138121546961" y="15.922651933701658" name="center"/>
  <outline>
    <contour>
      <point x="126.15469613259667" y="0.0" type="line"/>
      <point x="925.3149171270718" y="0.0" type="line"/>
      <point x="925.3149171270718" y="64.47513812154696" type="line"/>
      <point x="126.15469613259667" y="64.47513812154696" type="line"/>
    </contour>
    <component base="ustrait-cy"/>
  </outline>
</glyph>
<glyph name="Tetse-cy" format="2">
  <advance width="2194.9337016574586"/>
  <unicode hex="04B4"/>
  <guideline x="2153.2762430939224" y="1198.0" angle="270.0"/>
  <outline>
    <contour>
      <point x="355.74585635359114" y="0.0" type="line"/>
      <point x="2019.0662983425414" y="0.0" type="line"/>
      <point x="2019.0662983425414" y="1415.657458563536" type="line"/>
      <point x="2153.276243093923" y="1449.2762430939226" type="line"/>
      <point x="2153.276243093923" y="1486.0" type="line"/>
      <point x="1550.878453038674" y="1486.0" type="line"/>
      <point x="1550.878453038674" y="1449.2762430939226" type="line"/>
      <point x="1685.022099447514" y="1415.657458563536" type="line"/>
      <point x="1685.022099447514" y="64.89502762430939" type="line"/>
      <point x="881.5303867403314" y="64.89502762430939" type="line"/>
      <point x="881.5303867403314" y="1433.7237569060774" type="line"/>
      <point x="1094.756906077348" y="1414.8950276243095" type="line"/>
      <point x="1251.524861878453" y="945.2707182320441" type="line"/>
      <point x="1390.3204419889503" y="945.2707182320441" type="line"/>
      <point x="1355.0055248618783" y="1486.0" type="line"/>
      <point x="78.97237569060773" y="1486.0" type="line"/>
      <point x="43.38121546961326" y="945.2707182320443" type="line"/>
      <point x="180.72928176795577" y="945.2707182320443" type="line"/>
      <point x="339.94475138121544" y="1414.8950276243095" type="line"/>
      <point x="559.4088397790055" y="1433.7237569060774" type="line"/>
      <point x="559.4088397790055" y="78.85635359116023" type="line"/>
      <point x="355.74585635359114" y="37.447513812154696" type="line"/>
    </contour>
    <component base="righttooth_part." xOffset="1873.0220994475135"/>
  </outline>
</glyph>
<glyph name="tetse-cy" format="2">
  <advance width="1821.4972375690606"/>
  <unicode hex="04B5"/>
  <outline>
    <contour>
      <point x="277.41988950276243" y="0.0" type="line"/>
      <point x="1644.8674033149173" y="0.0" type="line"/>
      <point x="1644.8674033149173" y="934.3812154696133" type="line"/>
      <point x="1770.5248618784528" y="967.5524861878454" type="line"/>
      <point x="1770.5248618784528" y="1005.0" type="line"/>
      <point x="1234.7624309392263" y="1005.0" type="line"/>
      <point x="1234.7624309392263" y="967.5524861878454" type="line"/>
      <point x="1349.6022099447514" y="934.3812154696133" type="line"/>
      <point x="1349.6022099447514" y="68.68508287292815" type="line"/>
      <point x="761.7900552486188" y="68.68508287292815" type="line"/>
      <point x="761.7900552486188" y="947.5524861878453" type="line"/>
      <point x="941.1878453038673" y="936.6574585635359" type="line"/>
      <point x="1002.6353591160223" y="605.3922651933702" type="line"/>
      <point x="1187.4088397790056" y="605.3922651933702" type="line"/>
      <point x="1175.9613259668508" y="1005.0" type="line"/>
      <point x="46.9060773480663" y="1005.0" type="line"/>
      <point x="35.458563535911594" y="605.3922651933702" type="line"/>
      <point x="219.67955801104972" y="605.3922651933702" type="line"/>
      <point x="281.12707182320446" y="936.6574585635359" type="line"/>
      <point x="466.524861878453" y="947.5524861878453" type="line"/>
      <point x="466.524861878453" y="70.61878453038673" type="line"/>
      <point x="277.41988950276243" y="37.447513812154696" type="line"/>
    </contour>
    <component base="righttooth_part." xOffset="1512.4806629834256"/>
  </outline>
</glyph>
<glyph name="Kahook-cy" format="2">
  <advance width="1380.8176795580112"/>
  <unicode hex="04C3"/>
  <outline>
    <contour>
      <point x="1195.3535911602212" y="1414.2099447513813" type="line"/>
      <point x="1335.6574585635358" y="1450.0" type="line"/>
      <point x="1335.6574585635358" y="1486.0" type="line"/>
      <point x="908.2209944751381" y="1486.0" type="line"/>
      <point x="908.2209944751381" y="1450.0" type="line"/>
      <point x="1083.2099447513813" y="1414.209944751381" type="line"/>
      <point x="745.2099447513812" y="855.5138121546961" type="line"/>
      <point x="651.5248618784532" y="849.342541436464"/>
      <point x="571.5911602209945" y="822.0"/>
      <point x="495.50276243093924" y="780.6187845303867" type="curve"/>
      <point x="495.50276243093924" y="1414.2099447513813" type="line"/>
      <point x="650.4364640883978" y="1450.0" type="line"/>
      <point x="650.4364640883978" y="1486.0" type="line"/>
      <point x="22.03867403314917" y="1486.0" type="line"/>
      <point x="22.03867403314917" y="1450.0" type="line"/>
      <point x="160.28729281767957" y="1414.2099447513813" type="line"/>
      <point x="160.28729281767957" y="70.34254143646409" type="line"/>
      <point x="21.314917127071823" y="37.447513812154696" type="line"/>
      <point x="21.314917127071823" y="0.0" type="line"/>
      <point x="652.2651933701658" y="0.0" type="line"/>
      <point x="652.2651933701658" y="37.447513812154696" type="line"/>
      <point x="495.50276243093924" y="70.34254143646409" type="line"/>
      <point x="495.50276243093924" y="720.2099447513813" type="line"/>
      <point x="550.6961325966852" y="753.7624309392265"/>
      <point x="607.6408839779004" y="780.3425414364641"/>
      <point x="699.6795580110497" y="780.3425414364641" type="curve" smooth="yes"/>
      <point x="888.5414364640884" y="780.3425414364641"/>
      <point x="1028.2872928176798" y="611.2872928176796"/>
      <point x="1028.2872928176798" y="295.31491712707185" type="curve" smooth="yes"/>
      <point x="1028.2872928176798" y="-121.0939226519337"/>
      <point x="915.0939226519338" y="-348.0"/>
      <point x="709.2044198895028" y="-348.0" type="curve" smooth="yes"/>
      <point x="657.6629834254144" y="-348.0"/>
      <point x="632.9005524861878" y="-343.10497237569064"/>
      <point x="618.5193370165746" y="-339.1049723756906" type="curve"/>
      <point x="618.5193370165746" y="-378.5524861878453" type="line"/>
      <point x="644.8618784530387" y="-390.0"/>
      <point x="707.7569060773482" y="-405.58011049723757"/>
      <point x="783.182320441989" y="-405.58011049723757" type="curve" smooth="yes"/>
      <point x="1135.171270718232" y="-405.58011049723757"/>
      <point x="1369.4364640883978" y="-112.54696132596686"/>
      <point x="1369.4364640883978" y="295.3922651933702" type="curve" smooth="yes"/>
      <point x="1369.4364640883978" y="646.5027624309392"/>
      <point x="1179.5911602209944" y="843.6850828729282"/>
      <point x="831.2099447513814" y="856.2375690607735" type="curve"/>
    </contour>
  </outline>
</glyph>
<glyph name="kahook-cy" format="2">
  <advance width="1192.513812154696"/>
  <unicode hex="04C4"/>
  <outline>
    <contour>
      <point x="669.8287292817679" y="-501.5414364640884" type="curve" smooth="yes"/>
      <point x="955.4419889502763" y="-501.5414364640884"/>
      <point x="1159.4419889502763" y="-297.8563535911602"/>
      <point x="1159.4419889502763" y="81.97237569060772" type="curve" smooth="yes"/>
      <point x="1159.4419889502763" y="417.3149171270718"/>
      <point x="982.4806629834254" y="598.6353591160221"/>
      <point x="697.2762430939226" y="566.342541436464" type="curve"/>
      <point x="941.1160220994476" y="932.2099447513812" type="line"/>
      <point x="1110.14364640884" y="967.5524861878453" type="line"/>
      <point x="1110.14364640884" y="1005.0" type="line"/>
      <point x="723.3259668508286" y="1005.0" type="line"/>
      <point x="723.3259668508286" y="967.5524861878453" type="line"/>
      <point x="858.9834254143647" y="932.2099447513813" type="line"/>
      <point x="608.8011049723757" y="550.9337016574586" type="line"/>
      <point x="539.314917127072" y="532.1436464088397"/>
      <point x="487.2099447513813" y="499.41988950276243"/>
      <point x="443.6187845303867" y="461.86740331491706" type="curve"/>
      <point x="443.6187845303867" y="933.657458563536" type="line"/>
      <point x="566.5911602209945" y="967.5524861878453" type="line"/>
      <point x="566.5911602209945" y="1005.0" type="line"/>
      <point x="22.696132596685082" y="1005.0" type="line"/>
      <point x="22.696132596685082" y="967.5524861878453" type="line"/>
      <point x="148.35359116022101" y="933.657458563536" type="line"/>
      <point x="148.35359116022101" y="71.34254143646407" type="line"/>
      <point x="21.248618784530386" y="37.447513812154696" type="line"/>
      <point x="21.248618784530386" y="0.0" type="line"/>
      <point x="575.828729281768" y="0.0" type="line"/>
      <point x="575.828729281768" y="37.447513812154696" type="line"/>
      <point x="443.6187845303867" y="71.34254143646407" type="line"/>
      <point x="443.6187845303867" y="419.18232044198896" type="line"/>
      <point x="490.4585635359116" y="435.94475138121544"/>
      <point x="548.6022099447515" y="447.9447513812155"/>
      <point x="608.0883977900553" y="447.9447513812155" type="curve" smooth="yes"/>
      <point x="784.2983425414365" y="447.9447513812155"/>
      <point x="864.729281767956" y="341.6408839779005"/>
      <point x="864.729281767956" y="66.18232044198896" type="curve" smooth="yes"/>
      <point x="864.729281767956" y="-226.58011049723754"/>
      <point x="773.889502762431" y="-423.3149171270718"/>
      <point x="587.7182320441989" y="-423.3149171270718" type="curve" smooth="yes"/>
      <point x="552.585635359116" y="-423.3149171270718"/>
      <point x="511.5856353591161" y="-416.41988950276243"/>
      <point x="488.1381215469613" y="-409.97237569060775" type="curve"/>
      <point x="496.8232044198896" y="-473.6850828729282" type="line"/>
      <point x="535.7458563535912" y="-488.9226519337016"/>
      <point x="597.6022099447515" y="-501.5414364640884"/>
    </contour>
  </outline>
</glyph>
<glyph name="Enhook-cy" format="2">
  <advance width="1592.7182320441989"/>
  <unicode hex="04C7"/>
  <outline>
    <contour>
      <point x="877.8674033149172" y="-375.6740331491713" type="line"/>
      <point x="1127.690607734807" y="-345.121546961326"/>
      <point x="1343.6132596685081" y="-193.61878453038673"/>
      <point x="1400.9834254143645" y="25.96132596685083" type="curve" smooth="yes"/>
      <point x="1427.1546961325967" y="128.24861878453038"/>
      <point x="1428.1160220994475" y="285.84530386740335"/>
      <point x="1428.1160220994475" y="529.5580110497237" type="curve" smooth="yes"/>
      <point x="1428.1160220994475" y="1415.6574585635358" type="line"/>
      <point x="1560.6022099447514" y="1449.2762430939226" type="line"/>
      <point x="1560.6022099447514" y="1486.0" type="line"/>
      <point x="953.5082872928177" y="1486.0" type="line"/>
      <point x="953.5082872928177" y="1449.2762430939226" type="line"/>
      <point x="1091.5193370165746" y="1415.657458563536" type="line"/>
      <point x="1091.5193370165746" y="796.8950276243094" type="line"/>
      <point x="490.67403314917135" y="796.8950276243094" type="line"/>
      <point x="490.67403314917135" y="1415.6574585635358" type="line"/>
      <point x="629.4088397790055" y="1449.2762430939226" type="line"/>
      <point x="629.4088397790055" y="1486.0" type="line"/>
      <point x="22.314917127071816" y="1486.0" type="line"/>
      <point x="22.314917127071816" y="1449.2762430939226" type="line"/>
      <point x="154.07734806629833" y="1415.6574585635358" type="line"/>
      <point x="154.07734806629833" y="70.34254143646407" type="line"/>
      <point x="21.314917127071823" y="36.72375690607735" type="line"/>
      <point x="21.314917127071823" y="0.0" type="line"/>
      <point x="630.132596685083" y="0.0" type="line"/>
      <point x="630.132596685083" y="36.72375690607735" type="line"/>
      <point x="490.67403314917135" y="70.34254143646407" type="line"/>
      <point x="490.67403314917135" y="732.0" type="line"/>
      <point x="1091.5193370165746" y="732.0" type="line"/>
      <point x="1091.5193370165746" y="369.9337016574585" type="line" smooth="yes"/>
      <point x="1091.5193370165746" y="134.90055248618785"/>
      <point x="1080.3867403314919" y="12.767955801104968"/>
      <point x="1051.729281767956" y="-76.62430939226519" type="curve"/>
      <point x="1005.3867403314919" y="-220.45303867403317"/>
      <point x="946.8011049723757" y="-281.30386740331494"/>
      <point x="842.5524861878453" y="-321.9889502762431" type="curve"/>
    </contour>
  </outline>
</glyph>
<glyph name="Gestrokehook-cy" format="2">
  <advance width="1230.988950276243"/>
  <unicode hex="04FA"/>
  <anchor x="758.3756906077348" y="0.0" name="bottomright"/>
  <anchor x="698.0" y="744.0" name="center"/>
  <anchor x="690.9060773480662" y="1486.0" name="top"/>
  <outline>
    <contour>
      <point x="684.7348066298342" y="-501.121546961326" type="curve" smooth="yes"/>
      <point x="821.0110497237569" y="-501.121546961326"/>
      <point x="917.4198895027623" y="-427.4640883977901"/>
      <point x="917.4198895027623" y="-266.1325966850829" type="curve" smooth="yes"/>
      <point x="917.4198895027624" y="-124.83977900552487"/>
      <point x="832.2209944751381" y="-9.22099447513812"/>
      <point x="787.867403314917" y="46.85635359116023" type="curve"/>
      <point x="507.9447513812155" y="71.17127071823205" type="line"/>
      <point x="745.5911602209945" y="0.0" type="line"/>
      <point x="782.0773480662982" y="-56.143646408839786"/>
      <point x="807.2872928176797" y="-136.0110497237569"/>
      <point x="807.2872928176797" y="-198.59116022099448" type="curve" smooth="yes"/>
      <point x="807.2872928176797" y="-291.353591160221"/>
      <point x="754.011049723757" y="-320.2872928176796"/>
      <point x="650.2209944751382" y="-320.2872928176796" type="curve" smooth="yes"/>
      <point x="628.182320441989" y="-320.2872928176796"/>
      <point x="578.7348066298343" y="-315.7348066298342"/>
      <point x="544.7348066298343" y="-306.45856353591165" type="curve"/>
      <point x="544.182320441989" y="-472.9502762430939" type="line"/>
      <point x="578.011049723757" y="-487.6740331491713"/>
      <point x="640.182320441989" y="-501.121546961326"/>
    </contour>
    <component base="Ghestroke-cy" xOffset="22.066298342541437"/>
  </outline>
</glyph>
<glyph name="gestrokehook-cy" format="2">
  <advance width="967.1933701657458"/>
  <unicode hex="04FB"/>
  <anchor x="443.61878453038673" y="0.0" name="bottomright"/>
  <anchor x="485.475138121547" y="556.0" name="center"/>
  <anchor x="485.47513812154705" y="1110.7237569060774" name="top"/>
  <outline>
    <contour>
      <point x="558.4861878453039" y="-464.9116022099447" type="curve" smooth="yes"/>
      <point x="688.9613259668508" y="-464.9116022099447"/>
      <point x="760.1215469613259" y="-389.4917127071823"/>
      <point x="760.1215469613259" y="-267.7790055248619" type="curve" smooth="yes"/>
      <point x="760.1215469613259" y="-131.646408839779"/>
      <point x="672.5414364640885" y="-10.104972375690608"/>
      <point x="618.9226519337017" y="38.171270718232044" type="curve"/>
      <point x="570.6574585635358" y="4.342541436464089" type="line"/>
      <point x="600.9337016574585" y="-34.93370165745856"/>
      <point x="623.353591160221" y="-95.14364640883977"/>
      <point x="623.353591160221" y="-167.94475138121544" type="curve" smooth="yes"/>
      <point x="623.353591160221" y="-258.7348066298342"/>
      <point x="588.7348066298342" y="-297.0497237569061"/>
      <point x="508.9834254143647" y="-297.0497237569061" type="curve" smooth="yes"/>
      <point x="483.0497237569061" y="-297.0497237569061"/>
      <point x="456.56353591160223" y="-292.11602209944755"/>
      <point x="435.28729281767954" y="-284.62983425414365" type="curve"/>
      <point x="435.28729281767954" y="-439.6353591160221" type="line"/>
      <point x="471.0773480662984" y="-455.35911602209944"/>
      <point x="510.97237569060775" y="-464.9116022099447"/>
    </contour>
    <component base="ghestroke-cy"/>
  </outline>
</glyph>
<glyph name="hahook-cy" format="2">
  <advance width="1081.674033149171"/>
  <unicode hex="04FD"/>
  <outline>
    <contour>
      <point x="619.8618784530387" y="-480.6850828729282" type="line"/>
      <point x="832.2983425414363" y="-425.41988950276243"/>
      <point x="1017.1491712707183" y="-297.1270718232044"/>
      <point x="1017.1491712707183" y="-94.11049723756906" type="curve" smooth="yes"/>
      <point x="1017.1491712707183" y="83.79558011049724"/>
      <point x="882.4254143646409" y="292.9558011049724"/>
      <point x="685.5359116022099" y="554.4364640883978" type="curve"/>
      <point x="983.0220994475138" y="935.2762430939226" type="line"/>
      <point x="1091.0883977900553" y="967.1049723756906" type="line"/>
      <point x="1091.0883977900553" y="1005.0" type="line"/>
      <point x="723.4254143646409" y="1005.0" type="line"/>
      <point x="723.4254143646409" y="967.1049723756906" type="line"/>
      <point x="843.3867403314916" y="934.5524861878453" type="line"/>
      <point x="697.6132596685082" y="703.817679558011" type="line"/>
      <point x="641.4033149171271" y="605.9779005524862" type="line"/>
      <point x="580.1546961325967" y="704.5414364640884" type="line"/>
      <point x="433.3149171270718" y="935.2762430939226" type="line"/>
      <point x="549.7734806629835" y="967.1049723756906" type="line"/>
      <point x="549.7734806629835" y="1005.0" type="line"/>
      <point x="-22.70165745856354" y="1005.0" type="line"/>
      <point x="-22.70165745856354" y="967.1049723756906" type="line"/>
      <point x="76.88950276243095" y="935.2762430939226" type="line"/>
      <point x="396.82320441988946" y="460.22099447513807" type="line"/>
      <point x="90.67955801104972" y="71.0" type="line"/>
      <point x="-18.93922651933702" y="37.72375690607735" type="line"/>
      <point x="-18.93922651933702" y="0.0" type="line"/>
      <point x="357.65745856353595" y="0.0" type="line"/>
      <point x="357.65745856353595" y="37.72375690607735" type="line"/>
      <point x="228.9060773480663" y="71.0" type="line"/>
      <point x="376.4972375690608" y="299.86740331491717" type="line"/>
      <point x="443.29834254143645" y="406.1270718232044" type="line"/>
      <point x="606.6077348066298" y="172.3314917127072"/>
      <point x="732.2265193370165" y="-1.2209944751381272"/>
      <point x="732.2265193370165" y="-190.27624309392263" type="curve" smooth="yes"/>
      <point x="732.2265193370165" y="-274.7624309392265"/>
      <point x="705.8066298342543" y="-387.2872928176796"/>
      <point x="600.6243093922652" y="-432.8950276243094" type="curve"/>
    </contour>
  </outline>
</glyph>
<glyph name="hastroke-cy" format="2">
  <advance width="1081.160220994475"/>
  <unicode hex="04FF"/>
  <outline>
    <contour>
      <point x="118.37569060773482" y="472.0773480662984" type="line"/>
      <point x="464.66850828729275" y="472.0773480662984" type="line"/>
      <point x="599.1767955801105" y="478.59116022099454" type="line"/>
      <point x="962.5082872928176" y="478.59116022099454" type="line"/>
      <point x="962.5082872928176" y="541.961325966851" type="line"/>
      <point x="586.8342541436464" y="541.961325966851" type="line"/>
      <point x="438.707182320442" y="535.4475138121549" type="line"/>
      <point x="118.37569060773482" y="535.4475138121549" type="line"/>
    </contour>
    <component base="x"/>
  </outline>
</glyph>
<glyph name="Komilje-cy" format="2">
  <advance width="2075.4364640883978"/>
  <unicode hex="0508"/>
  <outline>
    <contour>
      <point x="2029.4419889502758" y="819.0662983425414" type="line"/>
      <point x="2143.071823204419" y="854.8563535911602" type="line"/>
      <point x="2143.071823204419" y="890.8563535911602" type="line"/>
      <point x="1556.0828729281768" y="890.8563535911602" type="line"/>
      <point x="1556.0828729281768" y="854.8563535911602" type="line"/>
      <point x="1692.292817679558" y="819.0662983425414" type="line"/>
      <point x="1692.292817679558" y="360.72375690607737" type="line" smooth="yes"/>
      <point x="1692.292817679558" y="146.0"/>
      <point x="1629.6519337016575" y="39.92265193370166"/>
      <point x="1478.049723756906" y="39.92265193370166" type="curve" smooth="yes"/>
      <point x="1327.6961325966852" y="39.92265193370166"/>
      <point x="1262.5027624309391" y="146.55248618784535"/>
      <point x="1262.5027624309391" y="361.828729281768" type="curve" smooth="yes"/>
      <point x="1262.5027624309391" y="1415.657458563536" type="line"/>
      <point x="1407.5524861878455" y="1449.2762430939226" type="line"/>
      <point x="1407.5524861878455" y="1486.0" type="line"/>
      <point x="276.2817679558011" y="1486.0" type="line"/>
      <point x="276.2817679558011" y="1449.2762430939226" type="line"/>
      <point x="494.7348066298342" y="1415.657458563536" type="line"/>
      <point x="494.7348066298342" y="1215.988950276243" type="line" smooth="yes"/>
      <point x="494.7348066298342" y="672.2707182320441"/>
      <point x="436.76243093922653" y="487.75690607734805"/>
      <point x="358.3701657458563" y="352.94475138121544" type="curve"/>
      <point x="304.55248618784526" y="259.4806629834254"/>
      <point x="223.353591160221" y="247.53591160220995"/>
      <point x="168.07734806629836" y="247.53591160220995" type="curve" smooth="yes"/>
      <point x="102.55248618784529" y="247.53591160220995"/>
      <point x="69.5524861878453" y="250.08839779005524"/>
      <point x="32.353591160220994" y="254.08839779005524" type="curve"/>
      <point x="45.867403314917134" y="0.0" type="line"/>
      <point x="70.59116022099448" y="-6.895027624309392"/>
      <point x="95.28729281767957" y="-12.171270718232044"/>
      <point x="137.02209944751382" y="-12.171270718232044" type="curve" smooth="yes"/>
      <point x="268.0110497237569" y="-12.171270718232044"/>
      <point x="345.8011049723757" y="41.86740331491713"/>
      <point x="410.76243093922653" y="154.61878453038673" type="curve" smooth="yes"/>
      <point x="527.3812154696134" y="357.1325966850829"/>
      <point x="557.878453038674" y="753.6187845303867"/>
      <point x="557.878453038674" y="1177.486187845304" type="curve" smooth="yes"/>
      <point x="557.878453038674" y="1418.4198895027625" type="line"/>
      <point x="924.524861878453" y="1418.4198895027625" type="line"/>
      <point x="924.524861878453" y="413.1602209944752" type="line" smooth="yes"/>
      <point x="924.524861878453" y="108.83977900552486"/>
      <point x="1086.3535911602212" y="-16.0"/>
      <point x="1476.9447513812154" y="-16.0" type="curve" smooth="yes"/>
      <point x="1828.5303867403316" y="-16.0"/>
      <point x="2029.4419889502758" y="108.01104972375691"/>
      <point x="2029.4419889502758" y="410.95027624309387" type="curve" smooth="yes"/>
    </contour>
  </outline>
</glyph>
<glyph name="komilje-cy" format="2">
  <advance width="1644.3977900552486"/>
  <unicode hex="0509"/>
  <outline>
    <contour>
      <point x="1110.8729281767958" y="-21.61878453038674" type="curve" smooth="yes"/>
      <point x="1392.1049723756907" y="-21.61878453038674"/>
      <point x="1554.9502762430939" y="75.86740331491711"/>
      <point x="1554.9502762430939" y="342.43646408839777" type="curve" smooth="yes"/>
      <point x="1554.9502762430939" y="530.4475138121547" type="line"/>
      <point x="1652.685082872928" y="562.8950276243093" type="line"/>
      <point x="1652.685082872928" y="600.342541436464" type="line"/>
      <point x="1149.950276243094" y="600.342541436464" type="line"/>
      <point x="1149.950276243094" y="562.8950276243093" type="line"/>
      <point x="1259.6850828729284" y="530.4475138121547" type="line"/>
      <point x="1259.6850828729284" y="261.5193370165746" type="line" smooth="yes"/>
      <point x="1259.6850828729284" y="100.80110497237567"/>
      <point x="1201.475138121547" y="37.066298342541444"/>
      <point x="1113.1491712707184" y="37.066298342541444" type="curve" smooth="yes"/>
      <point x="1024.8232044198896" y="37.066298342541444"/>
      <point x="966.6132596685082" y="100.8011049723757"/>
      <point x="966.6132596685082" y="261.5193370165746" type="curve" smooth="yes"/>
      <point x="966.6132596685084" y="934.3812154696133" type="line"/>
      <point x="1093.5856353591162" y="967.5524861878453" type="line"/>
      <point x="1093.5856353591162" y="1005.0" type="line"/>
      <point x="134.48618784530387" y="1005.0" type="line"/>
      <point x="134.48618784530387" y="967.5524861878453" type="line"/>
      <point x="301.38121546961327" y="934.3812154696133" type="line"/>
      <point x="301.3812154696133" y="420.9889502762431"/>
      <point x="256.3149171270718" y="234.98342541436463"/>
      <point x="113.03867403314919" y="234.98342541436463" type="curve" smooth="yes"/>
      <point x="74.2486187845304" y="234.98342541436463"/>
      <point x="32.03867403314917" y="239.98342541436463"/>
      <point x="5.314917127071823" y="246.98342541436466" type="curve"/>
      <point x="20.76243093922652" y="-8.342541436464089" type="line"/>
      <point x="40.76243093922652" y="-14.61878453038674"/>
      <point x="65.59116022099448" y="-20.34254143646409"/>
      <point x="94.76243093922653" y="-20.34254143646409" type="curve" smooth="yes"/>
      <point x="180.3149171270718" y="-20.34254143646409"/>
      <point x="251.5524861878453" y="28.486187845303867"/>
      <point x="292.72375690607737" y="114.17127071823202" type="curve" smooth="yes"/>
      <point x="335.82872928176795" y="203.72375690607734"/>
      <point x="383.7237569060773" y="416.71270718232046"/>
      <point x="383.7237569060773" y="843.4751381215469" type="curve" smooth="yes"/>
      <point x="383.7237569060773" y="934.3149171270719" type="line"/>
      <point x="671.3480662983425" y="934.3149171270719" type="line"/>
      <point x="671.3480662983425" y="342.71270718232046" type="line" smooth="yes"/>
      <point x="671.3480662983425" y="76.14364640883977"/>
      <point x="833.2596685082873" y="-21.61878453038674"/>
    </contour>
  </outline>
</glyph>
<glyph name="Kominje-cy" format="2">
  <advance width="2240.3259668508285"/>
  <unicode hex="050A"/>
  <outline>
    <contour>
      <point x="2195.0552486187844" y="819.0662983425414" type="line"/>
      <point x="2307.961325966851" y="854.8563535911602" type="line"/>
      <point x="2307.961325966851" y="890.8563535911602" type="line"/>
      <point x="1726.8674033149173" y="890.8563535911602" type="line"/>
      <point x="1726.8674033149173" y="854.8563535911602" type="line"/>
      <point x="1858.4585635359115" y="819.0662983425414" type="line"/>
      <point x="1858.4585635359115" y="360.7237569060773" type="line" smooth="yes"/>
      <point x="1858.4585635359115" y="146.00000000000003"/>
      <point x="1798.436464088398" y="39.92265193370166"/>
      <point x="1646.425414364641" y="39.92265193370166" type="curve" smooth="yes"/>
      <point x="1490.546961325967" y="39.92265193370166"/>
      <point x="1428.8397790055246" y="146.55248618784532"/>
      <point x="1428.8397790055246" y="331.9944751381215" type="curve" smooth="yes"/>
      <point x="1428.8397790055246" y="1414.209944751381" type="line"/>
      <point x="1559.878453038674" y="1450.0" type="line"/>
      <point x="1559.878453038674" y="1486.0" type="line"/>
      <point x="954.232044198895" y="1486.0" type="line"/>
      <point x="954.232044198895" y="1450.0" type="line"/>
      <point x="1092.2430939226517" y="1413.486187845304" type="line"/>
      <point x="1092.2430939226517" y="796.8950276243094" type="line"/>
      <point x="490.67403314917135" y="796.8950276243094" type="line"/>
      <point x="490.67403314917135" y="1414.209944751381" type="line"/>
      <point x="629.4088397790055" y="1450.0" type="line"/>
      <point x="629.4088397790055" y="1486.0" type="line"/>
      <point x="22.314917127071816" y="1486.0" type="line"/>
      <point x="22.314917127071816" y="1450.0" type="line"/>
      <point x="154.07734806629833" y="1414.209944751381" type="line"/>
      <point x="154.07734806629833" y="70.61878453038673" type="line"/>
      <point x="21.314917127071823" y="36.72375690607735" type="line"/>
      <point x="21.314917127071823" y="0.0" type="line"/>
      <point x="630.1325966850828" y="0.0" type="line"/>
      <point x="630.1325966850828" y="36.72375690607735" type="line"/>
      <point x="490.67403314917135" y="70.61878453038673" type="line"/>
      <point x="490.67403314917135" y="732.0" type="line"/>
      <point x="1092.2430939226517" y="732.0" type="line"/>
      <point x="1092.2430939226517" y="399.9005524861879" type="line" smooth="yes"/>
      <point x="1092.2430939226517" y="108.83977900552486"/>
      <point x="1252.2044198895026" y="-16.0"/>
      <point x="1647.4917127071826" y="-16.0" type="curve" smooth="yes"/>
      <point x="1999.0386740331487" y="-16.0"/>
      <point x="2195.0552486187844" y="108.01104972375691"/>
      <point x="2195.0552486187844" y="410.9502762430939" type="curve" smooth="yes"/>
    </contour>
  </outline>
</glyph>
<glyph name="kominje-cy" format="2">
  <advance width="1811.9944751381217"/>
  <unicode hex="050B"/>
  <outline>
    <contour>
      <point x="1278.4696132596682" y="-21.61878453038674" type="curve" smooth="yes"/>
      <point x="1559.7016574585634" y="-21.61878453038674"/>
      <point x="1722.546961325967" y="75.86740331491711"/>
      <point x="1722.546961325967" y="342.43646408839777" type="curve" smooth="yes"/>
      <point x="1722.546961325967" y="530.4475138121547" type="line"/>
      <point x="1820.2817679558011" y="562.8950276243093" type="line"/>
      <point x="1820.2817679558011" y="600.342541436464" type="line"/>
      <point x="1317.5469613259668" y="600.342541436464" type="line"/>
      <point x="1317.5469613259668" y="562.8950276243093" type="line"/>
      <point x="1427.2817679558011" y="530.4475138121547" type="line"/>
      <point x="1427.2817679558011" y="261.5193370165745" type="line" smooth="yes"/>
      <point x="1427.2817679558011" y="100.80110497237567"/>
      <point x="1369.0718232044198" y="37.06629834254144"/>
      <point x="1280.7458563535909" y="37.06629834254144" type="curve" smooth="yes"/>
      <point x="1192.4198895027625" y="37.06629834254144"/>
      <point x="1134.2099447513813" y="100.80110497237568"/>
      <point x="1134.2099447513813" y="261.5193370165745" type="curve" smooth="yes"/>
      <point x="1134.2099447513813" y="934.3812154696133" type="line"/>
      <point x="1261.314917127072" y="967.5524861878453" type="line"/>
      <point x="1261.314917127072" y="1005.0" type="line"/>
      <point x="717.7624309392265" y="1005.0" type="line"/>
      <point x="717.7624309392265" y="967.5524861878453" type="line"/>
      <point x="838.9447513812154" y="934.3812154696133" type="line"/>
      <point x="838.9447513812154" y="554.0662983425415" type="line"/>
      <point x="443.61878453038673" y="554.0662983425415" type="line"/>
      <point x="443.61878453038673" y="934.3812154696133" type="line"/>
      <point x="563.353591160221" y="967.5524861878453" type="line"/>
      <point x="563.353591160221" y="1005.0" type="line"/>
      <point x="21.248618784530386" y="1005.0" type="line"/>
      <point x="21.248618784530386" y="967.5524861878453" type="line"/>
      <point x="148.35359116022101" y="934.3812154696133" type="line"/>
      <point x="148.35359116022101" y="70.61878453038673" type="line"/>
      <point x="21.248618784530386" y="37.44751381215471" type="line"/>
      <point x="21.248618784530386" y="0.0" type="line"/>
      <point x="563.353591160221" y="0.0" type="line"/>
      <point x="563.353591160221" y="37.44751381215471" type="line"/>
      <point x="443.61878453038673" y="70.61878453038673" type="line"/>
      <point x="443.61878453038673" y="485.38121546961327" type="line"/>
      <point x="838.9447513812154" y="485.38121546961327" type="line"/>
      <point x="838.9447513812154" y="342.71270718232046" type="line" smooth="yes"/>
      <point x="838.9447513812154" y="76.14364640883977"/>
      <point x="1000.8563535911605" y="-21.61878453038674"/>
    </contour>
  </outline>
</glyph>
<glyph name="komitje-cy" format="2">
  <advance width="1437.5745856353592"/>
  <unicode hex="050F"/>
  <outline>
    <contour>
      <point x="904.049723756906" y="-21.61878453038674" type="curve" smooth="yes"/>
      <point x="1185.281767955801" y="-21.61878453038674"/>
      <point x="1348.1270718232045" y="75.86740331491711"/>
      <point x="1348.1270718232045" y="342.43646408839777" type="curve" smooth="yes"/>
      <point x="1348.1270718232045" y="484.10497237569064" type="line"/>
      <point x="1445.8618784530386" y="516.5524861878453" type="line"/>
      <point x="1445.8618784530386" y="554.0" type="line"/>
      <point x="943.1270718232043" y="554.0" type="line"/>
      <point x="943.1270718232043" y="516.5524861878453" type="line"/>
      <point x="1052.8618784530386" y="484.10497237569064" type="line"/>
      <point x="1052.8618784530386" y="261.5193370165745" type="line" smooth="yes"/>
      <point x="1052.8618784530386" y="100.80110497237568"/>
      <point x="994.6519337016575" y="37.06629834254145"/>
      <point x="906.3259668508286" y="37.06629834254145" type="curve" smooth="yes"/>
      <point x="818.0" y="37.06629834254145"/>
      <point x="759.7900552486188" y="100.80110497237568"/>
      <point x="759.7900552486188" y="261.5193370165746" type="curve" smooth="yes"/>
      <point x="759.7900552486188" y="947.5524861878453" type="line"/>
      <point x="945.1878453038673" y="936.6574585635358" type="line"/>
      <point x="1006.6353591160221" y="644.0773480662983" type="line"/>
      <point x="1191.4088397790056" y="644.0773480662983" type="line"/>
      <point x="1179.961325966851" y="1005.0" type="line"/>
      <point x="44.90607734806629" y="1005.0" type="line"/>
      <point x="33.458563535911594" y="644.0773480662983" type="line"/>
      <point x="217.67955801104972" y="644.0773480662983" type="line"/>
      <point x="279.12707182320446" y="936.6574585635358" type="line"/>
      <point x="464.524861878453" y="947.5524861878453" type="line"/>
      <point x="464.52486187845307" y="342.71270718232046" type="line" smooth="yes"/>
      <point x="464.52486187845307" y="76.14364640883977"/>
      <point x="626.4364640883978" y="-21.61878453038674"/>
    </contour>
  </outline>
</glyph>
<glyph name="reversedze-cy" format="2">
  <advance width="1002.9723756906078"/>
  <unicode hex="0511"/>
  <outline>
    <contour>
      <point x="537.2154696132598" y="-19.066298342541437" type="curve" smooth="yes"/>
      <point x="708.3756906077348" y="-19.066298342541437"/>
      <point x="861.9723756906077" y="13.03867403314917"/>
      <point x="934.8950276243094" y="46.1049723756906" type="curve"/>
      <point x="954.6850828729281" y="319.58011049723757" type="line"/>
      <point x="757.8066298342542" y="319.58011049723757" type="line"/>
      <point x="710.950276243094" y="122.8011049723757" type="line"/>
      <point x="689.8839779005525" y="90.10497237569061"/>
      <point x="639.5027624309392" y="43.61878453038673"/>
      <point x="560.756906077348" y="43.61878453038673" type="curve" smooth="yes"/>
      <point x="439.1712707182321" y="43.61878453038673"/>
      <point x="368.5414364640884" y="126.86740331491713"/>
      <point x="368.5414364640884" y="271.6187845303868" type="curve" smooth="yes"/>
      <point x="368.5414364640884" y="419.37016574585635"/>
      <point x="443.8950276243094" y="468.0110497237569"/>
      <point x="535.7845303867405" y="468.01104972375686" type="curve"/>
      <point x="574.4419889502761" y="468.18232044198896"/>
      <point x="612.6519337016575" y="469.0773480662984"/>
      <point x="651.3093922651934" y="469.2486187845304" type="curve"/>
      <point x="648.3093922651934" y="575.8563535911602" type="line"/>
      <point x="622.92817679558" y="569.3038674033148"/>
      <point x="580.3756906077348" y="564.1988950276244"/>
      <point x="553.1657458563535" y="564.9226519337017" type="curve" smooth="yes"/>
      <point x="462.56353591160223" y="567.0939226519336"/>
      <point x="390.4475138121546" y="639.2486187845305"/>
      <point x="390.4475138121546" y="779.1712707182321" type="curve" smooth="yes"/>
      <point x="390.4475138121546" y="899.0939226519337"/>
      <point x="441.524861878453" y="971.3425414364641"/>
      <point x="547.9668508287293" y="971.3425414364641" type="curve" smooth="yes"/>
      <point x="611.3204419889503" y="971.3425414364641"/>
      <point x="674.292817679558" y="942.6187845303867"/>
      <point x="695.9889502762431" y="909.3701657458565" type="curve"/>
      <point x="735.46408839779" y="691.7348066298342" type="line"/>
      <point x="919.3038674033149" y="691.7348066298342" type="line"/>
      <point x="925.6850828729281" y="982.3149171270718" type="line"/>
      <point x="815.4475138121547" y="982.314917127072"/>
      <point x="715.0883977900553" y="1034.0276243093922"/>
      <point x="527.6353591160222" y="1034.0276243093922" type="curve" smooth="yes"/>
      <point x="248.50276243093927" y="1034.0276243093922"/>
      <point x="94.8011049723757" y="924.6464088397789"/>
      <point x="94.8011049723757" y="762.2762430939226" type="curve" smooth="yes"/>
      <point x="94.8011049723757" y="602.171270718232"/>
      <point x="256.3425414364641" y="504.97237569060763"/>
      <point x="480.7790055248619" y="494.9723756906077" type="curve"/>
      <point x="470.9779005524862" y="525.171270718232" type="line"/>
      <point x="226.29281767955803" y="525.171270718232"/>
      <point x="53.591160220994475" y="421.6850828729282"/>
      <point x="53.591160220994475" y="254.3812154696133" type="curve" smooth="yes"/>
      <point x="53.591160220994475" y="90.03867403314916"/>
      <point x="217.64640883977904" y="-19.066298342541437"/>
    </contour>
  </outline>
</glyph>
<glyph name="elhook-cy" format="2">
  <advance width="1094.745856353591"/>
  <unicode hex="0513"/>
  <outline>
    <contour>
      <point x="528.5027624309392" y="-483.3425414364641" type="curve" smooth="yes"/>
      <point x="738.5303867403313" y="-483.3425414364641"/>
      <point x="958.3259668508286" y="-339.6077348066299"/>
      <point x="958.3259668508286" y="26.61878453038674" type="curve" smooth="yes"/>
      <point x="958.3259668508286" y="934.3812154696134" type="line"/>
      <point x="1082.53591160221" y="967.5524861878453" type="line"/>
      <point x="1082.53591160221" y="1005.0" type="line"/>
      <point x="134.48618784530387" y="1005.0" type="line"/>
      <point x="134.48618784530387" y="967.5524861878453" type="line"/>
      <point x="301.38121546961327" y="934.3812154696134" type="line"/>
      <point x="301.38121546961327" y="420.9889502762431"/>
      <point x="256.31491712707185" y="234.98342541436463"/>
      <point x="113.03867403314919" y="234.98342541436463" type="curve" smooth="yes"/>
      <point x="74.2486187845304" y="234.98342541436463"/>
      <point x="32.03867403314917" y="239.98342541436466"/>
      <point x="5.314917127071823" y="246.98342541436466" type="curve"/>
      <point x="20.76243093922652" y="-8.342541436464089" type="line"/>
      <point x="40.76243093922652" y="-14.61878453038674"/>
      <point x="65.59116022099447" y="-20.34254143646409"/>
      <point x="94.76243093922652" y="-20.34254143646409" type="curve" smooth="yes"/>
      <point x="180.3149171270718" y="-20.34254143646409"/>
      <point x="251.55248618784526" y="28.486187845303867"/>
      <point x="292.72375690607737" y="114.17127071823202" type="curve" smooth="yes"/>
      <point x="335.828729281768" y="203.72375690607734"/>
      <point x="383.72375690607726" y="416.71270718232046"/>
      <point x="383.7237569060773" y="843.4751381215469" type="curve" smooth="yes"/>
      <point x="383.7237569060773" y="934.3149171270718" type="line"/>
      <point x="663.0607734806629" y="934.3149171270718" type="line"/>
      <point x="663.0607734806629" y="40.27624309392265" type="line" smooth="yes"/>
      <point x="663.0607734806629" y="-221.22099447513813"/>
      <point x="623.5635359116022" y="-320.94475138121544"/>
      <point x="562.011049723757" y="-366.3922651933701" type="curve" smooth="yes"/>
      <point x="519.4585635359117" y="-398.1160220994475"/>
      <point x="458.94475138121555" y="-408.6685082872928"/>
      <point x="401.87845303867397" y="-408.6685082872928" type="curve"/>
      <point x="412.5635359116022" y="-470.6574585635359" type="line"/>
      <point x="440.31491712707185" y="-478.4475138121547"/>
      <point x="490.58011049723757" y="-483.3425414364641"/>
    </contour>
  </outline>
</glyph>
<glyph name="EnLeftHook-cy" format="2">
  <advance width="1587.4419889502763"/>
  <unicode hex="0528"/>
  <outline>
    <contour>
      <point x="-52.87845303867403" y="-375.6740331491713" type="line"/>
      <point x="204.90607734806625" y="-345.121546961326"/>
      <point x="410.4198895027625" y="-193.61878453038673"/>
      <point x="470.23756906077347" y="25.96132596685083" type="curve" smooth="yes"/>
      <point x="496.40883977900546" y="128.2486187845304"/>
      <point x="497.3701657458564" y="285.84530386740335"/>
      <point x="497.3701657458564" y="529.5580110497237" type="curve" smooth="yes"/>
      <point x="497.3701657458564" y="732.0" type="line"/>
      <point x="1094.596685082873" y="732.0" type="line"/>
      <point x="1094.596685082873" y="70.61878453038673" type="line"/>
      <point x="956.5856353591158" y="36.72375690607735" type="line"/>
      <point x="956.5856353591158" y="0.0" type="line"/>
      <point x="1566.1270718232042" y="0.0" type="line"/>
      <point x="1566.1270718232042" y="36.72375690607735" type="line"/>
      <point x="1430.4696132596684" y="70.61878453038673" type="line"/>
      <point x="1430.4696132596684" y="1415.6574585635358" type="line"/>
      <point x="1564.403314917127" y="1449.2762430939226" type="line"/>
      <point x="1564.403314917127" y="1486.0" type="line"/>
      <point x="956.585635359116" y="1486.0" type="line"/>
      <point x="956.585635359116" y="1449.2762430939226" type="line"/>
      <point x="1094.596685082873" y="1415.657458563536" type="line"/>
      <point x="1094.596685082873" y="796.8950276243094" type="line"/>
      <point x="497.3701657458564" y="796.8950276243094" type="line"/>
      <point x="497.3701657458564" y="1415.6574585635358" type="line"/>
      <point x="636.1049723756905" y="1449.2762430939226" type="line"/>
      <point x="636.1049723756905" y="1486.0" type="line"/>
      <point x="26.116022099447534" y="1486.0" type="line"/>
      <point x="26.116022099447534" y="1449.2762430939226" type="line"/>
      <point x="160.7734806629834" y="1415.6574585635358" type="line"/>
      <point x="160.7734806629834" y="369.9337016574585" type="line" smooth="yes"/>
      <point x="160.7734806629834" y="134.90055248618785"/>
      <point x="149.64088397790061" y="12.767955801104968"/>
      <point x="120.98342541436465" y="-76.62430939226519" type="curve"/>
      <point x="74.64088397790056" y="-220.45303867403317"/>
      <point x="16.055248618784553" y="-281.30386740331494"/>
      <point x="-88.19337016574585" y="-321.9889502762431" type="curve"/>
    </contour>
  </outline>
</glyph>
<glyph name="bullet" format="2">
  <advance width="806.07182320442"/>
  <unicode hex="2022"/>
  <outline>
    <contour>
      <point x="393.50276243093924" y="348.6243093922652" type="curve" smooth="yes"/>
      <point x="516.07182320442" y="348.6243093922652"/>
      <point x="630.4696132596686" y="448.8895027624309"/>
      <point x="630.4696132596686" y="578.7348066298342" type="curve" smooth="yes"/>
      <point x="630.4696132596686" y="714.1988950276243"/>
      <point x="537.8618784530387" y="808.4640883977901"/>
      <point x="415.292817679558" y="808.4640883977901" type="curve" smooth="yes"/>
      <point x="290.72375690607737" y="808.4640883977901"/>
      <point x="175.60220994475137" y="714.1988950276243"/>
      <point x="175.60220994475137" y="578.182320441989" type="curve"/>
      <point x="175.6022099447514" y="453.61325966850825"/>
      <point x="269.65745856353595" y="348.6243093922652"/>
    </contour>
  </outline>
</glyph>
<glyph name="perthousand" format="2">
  <advance width="2907.9281767955804"/>
  <unicode hex="2030"/>
  <outline>
    <contour>
      <point x="620.9613259668508" y="0.0" type="line"/>
      <point x="714.1436464088397" y="0.0" type="line"/>
      <point x="1363.7237569060774" y="1502.0" type="line"/>
      <point x="1270.265193370166" y="1501.7237569060774" type="line"/>
    </contour>
    <contour>
      <point x="468.96132596685084" y="630.6298342541436" type="curve" smooth="yes"/>
      <point x="698.9116022099448" y="630.6298342541436"/>
      <point x="894.7016574585635" y="783.8674033149172"/>
      <point x="894.7016574585635" y="1062.8950276243095" type="curve" smooth="yes"/>
      <point x="894.7016574585635" y="1298.7513812154696"/>
      <point x="787.8729281767955" y="1487.1602209944751"/>
      <point x="506.58011049723757" y="1487.1602209944751" type="curve" smooth="yes"/>
      <point x="271.18232044198896" y="1487.1602209944751"/>
      <point x="81.5635359116022" y="1329.9226519337017"/>
      <point x="81.5635359116022" y="1050.8950276243095" type="curve" smooth="yes"/>
      <point x="81.5635359116022" y="817.0773480662984"/>
      <point x="218.8397790055249" y="630.6298342541436"/>
    </contour>
    <contour>
      <point x="485.30386740331494" y="683.1049723756906" type="curve" smooth="yes"/>
      <point x="370.38674033149164" y="683.1049723756906"/>
      <point x="316.060773480663" y="812.0220994475137"/>
      <point x="316.060773480663" y="1062.5138121546959" type="curve" smooth="yes"/>
      <point x="316.060773480663" y="1315.0165745856355"/>
      <point x="374.8729281767956" y="1436.1325966850827"/>
      <point x="493.5801104972376" y="1436.1325966850827" type="curve" smooth="yes"/>
      <point x="606.4972375690608" y="1436.1325966850827"/>
      <point x="661.2044198895028" y="1314.2265193370167"/>
      <point x="661.2044198895028" y="1054.8950276243095" type="curve" smooth="yes"/>
      <point x="661.2044198895028" y="803.6685082872929"/>
      <point x="602.5635359116022" y="683.1049723756906"/>
    </contour>
    <contour>
      <point x="1484.7624309392263" y="28.011049723756905" type="curve" smooth="yes"/>
      <point x="1715.4364640883978" y="28.011049723756905"/>
      <point x="1911.2265193370165" y="181.24861878453038"/>
      <point x="1911.2265193370165" y="460.27624309392263" type="curve" smooth="yes"/>
      <point x="1911.2265193370165" y="696.1325966850828"/>
      <point x="1804.3977900552488" y="884.5414364640884"/>
      <point x="1522.3812154696132" y="884.5414364640884" type="curve" smooth="yes"/>
      <point x="1286.9834254143645" y="884.5414364640884"/>
      <point x="1097.3646408839777" y="727.3038674033149"/>
      <point x="1097.3646408839777" y="448.27624309392263" type="curve" smooth="yes"/>
      <point x="1097.3646408839777" y="221.6961325966851"/>
      <point x="1234.6408839779006" y="28.011049723756905"/>
    </contour>
    <contour>
      <point x="1501.1049723756907" y="80.48618784530387" type="curve" smooth="yes"/>
      <point x="1386.1878453038673" y="80.48618784530387"/>
      <point x="1331.8618784530386" y="209.4033149171271"/>
      <point x="1331.8618784530386" y="459.89502762430936" type="curve" smooth="yes"/>
      <point x="1331.8618784530386" y="712.3977900552487"/>
      <point x="1390.6740331491715" y="833.5138121546961"/>
      <point x="1509.3812154696132" y="833.5138121546961" type="curve" smooth="yes"/>
      <point x="1622.2983425414363" y="833.5138121546961"/>
      <point x="1677.0055248618785" y="711.6077348066299"/>
      <point x="1677.0055248618785" y="452.27624309392263" type="curve" smooth="yes"/>
      <point x="1677.0055248618785" y="201.0497237569061"/>
      <point x="1618.364640883978" y="80.48618784530387"/>
    </contour>
    <contour>
      <point x="2399.900552486188" y="28.011049723756905" type="curve" smooth="yes"/>
      <point x="2630.5745856353587" y="28.011049723756905"/>
      <point x="2826.3646408839777" y="181.24861878453038"/>
      <point x="2826.3646408839777" y="460.27624309392263" type="curve" smooth="yes"/>
      <point x="2826.3646408839777" y="696.1325966850828"/>
      <point x="2719.5359116022096" y="884.5414364640884"/>
      <point x="2437.519337016575" y="884.5414364640884" type="curve" smooth="yes"/>
      <point x="2202.1215469613257" y="884.5414364640884"/>
      <point x="2012.5027624309394" y="727.3038674033149"/>
      <point x="2012.5027624309394" y="448.27624309392263" type="curve" smooth="yes"/>
      <point x="2012.5027624309394" y="221.6961325966851"/>
      <point x="2149.7790055248615" y="28.011049723756905"/>
    </contour>
    <contour>
      <point x="2416.243093922652" y="80.48618784530387" type="curve" smooth="yes"/>
      <point x="2301.325966850829" y="80.48618784530387"/>
      <point x="2247.0" y="209.4033149171271"/>
      <point x="2247.0" y="459.89502762430936" type="curve" smooth="yes"/>
      <point x="2247.0" y="712.3977900552487"/>
      <point x="2305.812154696133" y="833.5138121546961"/>
      <point x="2424.519337016575" y="833.5138121546961" type="curve" smooth="yes"/>
      <point x="2537.4364640883978" y="833.5138121546961"/>
      <point x="2592.14364640884" y="711.6077348066299"/>
      <point x="2592.14364640884" y="452.27624309392263" type="curve" smooth="yes"/>
      <point x="2592.14364640884" y="201.0497237569061"/>
      <point x="2533.502762430939" y="80.48618784530387"/>
    </contour>
  </outline>
</glyph>
<glyph name="minute" format="2">
  <advance width="580.038674033149"/>
  <unicode hex="2032"/>
  <outline>
    <contour>
      <point x="300.9613259668509" y="1750.0" type="line"/>
      <point x="180.27624309392263" y="1009.1436464088398" type="line"/>
      <point x="260.5801104972375" y="1009.1436464088398" type="line"/>
      <point x="466.35911602209944" y="1750.0" type="line"/>
    </contour>
  </outline>
</glyph>
<glyph name="guilsinglright" format="2">
  <advance width="760.0718232044198"/>
  <unicode hex="203A"/>
  <outline>
    <contour>
      <point x="151.7624309392265" y="981.2430939226518" type="line"/>
      <point x="108.41988950276243" y="959.756906077348" type="line"/>
      <point x="417.3259668508287" y="524.6187845303867" type="line"/>
      <point x="108.41988950276243" y="101.92817679558011" type="line"/>
      <point x="151.7624309392265" y="76.88950276243094" type="line"/>
      <point x="677.6519337016575" y="495.0" type="line"/>
      <point x="677.6519337016575" y="553.8563535911602" type="line"/>
    </contour>
  </outline>
</glyph>
<glyph name="peseta" format="2">
  <advance width="1575.4364640883975"/>
  <unicode hex="20A7"/>
  <anchor x="550.8563535911601" y="0.0" name="bottom"/>
  <anchor x="817.574585635359" y="1486.0" name="top"/>
  <outline>
    <contour>
      <point x="116.58563535911603" y="1061.364640883978" type="line"/>
      <point x="116.58563535911603" y="989.5745856353591" type="line"/>
      <point x="1545.1712707182323" y="989.5745856353591" type="line"/>
      <point x="1545.1712707182323" y="1055.364640883978" type="line"/>
    </contour>
    <component base="P" xOffset="134.64088397790056"/>
  </outline>
</glyph>
<glyph name="dong" format="2">
  <advance width="1381.403314917127"/>
  <unicode hex="20AB"/>
  <outline>
    <contour>
      <point x="825.6022099447514" y="1354.0386740331492" type="line"/>
      <point x="538.5911602209944" y="1354.0386740331492" type="line"/>
      <point x="538.5911602209944" y="1290.0773480662983" type="line"/>
      <point x="825.6022099447514" y="1290.0773480662983" type="line"/>
      <point x="825.6022099447514" y="1088.486187845304" type="line"/>
      <point x="778.8011049723757" y="1117.1049723756905"/>
      <point x="710.4198895027624" y="1135.657458563536"/>
      <point x="616.6961325966852" y="1135.657458563536" type="curve" smooth="yes"/>
      <point x="360.9226519337017" y="1135.657458563536"/>
      <point x="157.38121546961327" y="994.5303867403316"/>
      <point x="157.38121546961327" y="683.9613259668508" type="curve" smooth="yes"/>
      <point x="157.38121546961327" y="384.2872928176796"/>
      <point x="346.8563535911602" y="266.6850828729282"/>
      <point x="532.6574585635359" y="266.6850828729282" type="curve" smooth="yes"/>
      <point x="695.9226519337017" y="266.6850828729282"/>
      <point x="789.828729281768" y="357.71270718232046"/>
      <point x="832.3259668508288" y="425.1988950276243" type="curve"/>
      <point x="832.3259668508288" y="345.9226519337017" type="line" smooth="yes"/>
      <point x="832.3259668508288" y="295.23756906077347"/>
      <point x="832.3259668508288" y="257.68508287292815"/>
      <point x="949.5138121546961" y="257.68508287292815" type="curve" smooth="yes"/>
      <point x="1022.9226519337013" y="257.68508287292815"/>
      <point x="1131.988950276243" y="274.7237569060773"/>
      <point x="1211.1657458563536" y="292.8563535911602" type="curve"/>
      <point x="1211.1657458563536" y="334.9889502762431" type="line"/>
      <point x="1101.9834254143645" y="334.9889502762431" type="line"/>
      <point x="1101.9834254143645" y="1290.0773480662983" type="line"/>
      <point x="1277.5359116022098" y="1290.0773480662983" type="line"/>
      <point x="1277.5359116022098" y="1354.0386740331492" type="line"/>
      <point x="1101.9834254143645" y="1354.0386740331492" type="line"/>
      <point x="1101.9834254143645" y="1630.0939226519338" type="line"/>
      <point x="1081.2596685082874" y="1652.5027624309391" type="line"/>
      <point x="1027.3480662983427" y="1655.5414364640883" type="line"/>
      <point x="683.2265193370166" y="1577.3922651933703" type="line"/>
      <point x="683.2265193370166" y="1549.4972375690606" type="line"/>
      <point x="825.6022099447514" y="1526.6408839779006" type="line"/>
    </contour>
    <contour>
      <point x="648.0994475138123" y="385.3480662983426" type="curve" smooth="yes"/>
      <point x="538.1933701657459" y="385.3480662983426"/>
      <point x="465.5690607734807" y="493.00552486187837"/>
      <point x="467.2265193370166" y="718.0939226519338" type="curve" smooth="yes"/>
      <point x="468.8839779005525" y="939.657458563536"/>
      <point x="538.0883977900552" y="1075.1436464088397"/>
      <point x="680.6353591160221" y="1075.1436464088397" type="curve" smooth="yes"/>
      <point x="743.0276243093923" y="1075.1436464088397"/>
      <point x="798.6022099447514" y="1049.5911602209944"/>
      <point x="825.6022099447514" y="1005.011049723757" type="curve"/>
      <point x="825.6022099447514" y="483.02762430939225" type="line"/>
      <point x="790.7237569060774" y="437.2154696132597"/>
      <point x="724.7292817679557" y="385.3480662983426"/>
    </contour>
    <contour>
      <point x="1249.6408839779006" y="71.47513812154696" type="line"/>
      <point x="185.51381215469613" y="71.47513812154696" type="line"/>
      <point x="185.51381215469613" y="0.0" type="line"/>
      <point x="1249.6408839779006" y="0.0" type="line"/>
    </contour>
  </outline>
</glyph>
